<svg width="43" height="49" viewBox="0 0 43 49" fill="none" xmlns="http://www.w3.org/2000/svg">
<path d="M42.0282 18.7762C42.0282 18.4788 41.8669 18.2048 41.6069 18.0605L18.3243 5.13826C17.7825 4.83759 17.1161 5.22448 17.1086 5.844L16.8893 23.9353C16.8857 24.2339 17.0449 24.5107 17.3047 24.6577L40.8067 37.9528C41.3523 38.2615 42.0282 37.8673 42.0282 37.2404V18.7762Z" fill="#FFF2D2"/>
<path d="M41.6259 18.9374C41.6259 18.6401 41.4646 18.3661 41.2046 18.2218L17.9219 5.29951C17.3802 4.99885 16.7138 5.38574 16.7063 6.00526L16.487 24.0966C16.4833 24.3951 16.6425 24.6719 16.9024 24.8189L40.4043 38.1141C40.95 38.4228 41.6259 38.0286 41.6259 37.4017V18.9374Z" fill="#FFE296"/>
<mask id="mask0_3_6947" style="mask-type:alpha" maskUnits="userSpaceOnUse" x="8" y="0" width="23" height="33">
<path d="M30.5848 12.2097L8.50253 0V32.0757L17.3274 26.1924L30.5848 12.2097Z" fill="#F59F3A"/>
</mask>
<g mask="url(#mask0_3_6947)">
<path d="M41.6258 18.9375C41.6258 18.6402 41.4645 18.3662 41.2045 18.2219L17.9219 5.29964C17.3801 4.99897 16.7137 5.38586 16.7062 6.00538L16.4869 24.0967C16.4833 24.3952 16.6425 24.672 16.9023 24.819L40.4043 38.1142C40.9499 38.4229 41.6258 38.0287 41.6258 37.4018V18.9375Z" fill="#FFBB6C" fill-opacity="0.25"/>
</g>
<path d="M40.3788 40.0858C40.929 39.7696 40.9258 38.9747 40.3729 38.663L16.7242 25.3324C16.4734 25.191 16.1668 25.1918 15.9168 25.3344L1.229 33.7119C0.682228 34.0238 0.677414 34.8103 1.22032 35.1289L24.4528 48.7596C24.7062 48.9083 25.02 48.9097 25.2747 48.7633L40.3788 40.0858Z" fill="#FFD39F"/>
<path d="M40.5389 39.5216C41.0892 39.2054 41.0859 38.4105 40.5331 38.0988L16.8875 24.77C16.635 24.6276 16.3261 24.6294 16.0753 24.7747L1.41953 33.2635C0.876015 33.5783 0.874966 34.3627 1.41763 34.6789L24.6136 48.1974C24.8668 48.3449 25.1795 48.3459 25.4335 48.1999L40.5389 39.5216Z" fill="#FFF2D2"/>
<path d="M37.4532 38.3585C37.7288 38.2002 37.7266 37.8018 37.4492 37.6466L17.687 26.5859C17.5631 26.5166 17.4121 26.5164 17.2881 26.5855L10.3146 30.4676C10.0339 30.6239 10.0344 31.0278 10.3155 31.1833L30.3014 42.2393C30.4267 42.3087 30.5792 42.3074 30.7034 42.2361L37.4532 38.3585Z" fill="#FFE194"/>
<g filter="url(#filter0_i_3_6947)">
<path d="M22.116 39.6054C22.3985 39.4504 22.3993 39.0449 22.1175 38.8887L15.9145 35.4505C15.7903 35.3817 15.6393 35.3821 15.5155 35.4518L11.1831 37.8887C10.9067 38.0442 10.9046 38.4415 11.1794 38.6L17.2076 42.0751C17.3315 42.1465 17.4836 42.1481 17.6089 42.0793L22.116 39.6054Z" fill="#FFDA93"/>
</g>
<defs>
<filter id="filter0_i_3_6947" x="10.9745" y="35.3992" width="11.3539" height="7.05799" filterUnits="userSpaceOnUse" color-interpolation-filters="sRGB">
<feFlood flood-opacity="0" result="BackgroundImageFix"/>
<feBlend mode="normal" in="SourceGraphic" in2="BackgroundImageFix" result="shape"/>
<feColorMatrix in="SourceAlpha" type="matrix" values="0 0 0 0 0 0 0 0 0 0 0 0 0 0 0 0 0 0 127 0" result="hardAlpha"/>
<feOffset dy="0.327402"/>
<feGaussianBlur stdDeviation="0.245551"/>
<feComposite in2="hardAlpha" operator="arithmetic" k2="-1" k3="1"/>
<feColorMatrix type="matrix" values="0 0 0 0 0.163232 0 0 0 0 0.16 0 0 0 0 0.266667 0 0 0 0.1 0"/>
<feBlend mode="normal" in2="shape" result="effect1_innerShadow_3_6947"/>
</filter>
</defs>
</svg>
