<svg width="22" height="37" viewBox="0 0 22 37" fill="none" xmlns="http://www.w3.org/2000/svg">
<path d="M21.9589 12.0219C21.9589 18.2294 17.1671 23.2617 11.2561 23.2617C5.34505 23.2617 0.553223 18.2294 0.553223 12.0219C0.553223 5.81428 5.34505 0.782043 11.2561 0.782043C17.1671 0.782043 21.9589 5.81428 21.9589 12.0219Z" fill="#F8C84D"/>
<path d="M6.54284 30.2486L0.847748 15.1609H21.5661L15.3309 30.2486H6.54284Z" fill="#F8C84D"/>
<ellipse cx="10.8637" cy="33.2864" rx="2.94574" ry="3.03779" fill="#08566B"/>
<rect x="6.44528" y="29.5399" width="9.03359" height="3.94913" fill="#71B6BF"/>
<ellipse cx="10.9612" cy="10.8573" rx="9.81912" ry="9.97408" fill="#FFDF8C"/>
<path d="M6.4595 4.52978C3.86413 6.39277 3.1693 7.9023 3.02792 10.6302C3.01145 10.948 3.18265 11.2453 3.46118 11.3993C3.99524 11.6945 4.65495 11.3471 4.7551 10.7451C5.09924 8.67665 5.76298 7.34814 7.44121 5.95978C7.91815 5.56522 7.8908 4.80278 7.35561 4.49178C7.07492 4.32867 6.72323 4.34047 6.4595 4.52978Z" fill="white"/>
</svg>
