<svg width="28" height="34" viewBox="0 0 28 34" fill="none" xmlns="http://www.w3.org/2000/svg">
<path d="M27.7849 22.5449C27.7849 30.0829 21.5651 34.0001 13.8925 34.0001C6.21987 34.0001 0 30.0829 0 22.5449C0 15.007 6.21987 4.63098 13.8925 4.63098C21.5651 4.63098 27.7849 15.007 27.7849 22.5449Z" fill="#FFE299"/>
<path d="M20.7165 1.24911C20.7165 3.73933 17.7157 5.75806 14.014 5.75806C10.3123 5.75806 7.31152 3.73933 7.31152 1.24911C7.31152 -1.24112 10.3123 0.761651 14.014 0.761651C17.7157 0.761651 20.7165 -1.24112 20.7165 1.24911Z" fill="#FFE299"/>
<path d="M18.0406 5.61186C18.0406 6.5279 16.1856 7.2705 13.8973 7.2705C11.609 7.2705 9.75391 6.5279 9.75391 5.61186C9.75391 4.69582 11.609 6.23382 13.8973 6.23382C16.1856 6.23382 18.0406 4.69582 18.0406 5.61186Z" fill="#6A99A6"/>
<path d="M18.3259 4.84834C18.3259 5.30526 16.2398 6.503 14.1781 6.503C12.1165 6.503 9.75391 5.30534 9.75391 4.84842C9.75391 4.3915 11.9782 5.39987 14.0399 5.39987C16.1015 5.39987 18.3259 4.39142 18.3259 4.84834Z" fill="#608A96"/>
<path d="M13.7031 28.5308V11.0972H14.82V28.5308H13.7031ZM16.3931 17.0219C16.3477 16.5225 16.1457 16.1343 15.787 15.8574C15.4329 15.5759 14.9267 15.4352 14.2684 15.4352C13.8325 15.4352 13.4693 15.4919 13.1788 15.6054C12.8882 15.7189 12.6703 15.8755 12.525 16.0753C12.3797 16.2705 12.3048 16.4953 12.3003 16.7495C12.2912 16.9583 12.332 17.1422 12.4228 17.3011C12.5182 17.46 12.6544 17.6007 12.8314 17.7233C13.013 17.8414 13.231 17.9458 13.4852 18.0366C13.7394 18.1274 14.0255 18.2068 14.3433 18.2749L15.5418 18.5473C16.2319 18.6972 16.8403 18.8969 17.3669 19.1466C17.8981 19.3963 18.343 19.6937 18.7017 20.0387C19.0649 20.3838 19.3396 20.781 19.5257 21.2305C19.7118 21.68 19.8072 22.1839 19.8117 22.7423C19.8072 23.6231 19.5847 24.379 19.1443 25.0101C18.704 25.6411 18.0706 26.1246 17.2443 26.4606C16.4226 26.7966 15.4306 26.9645 14.2684 26.9645C13.1016 26.9645 12.0846 26.7897 11.2175 26.4402C10.3503 26.0906 9.67613 25.5594 9.19488 24.8466C8.71364 24.1338 8.46621 23.2326 8.45259 22.143H11.6805C11.7078 22.5925 11.8281 22.967 12.0415 23.2667C12.2549 23.5663 12.5477 23.7933 12.92 23.9477C13.2968 24.1021 13.7326 24.1792 14.2275 24.1792C14.6815 24.1792 15.0674 24.1179 15.3852 23.9954C15.7075 23.8728 15.955 23.7025 16.1275 23.4846C16.3 23.2667 16.3885 23.017 16.3931 22.7355C16.3885 22.4722 16.3068 22.2475 16.1479 22.0613C15.989 21.8706 15.7439 21.7072 15.4124 21.571C15.0856 21.4303 14.6679 21.3009 14.1594 21.1828L12.702 20.8423C11.4944 20.5654 10.5433 20.1182 9.84865 19.5007C9.15402 18.8788 8.80898 18.0389 8.81352 16.981C8.80898 16.1184 9.04052 15.3625 9.50815 14.7133C9.97577 14.0641 10.6227 13.5579 11.449 13.1947C12.2753 12.8315 13.2173 12.6499 14.2752 12.6499C15.3557 12.6499 16.2932 12.8337 17.0877 13.2015C17.8868 13.5647 18.5065 14.0754 18.9468 14.7337C19.3872 15.392 19.612 16.1547 19.621 17.0219H16.3931Z" fill="#FCAF55"/>
</svg>
