<svg width="40" height="37" viewBox="0 0 40 37" fill="none" xmlns="http://www.w3.org/2000/svg">
<path d="M19.9316 1.13045C20.0551 0.765051 20.5719 0.765051 20.6953 1.13045L25.0061 13.8912C25.0614 14.055 25.215 14.1653 25.3879 14.1653H39.3034C39.6977 14.1653 39.8574 14.6729 39.5343 14.8987L28.3037 22.7467C28.157 22.8493 28.0955 23.0364 28.1528 23.2061L32.4488 35.9232C32.5733 36.2918 32.155 36.6054 31.8361 36.3825L20.5443 28.4917C20.4057 28.3948 20.2213 28.3948 20.0826 28.4917L8.7909 36.3825C8.472 36.6054 8.05369 36.2918 8.1782 35.9232L12.4742 23.2061C12.5315 23.0364 12.47 22.8493 12.3232 22.7467L1.09266 14.8987C0.769519 14.6729 0.9293 14.1653 1.32352 14.1653H15.239C15.4119 14.1653 15.5656 14.055 15.6209 13.8912L19.9316 1.13045Z" fill="#FFE299"/>
</svg>
