<svg width="384" height="176" viewBox="0 0 384 176" fill="none" xmlns="http://www.w3.org/2000/svg">
<path opacity="0.7" d="M22.7496 1.90729L22.8643 2.73406L22.7496 1.90729ZM374.109 1.90729L373.403 2.353L374.109 1.90729ZM18.3377 169.75L17.9285 170.478L18.3377 169.75ZM136.679 10.524L136.614 11.3561L136.679 10.524ZM380.957 86.7692L381.79 86.7163L380.957 86.7692ZM238.462 169.75L238.411 170.583L238.462 169.75ZM12.5931 6.69273C12.3276 7.06959 12.4178 7.59032 12.7947 7.85581C13.1716 8.12131 13.6923 8.03102 13.9578 7.65416L12.5931 6.69273ZM10.6934 28.8424C10.6752 28.3818 10.2871 28.0231 9.82644 28.0413C9.36581 28.0594 9.00712 28.4476 9.02529 28.9082L10.6934 28.8424ZM10.3015 51.2025C10.3211 51.663 10.7105 52.0204 11.171 52.0008C11.6316 51.9811 11.989 51.5918 11.9693 51.1312L10.3015 51.2025ZM11.6602 73.5462C11.6999 73.087 11.3598 72.6825 10.9005 72.6428C10.4412 72.6031 10.0367 72.9433 9.99704 73.4025L11.6602 73.5462ZM6.3875 95.6679C6.30096 96.1207 6.59787 96.5579 7.05066 96.6445C7.50345 96.731 7.94067 96.4341 8.02722 95.9813L6.3875 95.6679ZM4.03904 118.58C4.10559 118.124 3.78975 117.7 3.33359 117.634C2.87743 117.567 2.45368 117.883 2.38713 118.339L4.03904 118.58ZM0.954751 141.407C0.985103 141.867 1.3826 142.215 1.84259 142.184C2.30259 142.154 2.65088 141.757 2.62052 141.297L0.954751 141.407ZM10.0643 162.036C9.76488 161.685 9.23799 161.644 8.88752 161.944C8.53705 162.243 8.49571 162.77 8.79518 163.12L10.0643 162.036ZM26.8092 173.531C27.2598 173.628 27.7038 173.341 27.8007 172.89C27.8976 172.44 27.6109 171.996 27.1602 171.899L26.8092 173.531ZM45.2969 173.945C44.8365 173.923 44.4451 174.278 44.4228 174.739C44.4005 175.199 44.7556 175.59 45.2161 175.613L45.2969 173.945ZM63.6805 175.91C64.1414 175.906 64.5119 175.529 64.5079 175.068C64.504 174.607 64.1271 174.237 63.6661 174.241L63.6805 175.91ZM82.0541 173.802C81.5935 173.819 81.2335 174.206 81.2501 174.666C81.2667 175.127 81.6537 175.487 82.1143 175.47L82.0541 173.802ZM100.532 174.661C100.992 174.638 101.346 174.246 101.323 173.786C101.3 173.326 100.908 172.971 100.448 172.994L100.532 174.661ZM118.839 172.007C118.379 172.033 118.027 172.427 118.053 172.887C118.079 173.347 118.473 173.699 118.933 173.674L118.839 172.007ZM137.314 172.631C137.774 172.605 138.126 172.211 138.1 171.751C138.074 171.291 137.68 170.939 137.22 170.964L137.314 172.631ZM155.614 169.964C155.154 169.988 154.8 170.38 154.824 170.84C154.848 171.301 155.24 171.655 155.7 171.631L155.614 169.964ZM174.089 170.765C174.55 170.746 174.907 170.357 174.888 169.896C174.869 169.436 174.48 169.078 174.02 169.097L174.089 170.765ZM192.43 168.465C191.97 168.477 191.606 168.861 191.618 169.321C191.629 169.782 192.013 170.146 192.473 170.134L192.43 168.465ZM210.877 169.867C211.338 169.866 211.711 169.492 211.71 169.031C211.71 168.57 211.335 168.197 210.874 168.198L210.877 169.867ZM229.321 168.481C228.86 168.465 228.474 168.825 228.457 169.286C228.441 169.747 228.802 170.133 229.262 170.149L229.321 168.481ZM249.779 171.242C250.239 171.268 250.633 170.915 250.658 170.455C250.683 169.994 250.331 169.601 249.87 169.575L249.779 171.242ZM272.563 170.677C272.103 170.658 271.714 171.016 271.695 171.476C271.675 171.937 272.033 172.326 272.494 172.345L272.563 170.677ZM295.221 173.1C295.682 173.111 296.065 172.746 296.076 172.286C296.087 171.825 295.722 171.442 295.261 171.431L295.221 173.1ZM317.99 171.712C317.529 171.712 317.155 172.087 317.156 172.548C317.156 173.008 317.53 173.382 317.991 173.381L317.99 171.712ZM340.759 172.914C341.219 172.893 341.576 172.503 341.555 172.043C341.535 171.582 341.145 171.225 340.684 171.246L340.759 172.914ZM363.205 169.161C362.751 169.239 362.445 169.67 362.523 170.124C362.601 170.579 363.033 170.884 363.487 170.806L363.205 169.161ZM380.602 158.581C380.753 158.145 380.523 157.67 380.087 157.518C379.652 157.367 379.176 157.597 379.025 158.033L380.602 158.581ZM381.852 138.021C381.836 138.482 382.197 138.868 382.658 138.884C383.118 138.9 383.505 138.54 383.521 138.079L381.852 138.021ZM383.397 117.511C383.381 117.051 382.995 116.69 382.534 116.705C382.073 116.721 381.713 117.107 381.728 117.568L383.397 117.511ZM380.75 97.0787C380.776 97.5389 381.171 97.8904 381.631 97.8638C382.091 97.8371 382.443 97.4425 382.416 96.9822L380.75 97.0787ZM381.152 76.0511C381.126 75.5908 380.732 75.2387 380.271 75.2646C379.811 75.2906 379.459 75.6847 379.485 76.145L381.152 76.0511ZM378.415 54.8113C378.436 55.2718 378.826 55.6284 379.286 55.6077C379.747 55.5869 380.103 55.1968 380.083 54.7363L378.415 54.8113ZM379.147 33.4151C379.125 32.9546 378.735 32.5988 378.274 32.6203C377.814 32.6418 377.458 33.0325 377.479 33.493L379.147 33.4151ZM375.968 12.2585C376.026 12.7158 376.444 13.0395 376.901 12.9814C377.358 12.9233 377.682 12.5055 377.624 12.0482L375.968 12.2585ZM361.917 0.618201C361.458 0.657897 361.118 1.0624 361.158 1.52167C361.197 1.98095 361.602 2.32109 362.061 2.2814L361.917 0.618201ZM337.45 4.66473C337.91 4.62227 338.247 4.21573 338.205 3.75669C338.162 3.29766 337.756 2.95997 337.297 3.00244L337.45 4.66473ZM312.661 4.9801C312.201 5.01102 311.853 5.40895 311.884 5.8689C311.915 6.32886 312.313 6.67666 312.773 6.64574L312.661 4.9801ZM288.055 7.97696C288.515 7.95824 288.873 7.56966 288.855 7.10905C288.836 6.64844 288.447 6.29022 287.987 6.30894L288.055 7.97696ZM264.041 7.07844C263.58 7.09316 263.219 7.47862 263.233 7.93937C263.248 8.40013 263.633 8.76171 264.094 8.74698L264.041 7.07844ZM240.935 9.56812C241.396 9.55039 241.755 9.16259 241.737 8.70194C241.72 8.24129 241.332 7.88223 240.871 7.89996L240.935 9.56812ZM217.704 8.83194C217.243 8.85087 216.885 9.2396 216.904 9.7002C216.923 10.1608 217.312 10.5189 217.772 10.4999L217.704 8.83194ZM194.612 11.4151C195.073 11.3984 195.433 11.0114 195.416 10.5507C195.399 10.09 195.012 9.73011 194.551 9.74682L194.612 11.4151ZM171.399 10.4019C170.938 10.4097 170.571 10.7897 170.578 11.2507C170.586 11.7116 170.966 12.0789 171.427 12.071L171.399 10.4019ZM148.217 11.9768C148.678 11.9916 149.063 11.6301 149.078 11.1693C149.093 10.7086 148.732 10.3231 148.271 10.3082L148.217 11.9768ZM127.269 8.83134C126.81 8.78518 126.401 9.11958 126.355 9.57826C126.309 10.0369 126.643 10.4462 127.102 10.4923L127.269 8.83134ZM108.138 8.40242C108.596 8.45538 109.01 8.12708 109.063 7.66914C109.116 7.2112 108.787 6.79704 108.33 6.74408L108.138 8.40242ZM89.3761 4.55475C88.918 4.50289 88.5046 4.83219 88.4528 5.29025C88.4009 5.74831 88.7302 6.16169 89.1883 6.21355L89.3761 4.55475ZM70.2336 4.19106C70.6924 4.23597 71.1007 3.90044 71.1456 3.44164C71.1905 2.98284 70.855 2.57451 70.3962 2.52961L70.2336 4.19106ZM51.3559 0.950779C50.8959 0.921509 50.4992 1.27073 50.4699 1.7308C50.4406 2.19086 50.7899 2.58754 51.2499 2.61681L51.3559 0.950779ZM32.2558 2.07191C32.7166 2.06206 33.0823 1.68044 33.0724 1.21956C33.0626 0.758672 32.6809 0.393042 32.2201 0.402901L32.2558 2.07191ZM22.6348 1.08051C17.9703 1.72778 14.7348 3.6526 12.5931 6.69273L13.9578 7.65416C15.7914 5.05138 18.5804 3.32851 22.8643 2.73406L22.6348 1.08051ZM9.02529 28.9082C9.15654 32.2352 9.38967 35.7898 9.63248 39.5165C9.87554 43.2469 10.1286 47.1538 10.3015 51.2025L11.9693 51.1312C11.7955 47.0612 11.5413 43.1366 11.2983 39.408C11.0552 35.6756 10.8236 32.1438 10.6934 28.8424L9.02529 28.9082ZM9.99704 73.4025C9.68385 77.0272 9.21001 80.6954 8.52555 84.3842L10.1669 84.6888C10.8624 80.9408 11.3429 77.2184 11.6602 73.5462L9.99704 73.4025ZM8.52555 84.3842C7.80974 88.242 7.08788 92.0035 6.3875 95.6679L8.02722 95.9813C8.72724 92.3188 9.4501 88.552 10.1669 84.6888L8.52555 84.3842ZM2.38713 118.339C1.15519 126.783 0.499498 134.507 0.954751 141.407L2.62052 141.297C2.1766 134.569 2.81371 126.979 4.03904 118.58L2.38713 118.339ZM8.79518 163.12C11.1938 165.928 14.2065 168.384 17.9285 170.478L18.7469 169.022C15.1787 167.016 12.3235 164.68 10.0643 162.036L8.79518 163.12ZM17.9285 170.478C20.207 171.759 23.2121 172.757 26.8092 173.531L27.1602 171.899C23.6448 171.143 20.8208 170.189 18.7469 169.022L17.9285 170.478ZM45.2161 175.613C50.8202 175.884 57.0167 175.968 63.6805 175.91L63.6661 174.241C57.0234 174.298 50.8602 174.215 45.2969 173.945L45.2161 175.613ZM82.1143 175.47C88.0403 175.257 94.2006 174.979 100.532 174.661L100.448 172.994C94.1222 173.311 87.97 173.589 82.0541 173.802L82.1143 175.47ZM118.933 173.674C124.981 173.334 131.128 172.98 137.314 172.631L137.22 170.964C131.029 171.314 124.89 171.667 118.839 172.007L118.933 173.674ZM155.7 171.631C161.849 171.314 167.994 171.019 174.089 170.765L174.02 169.097C167.918 169.351 161.767 169.646 155.614 169.964L155.7 171.631ZM192.473 170.134C198.735 169.973 204.888 169.877 210.877 169.867L210.874 168.198C204.87 168.208 198.703 168.304 192.43 168.465L192.473 170.134ZM229.262 170.149C232.385 170.259 235.438 170.402 238.411 170.583L238.513 168.917C235.524 168.735 232.456 168.591 229.321 168.481L229.262 170.149ZM238.411 170.583C242.26 170.817 246.05 171.037 249.779 171.242L249.87 169.575C246.145 169.37 242.358 169.151 238.513 168.917L238.411 170.583ZM272.494 172.345C280.44 172.675 288.028 172.927 295.221 173.1L295.261 171.431C288.078 171.258 280.5 171.006 272.563 170.677L272.494 172.345ZM317.991 173.381C326.39 173.372 334.009 173.217 340.759 172.914L340.684 171.246C333.964 171.548 326.37 171.702 317.99 171.712L317.991 173.381ZM363.487 170.806C368.645 169.922 372.451 168.785 374.582 167.319L373.636 165.944C371.833 167.184 368.354 168.278 363.205 169.161L363.487 170.806ZM374.582 167.319C377.254 165.482 379.208 162.593 380.602 158.581L379.025 158.033C377.707 161.829 375.925 164.369 373.636 165.944L374.582 167.319ZM383.521 138.079C383.723 132.204 383.663 125.38 383.397 117.511L381.728 117.568C381.993 125.416 382.053 132.198 381.852 138.021L383.521 138.079ZM382.416 96.9822C382.226 93.6948 382.017 90.2741 381.79 86.7163L380.124 86.8222C380.35 90.3776 380.56 93.795 380.75 97.0787L382.416 96.9822ZM381.79 86.7163C381.557 83.0388 381.345 79.4841 381.152 76.0511L379.485 76.145C379.678 79.5817 379.89 83.1404 380.124 86.8222L381.79 86.7163ZM380.083 54.7363C379.722 46.731 379.437 39.6211 379.147 33.4151L377.479 33.493C377.769 39.7024 378.054 46.7897 378.415 54.8113L380.083 54.7363ZM377.624 12.0482C377.002 7.15314 376.156 3.58455 374.815 1.46157L373.403 2.353C374.525 4.12882 375.345 7.35379 375.968 12.2585L377.624 12.0482ZM374.815 1.46157C374.454 0.890951 373.795 0.61157 373.152 0.452256C372.474 0.284192 371.605 0.200635 370.576 0.17448C368.51 0.122018 365.62 0.298237 361.917 0.618201L362.061 2.2814C365.764 1.96139 368.571 1.79349 370.533 1.84334C371.517 1.86833 372.246 1.94754 372.751 2.07266C373.001 2.13477 373.17 2.20192 373.279 2.26219C373.386 2.32181 373.407 2.3594 373.403 2.353L374.815 1.46157ZM337.297 3.00244C330.158 3.66289 321.954 4.3554 312.661 4.9801L312.773 6.64574C322.083 6.0199 330.301 5.32617 337.45 4.66473L337.297 3.00244ZM287.987 6.30894C284.011 6.47051 279.893 6.61293 275.631 6.73156L275.677 8.40031C279.947 8.28147 284.072 8.13881 288.055 7.97696L287.987 6.30894ZM275.631 6.73156C271.689 6.84126 267.826 6.95747 264.041 7.07844L264.094 8.74698C267.877 8.62608 271.738 8.50994 275.677 8.40031L275.631 6.73156ZM240.871 7.89996C232.757 8.21227 225.042 8.53039 217.704 8.83194L217.772 10.4999C225.111 10.1984 232.824 9.88033 240.935 9.56812L240.871 7.89996ZM194.551 9.74682C186.296 10.0463 178.596 10.2796 171.399 10.4019L171.427 12.071C178.639 11.9485 186.351 11.7148 194.612 11.4151L194.551 9.74682ZM148.271 10.3082C144.238 10.1784 140.4 9.97718 136.744 9.6918L136.614 11.3561C140.3 11.6438 144.163 11.8462 148.217 11.9768L148.271 10.3082ZM136.744 9.6918C133.824 9.46392 130.648 9.17143 127.269 8.83134L127.102 10.4923C130.489 10.8333 133.678 11.127 136.614 11.3561L136.744 9.6918ZM108.33 6.74408C102.209 6.03624 95.8193 5.2842 89.3761 4.55475L89.1883 6.21355C95.629 6.94271 102.012 7.69404 108.138 8.40242L108.33 6.74408ZM70.3962 2.52961C63.8168 1.88566 57.3927 1.33485 51.3559 0.950779L51.2499 2.61681C57.2619 2.9993 63.6661 3.54829 70.2336 4.19106L70.3962 2.52961ZM32.2201 0.402901C28.6469 0.47933 25.4187 0.694209 22.6348 1.08051L22.8643 2.73406C25.5636 2.3595 28.723 2.14748 32.2558 2.07191L32.2201 0.402901Z" fill="white"/>
</svg>
