<svg width="351" height="145" viewBox="0 0 351 145" fill="none" xmlns="http://www.w3.org/2000/svg">
<path d="M13.6408 0.423771C22.3708 -1.66913 95.5282 6.79852 123.799 8.80083C152.07 10.8031 191.135 7.07662 250.581 5.57532C310.027 4.07402 340.897 -0.959182 344.115 3.35589C347.334 7.67097 344.114 30.5975 347.047 72.469C349.981 114.341 354.221 130.351 341.602 138.228C328.984 146.104 278.485 141.958 210.92 138.228C143.356 134.498 27.046 153.725 7.77794 138.228C-11.4902 122.73 12.9291 82.5938 7.77568 43.9856C2.62229 5.37734 4.91079 2.51667 13.6408 0.423771Z" fill="url(#paint0_linear_883_11149)"/>
<defs>
<linearGradient id="paint0_linear_883_11149" x1="174.502" y1="-30.9667" x2="174.502" y2="180.884" gradientUnits="userSpaceOnUse">
<stop stop-color="#2D244F"/>
<stop offset="1" stop-color="#1B315B"/>
</linearGradient>
</defs>
</svg>
