<svg width="341" height="142" viewBox="0 0 341 142" fill="none" xmlns="http://www.w3.org/2000/svg">
<path d="M8.81994 9.64409C21.8287 -2.60236 91.6387 0.765736 119.91 2.76804C148.181 4.77035 195.531 4.08097 247.528 2.76781C299.524 1.45465 323.389 0.100421 330.64 9.64425C337.892 19.1881 333.58 29.1055 336.513 70.977C339.447 112.848 346.126 127.571 326.905 137.716C307.684 147.86 194.399 136.884 126.834 133.153C59.2696 129.423 14.7656 141.085 3.89309 133.153C-6.97946 125.222 8.81911 106.4 8.81994 77.9172C8.82078 49.4346 -4.18886 21.8905 8.81994 9.64409Z" fill="url(#paint0_linear_883_12813)"/>
<defs>
<linearGradient id="paint0_linear_883_12813" x1="171.443" y1="-33.7791" x2="171.443" y2="178.071" gradientUnits="userSpaceOnUse">
<stop stop-color="#2D244F"/>
<stop offset="1" stop-color="#1B315B"/>
</linearGradient>
</defs>
</svg>
