<svg width="372" height="173" viewBox="0 0 372 173" fill="none" xmlns="http://www.w3.org/2000/svg">
<path opacity="0.7" d="M357.853 10.6962L358.37 10.0405L357.853 10.6962ZM8.67705 166.942L8.44504 167.743L8.67705 166.942ZM157.639 5.18663L157.574 6.0188L157.639 5.18663ZM367.053 85.4421L367.886 85.3891L367.053 85.4421ZM161.154 161.711L161.204 160.878L161.154 161.711ZM4.97304 16.4904C4.76861 16.9035 4.93784 17.4042 5.35103 17.6086C5.76421 17.8131 6.26489 17.6438 6.46932 17.2307L4.97304 16.4904ZM3.86957 36.1963C3.8404 35.7362 3.44379 35.3869 2.98373 35.4161C2.52366 35.4453 2.17435 35.8419 2.20352 36.3019L3.86957 36.1963ZM4.56609 56.0368C4.63079 56.4932 5.05326 56.8108 5.50968 56.7461C5.96611 56.6814 6.28366 56.2589 6.21896 55.8025L4.56609 56.0368ZM8.69671 75.4807C8.65078 75.022 8.2417 74.6874 7.783 74.7333C7.32431 74.7793 6.98969 75.1883 7.03562 75.647L8.69671 75.4807ZM8.00431 96.0842C7.99047 96.545 8.35279 96.9297 8.81358 96.9436C9.27436 96.9574 9.65912 96.5951 9.67295 96.1343L8.00431 96.0842ZM7.54675 117.46C7.61775 117.005 7.30605 116.578 6.85056 116.507C6.39507 116.436 5.96827 116.748 5.89727 117.203L7.54675 117.46ZM2.15436 138.204C2.07425 138.658 2.37732 139.091 2.8313 139.171C3.28528 139.251 3.71824 138.948 3.79835 138.494L2.15436 138.204ZM2.59269 159.32C2.48147 158.872 2.02864 158.6 1.58127 158.711C1.1339 158.822 0.861389 159.275 0.972606 159.722L2.59269 159.32ZM18.104 168.885C18.5649 168.893 18.9456 168.527 18.9543 168.066C18.9631 167.605 18.5965 167.224 18.1356 167.215L18.104 168.885ZM37.1504 166.309C36.691 166.347 36.3499 166.751 36.3884 167.21C36.4269 167.67 36.8306 168.011 37.29 167.972L37.1504 166.309ZM56.305 166.192C56.7638 166.147 57.0996 165.739 57.055 165.28C57.0104 164.821 56.6023 164.485 56.1435 164.53L56.305 166.192ZM75.1881 162.759C74.7288 162.799 74.3886 163.204 74.4282 163.663C74.4678 164.122 74.8722 164.462 75.3315 164.423L75.1881 162.759ZM94.3597 162.98C94.8198 162.951 95.1689 162.554 95.1395 162.094C95.11 161.634 94.7132 161.285 94.2532 161.314L94.3597 162.98ZM113.366 160.364C112.905 160.38 112.545 160.766 112.561 161.227C112.576 161.687 112.963 162.048 113.424 162.032L113.366 160.364ZM132.5 161.696C132.961 161.696 133.334 161.323 133.334 160.862C133.335 160.401 132.961 160.027 132.5 160.027L132.5 161.696ZM151.635 160.399C151.174 160.381 150.786 160.74 150.768 161.2C150.749 161.661 151.108 162.049 151.569 162.067L151.635 160.399ZM171.001 163.193C171.461 163.225 171.86 162.878 171.892 162.418C171.924 161.958 171.577 161.56 171.117 161.528L171.001 163.193ZM190.973 163.032C190.514 162.995 190.111 163.338 190.074 163.797C190.037 164.257 190.38 164.659 190.839 164.696L190.973 163.032ZM210.659 166.34C211.119 166.378 211.523 166.038 211.561 165.578C211.6 165.119 211.259 164.715 210.8 164.676L210.659 166.34ZM230.625 166.339C230.166 166.301 229.763 166.643 229.725 167.102C229.687 167.561 230.029 167.965 230.488 168.002L230.625 166.339ZM250.322 169.571C250.782 169.606 251.182 169.261 251.216 168.801C251.251 168.342 250.906 167.941 250.446 167.907L250.322 169.571ZM270.292 169.257C269.832 169.23 269.436 169.58 269.409 170.04C269.381 170.501 269.732 170.896 270.192 170.924L270.292 169.257ZM290.088 171.89C290.549 171.906 290.935 171.545 290.951 171.085C290.967 170.624 290.607 170.237 290.146 170.221L290.088 171.89ZM310.004 170.527C309.543 170.531 309.173 170.908 309.177 171.369C309.181 171.83 309.558 172.2 310.018 172.196L310.004 170.527ZM329.932 171.285C330.391 171.242 330.728 170.835 330.684 170.376C330.641 169.917 330.234 169.58 329.775 169.623L329.932 171.285ZM349.079 165.884C348.645 166.04 348.42 166.518 348.576 166.951C348.732 167.385 349.21 167.61 349.644 167.454L349.079 165.884ZM365.08 154.605C365.351 154.232 365.268 153.71 364.895 153.439C364.522 153.168 364 153.251 363.729 153.624L365.08 154.605ZM369.862 135.405C369.845 135.866 370.204 136.253 370.665 136.271C371.125 136.288 371.513 135.929 371.53 135.468L369.862 135.405ZM370.4 115.352C370.356 114.893 369.949 114.557 369.49 114.6C369.031 114.644 368.694 115.051 368.738 115.51L370.4 115.352ZM366.936 95.5328C366.973 95.9923 367.375 96.3354 367.834 96.2991C368.294 96.2628 368.637 95.8608 368.6 95.4013L366.936 95.5328ZM367.392 75.7153C367.375 75.2546 366.987 74.8954 366.526 74.913C366.066 74.9306 365.707 75.3183 365.724 75.7789L367.392 75.7153ZM365.487 56.3479C365.481 56.8089 365.85 57.1873 366.311 57.1931C366.772 57.199 367.15 56.83 367.156 56.3691L365.487 56.3479ZM367.63 36.9947C367.637 36.5337 367.27 36.1539 366.809 36.1462C366.348 36.1385 365.968 36.506 365.961 36.9669L367.63 36.9947ZM363.385 18.3656C363.595 18.776 364.098 18.9385 364.508 18.7285C364.919 18.5186 365.081 18.0157 364.871 17.6053L363.385 18.3656ZM348.325 4.23096C347.891 4.07439 347.413 4.29895 347.256 4.73254C347.099 5.16613 347.324 5.64455 347.758 5.80112L348.325 4.23096ZM325.539 3.50297C326 3.49561 326.368 3.11598 326.36 2.65505C326.353 2.19411 325.973 1.82643 325.512 1.83379L325.539 3.50297ZM302.729 2.66469C302.269 2.68466 301.911 3.0742 301.931 3.53476C301.951 3.99532 302.341 4.35249 302.801 4.33252L302.729 2.66469ZM280.013 5.23727C280.474 5.22144 280.835 4.83511 280.819 4.37439C280.803 3.91368 280.417 3.55302 279.956 3.56886L280.013 5.23727ZM259.293 4.18535C258.832 4.19855 258.469 4.5828 258.482 5.0436C258.495 5.50441 258.88 5.86726 259.34 5.85406L259.293 4.18535ZM240.863 6.39268C241.324 6.37915 241.686 5.99463 241.673 5.53384C241.659 5.07304 241.275 4.71047 240.814 4.72401L240.863 6.39268ZM222.313 5.25311C221.852 5.26554 221.489 5.64919 221.501 6.11001C221.514 6.57083 221.897 6.93433 222.358 6.92189L222.313 5.25311ZM203.865 7.33687C204.325 7.32969 204.693 6.9502 204.686 6.48927C204.679 6.02833 204.299 5.66049 203.839 5.66768L203.865 7.33687ZM185.365 5.70454C184.904 5.69735 184.524 6.06518 184.517 6.52612C184.51 6.98705 184.878 7.36654 185.339 7.37373L185.365 5.70454ZM166.823 6.66458C167.283 6.69247 167.679 6.34206 167.707 5.88192C167.734 5.42177 167.384 5.02614 166.924 4.99824L166.823 6.66458ZM148.569 3.65842C148.109 3.62441 147.709 3.96952 147.675 4.42926C147.641 4.88899 147.986 5.28925 148.446 5.32327L148.569 3.65842ZM130.095 4.06584C130.555 4.09466 130.952 3.74504 130.981 3.28495C131.009 2.82486 130.66 2.42852 130.2 2.39971L130.095 4.06584ZM111.829 1.3731C111.369 1.3507 110.977 1.7058 110.955 2.16625C110.932 2.6267 111.288 3.01812 111.748 3.04052L111.829 1.3731ZM93.385 2.30275C93.8458 2.317 94.2309 1.95502 94.2451 1.49425C94.2594 1.03348 93.8974 0.648399 93.4366 0.634152L93.385 2.30275ZM75.0282 0.273668C74.5672 0.270507 74.1909 0.641643 74.1878 1.10262C74.1846 1.5636 74.5558 1.93986 75.0167 1.94303L75.0282 0.273668ZM56.6629 2.1233C57.1237 2.10977 57.4863 1.72525 57.4728 1.26446C57.4592 0.803665 57.0747 0.44109 56.6139 0.454623L56.6629 2.1233ZM38.1962 1.52796C37.7373 1.5716 37.4006 1.979 37.4442 2.43792C37.4879 2.89684 37.8953 3.2335 38.3542 3.18986L38.1962 1.52796ZM20.3744 6.19882C20.8176 6.07194 21.0741 5.60981 20.9472 5.16662C20.8203 4.72344 20.3582 4.46702 19.915 4.5939L20.3744 6.19882ZM11.35 8.55548C8.50396 10.9114 6.42996 13.5457 4.97304 16.4904L6.46932 17.2307C7.81716 14.5064 9.74008 12.0553 12.4145 9.84144L11.35 8.55548ZM2.20352 36.3019C2.57358 42.1384 3.52583 48.699 4.56609 56.0368L6.21896 55.8025C5.17526 48.4404 4.2346 41.9535 3.86957 36.1963L2.20352 36.3019ZM7.03562 75.647C7.35237 78.8105 7.63005 82.0914 7.84589 85.4949L9.51194 85.3893C9.29467 81.9631 9.01522 78.6618 8.69671 75.4807L7.03562 75.647ZM7.84589 85.4949C8.07149 89.0524 8.10928 92.5891 8.00431 96.0842L9.67295 96.1343C9.77929 92.5936 9.74121 89.0046 9.51194 85.3893L7.84589 85.4949ZM5.89727 117.203C4.71584 124.783 3.2776 131.839 2.15436 138.204L3.79835 138.494C4.91039 132.193 6.36295 125.055 7.54675 117.46L5.89727 117.203ZM0.972606 159.722C1.46117 161.688 2.26972 163.396 3.50581 164.769C4.74588 166.147 6.37832 167.145 8.44504 167.743L8.90906 166.14C7.10477 165.618 5.75401 164.772 4.74663 163.653C3.73527 162.529 3.03214 161.087 2.59269 159.32L0.972606 159.722ZM8.44504 167.743C10.9585 168.471 14.215 168.811 18.104 168.885L18.1356 167.215C14.3009 167.143 11.2147 166.807 8.90906 166.14L8.44504 167.743ZM37.29 167.972C43.0305 167.491 49.3976 166.863 56.305 166.192L56.1435 164.53C49.2307 165.202 42.8772 165.828 37.1504 166.309L37.29 167.972ZM75.3315 164.423C81.3953 163.9 87.75 163.403 94.3597 162.98L94.2532 161.314C87.6284 161.738 81.2611 162.236 75.1881 162.759L75.3315 164.423ZM113.424 162.032C119.62 161.818 125.986 161.695 132.5 161.696L132.5 160.027C125.966 160.026 119.579 160.149 113.366 160.364L113.424 162.032ZM151.569 162.067C154.721 162.192 157.9 162.35 161.103 162.545L161.204 160.878C157.989 160.683 154.798 160.524 151.635 160.399L151.569 162.067ZM161.103 162.545C164.346 162.742 167.649 162.959 171.001 163.193L171.117 161.528C167.76 161.294 164.453 161.076 161.204 160.878L161.103 162.545ZM190.839 164.696C197.361 165.221 203.989 165.777 210.659 166.34L210.8 164.676C204.129 164.114 197.499 163.557 190.973 163.032L190.839 164.696ZM230.488 168.002C237.141 168.551 243.773 169.082 250.322 169.571L250.446 167.907C243.903 167.418 237.276 166.887 230.625 166.339L230.488 168.002ZM270.192 170.924C277.024 171.334 283.682 171.666 290.088 171.89L290.146 170.221C283.757 169.998 277.113 169.667 270.292 169.257L270.192 170.924ZM310.018 172.196C317.236 172.136 323.927 171.852 329.932 171.285L329.775 169.623C323.831 170.185 317.19 170.467 310.004 170.527L310.018 172.196ZM349.644 167.454C353.374 166.113 356.377 164.422 358.451 162.294L357.255 161.129C355.424 163.008 352.679 164.589 349.079 165.884L349.644 167.454ZM358.451 162.294C361.131 159.544 363.317 157.034 365.08 154.605L363.729 153.624C362.028 155.967 359.9 158.415 357.255 161.129L358.451 162.294ZM371.53 135.468C371.735 130.076 371.189 123.673 370.4 115.352L368.738 115.51C369.53 123.855 370.062 130.144 369.862 135.405L371.53 135.468ZM368.6 95.4013C368.353 92.2679 368.111 88.9371 367.886 85.3891L366.22 85.495C366.446 89.0524 366.688 92.3917 366.936 95.5328L368.6 95.4013ZM367.886 85.3891C367.67 81.997 367.509 78.7762 367.392 75.7153L365.724 75.7789C365.842 78.8536 366.003 82.0885 366.22 85.495L367.886 85.3891ZM367.156 56.3691C367.255 48.5647 367.54 42.3642 367.63 36.9947L365.961 36.9669C365.874 42.1798 365.584 48.6336 365.487 56.3479L367.156 56.3691ZM364.871 17.6053C363.447 14.8213 361.359 12.3944 358.37 10.0405L357.337 11.352C360.178 13.5893 362.092 15.8379 363.385 18.3656L364.871 17.6053ZM358.37 10.0405C355.014 7.39745 351.887 5.51755 348.325 4.23096L347.758 5.80112C351.11 7.01155 354.08 8.7874 357.337 11.352L358.37 10.0405ZM325.512 1.83379C319.403 1.93141 311.987 2.26334 302.729 2.66469L302.801 4.33252C312.07 3.9307 319.458 3.60014 325.539 3.50297L325.512 1.83379ZM279.956 3.56886C276.363 3.69234 272.574 3.81182 268.574 3.92313L268.621 5.59188C272.624 5.48047 276.417 5.36086 280.013 5.23727L279.956 3.56886ZM268.574 3.92313C265.361 4.01255 262.27 4.10006 259.293 4.18535L259.34 5.85406C262.318 5.76878 265.408 5.68128 268.621 5.59188L268.574 3.92313ZM240.814 4.72401C233.989 4.9245 227.876 5.10305 222.313 5.25311L222.358 6.92189C227.923 6.77177 234.038 6.59317 240.863 6.39268L240.814 4.72401ZM203.839 5.66768C197.043 5.77358 191.077 5.79363 185.365 5.70454L185.339 7.37373C191.073 7.46317 197.057 7.44296 203.865 7.33687L203.839 5.66768ZM166.924 4.99824C163.97 4.8192 160.922 4.60564 157.703 4.35446L157.574 6.0188C160.8 6.27062 163.858 6.48488 166.823 6.66458L166.924 4.99824ZM157.703 4.35446C155.109 4.15195 152.034 3.91478 148.569 3.65842L148.446 5.32327C151.908 5.5794 154.98 5.81638 157.574 6.0188L157.703 4.35446ZM130.2 2.39971C124.437 2.03878 118.249 1.6854 111.829 1.3731L111.748 3.04052C118.159 3.35239 124.339 3.70532 130.095 4.06584L130.2 2.39971ZM93.4366 0.634152C87.2942 0.444219 81.1079 0.31536 75.0282 0.273668L75.0167 1.94303C81.0809 1.98461 87.2537 2.11316 93.385 2.30275L93.4366 0.634152ZM56.6139 0.454623C50.0545 0.647276 43.8381 0.991541 38.1962 1.52796L38.3542 3.18986C43.9503 2.65779 50.1289 2.31521 56.6629 2.1233L56.6139 0.454623ZM19.915 4.5939C16.2589 5.64058 13.3072 6.93525 11.35 8.55548L12.4145 9.84144C14.108 8.43954 16.7983 7.22261 20.3744 6.19882L19.915 4.5939Z" fill="white"/>
</svg>
