<svg width="345" height="141" viewBox="0 0 345 141" fill="none" xmlns="http://www.w3.org/2000/svg">
<path d="M8.23694 9.82847C21.2457 -2.41798 93.6768 0.948804 121.948 2.95111C150.219 4.95342 190.12 4.45217 249.566 2.95088C309.012 1.44958 333.098 -1.50478 337.437 9.82679C341.776 21.1584 336.996 27.4757 339.93 69.3472C342.863 111.219 348.997 132.367 339.93 138.027C330.862 143.687 196.437 137.067 128.872 133.336C61.3077 129.606 21.7304 141.268 10.8578 133.336C-0.0147409 125.405 1.8076 108.702 1.80843 80.2195C1.80927 51.7369 -4.77186 22.0749 8.23694 9.82847Z" fill="url(#paint0_linear_883_11165)"/>
<defs>
<linearGradient id="paint0_linear_883_11165" x1="173.482" y1="-33.5956" x2="173.482" y2="178.255" gradientUnits="userSpaceOnUse">
<stop stop-color="#2D244F"/>
<stop offset="1" stop-color="#1B315B"/>
</linearGradient>
</defs>
</svg>
