<svg width="375" height="170" viewBox="0 0 375 170" fill="none" xmlns="http://www.w3.org/2000/svg">
<path opacity="0.7" d="M360.863 8.38013L360.346 9.03589L360.863 8.38013ZM131.592 3.93946L131.527 4.77163L131.592 3.93946ZM369.093 84.6238L368.26 84.6767L369.093 84.6238ZM8.42257 12.678C8.14875 13.0489 8.22742 13.5715 8.59828 13.8453C8.96913 14.1191 9.49175 14.0405 9.76557 13.6696L8.42257 12.678ZM3.83714 30.8963C3.90515 30.4404 3.59067 30.0156 3.13472 29.9476C2.67878 29.8796 2.25402 30.1941 2.18601 30.65L3.83714 30.8963ZM0.897272 49.5077C0.892387 49.9686 1.26211 50.3463 1.72308 50.3512C2.18404 50.356 2.56169 49.9863 2.56657 49.5253L0.897272 49.5077ZM2.97593 68.2718C2.95427 67.8113 2.56342 67.4556 2.10294 67.4772C1.64246 67.4989 1.28672 67.8897 1.30838 68.3502L2.97593 68.2718ZM2.47167 88.8706C2.49624 89.3309 2.88933 89.6842 3.34967 89.6596C3.81 89.635 4.16326 89.242 4.13869 88.7816L2.47167 88.8706ZM5.39082 111.015C5.35956 110.555 4.96137 110.207 4.50144 110.239C4.04151 110.27 3.69401 110.668 3.72527 111.128L5.39082 111.015ZM6.06738 133.356C6.14212 133.811 6.57147 134.119 7.02636 134.044C7.48126 133.969 7.78943 133.54 7.71469 133.085L6.06738 133.356ZM14.5093 153.754C14.251 153.372 13.7321 153.272 13.3502 153.53C12.9684 153.789 12.8682 154.307 13.1264 154.689L14.5093 153.754ZM31.0601 163.076C31.52 163.108 31.9187 162.761 31.9507 162.301C31.9827 161.841 31.6358 161.442 31.1759 161.41L31.0601 163.076ZM48.7043 161.455C48.2436 161.471 47.8833 161.858 47.8997 162.319C47.916 162.779 48.3027 163.14 48.7634 163.123L48.7043 161.455ZM66.3704 162.298C66.8308 162.274 67.1846 161.882 67.1607 161.421C67.1368 160.961 66.7442 160.607 66.2838 160.631L66.3704 162.298ZM83.8865 159.763C83.426 159.784 83.0692 160.173 83.0896 160.634C83.11 161.095 83.4999 161.451 83.9604 161.431L83.8865 159.763ZM101.574 160.795C102.034 160.783 102.398 160.399 102.386 159.939C102.373 159.478 101.99 159.114 101.529 159.127L101.574 160.795ZM119.157 158.847C118.696 158.849 118.324 159.224 118.326 159.685C118.328 160.146 118.704 160.518 119.165 160.516L119.157 158.847ZM136.77 160.657C137.231 160.666 137.612 160.3 137.622 159.839C137.632 159.379 137.266 158.997 136.805 158.988L136.77 160.657ZM154.421 159.584C153.961 159.562 153.57 159.917 153.548 160.378C153.526 160.838 153.882 161.229 154.343 161.251L154.421 159.584ZM173.414 162.351C173.874 162.379 174.27 162.029 174.298 161.568C174.326 161.108 173.976 160.713 173.516 160.685L173.414 162.351ZM194.135 161.928C193.675 161.9 193.279 162.251 193.252 162.711C193.225 163.171 193.575 163.567 194.036 163.594L194.135 161.928ZM214.643 164.802C215.103 164.828 215.498 164.477 215.524 164.016C215.55 163.556 215.199 163.162 214.739 163.135L214.643 164.802ZM235.35 164.289C234.89 164.264 234.497 164.617 234.472 165.077C234.447 165.537 234.8 165.931 235.26 165.956L235.35 164.289ZM255.88 167.034C256.341 167.057 256.732 166.702 256.756 166.242C256.779 165.782 256.424 165.39 255.964 165.367L255.88 167.034ZM276.583 166.34C276.122 166.32 275.733 166.677 275.712 167.138C275.692 167.598 276.049 167.988 276.509 168.008L276.583 166.34ZM297.131 168.836C297.591 168.852 297.978 168.492 297.994 168.031C298.011 167.571 297.651 167.184 297.19 167.167L297.131 168.836ZM317.824 167.775C317.363 167.765 316.981 168.13 316.971 168.591C316.961 169.052 317.326 169.434 317.787 169.444L317.824 167.775ZM338.448 169.674C338.909 169.672 339.281 169.297 339.28 168.836C339.278 168.375 338.904 168.003 338.443 168.004L338.448 169.674ZM359.034 167.322C358.575 167.361 358.234 167.765 358.273 168.225C358.312 168.684 358.716 169.025 359.175 168.986L359.034 167.322ZM374.605 157.31C374.678 156.855 374.369 156.427 373.914 156.353C373.459 156.28 373.03 156.589 372.957 157.044L374.605 157.31ZM372.777 136.485C372.815 136.944 373.218 137.286 373.677 137.248C374.137 137.21 374.478 136.807 374.44 136.348L372.777 136.485ZM372.479 115.649C372.435 115.19 372.027 114.854 371.568 114.899C371.109 114.943 370.773 115.351 370.818 115.81L372.479 115.649ZM368.993 95.0752C369.028 95.5349 369.429 95.8788 369.889 95.8433C370.349 95.8079 370.693 95.4066 370.657 94.947L368.993 95.0752ZM369.441 74.7287C369.425 74.268 369.038 73.9075 368.577 73.9236C368.117 73.9397 367.756 74.3262 367.772 74.7869L369.441 74.7287ZM367.664 55.0125C367.653 55.4733 368.018 55.8555 368.479 55.8661C368.94 55.8766 369.322 55.5116 369.333 55.0507L367.664 55.0125ZM370.09 35.3554C370.106 34.8947 369.746 34.5082 369.285 34.4921C368.824 34.4761 368.438 34.8365 368.422 35.2972L370.09 35.3554ZM366.327 16.2658C366.522 16.6837 367.019 16.8648 367.436 16.6702C367.854 16.4756 368.035 15.9791 367.841 15.5612L366.327 16.2658ZM351.108 2.0711C350.669 1.93148 350.199 2.17444 350.06 2.61378C349.92 3.05312 350.163 3.52246 350.602 3.66208L351.108 2.0711ZM328.09 2.10801C328.55 2.08956 328.909 1.7012 328.89 1.24057C328.872 0.779953 328.484 0.421501 328.023 0.439949L328.09 2.10801ZM305.059 1.66516C304.598 1.69017 304.245 2.08359 304.27 2.54391C304.295 3.00422 304.689 3.35711 305.149 3.3321L305.059 1.66516ZM282.156 4.39908C282.617 4.38187 282.976 3.99448 282.959 3.53381C282.942 3.07314 282.555 2.71364 282.094 2.73085L282.156 4.39908ZM259.026 3.42013C258.565 3.43235 258.201 3.81583 258.213 4.27666C258.226 4.73749 258.609 5.10116 259.07 5.08894L259.026 3.42013ZM235.888 5.66091C236.349 5.65056 236.714 5.26855 236.704 4.80768C236.694 4.3468 236.312 3.98158 235.851 3.99193L235.888 5.66091ZM212.671 4.43951C212.21 4.44668 211.842 4.82616 211.849 5.2871C211.856 5.74803 212.236 6.11588 212.697 6.1087L212.671 4.43951ZM189.507 6.34741C189.968 6.34555 190.341 5.97035 190.339 5.50936C190.337 5.04837 189.962 4.67617 189.501 4.67803L189.507 6.34741ZM166.333 4.56443C165.872 4.55723 165.492 4.92506 165.485 5.38599C165.478 5.84693 165.846 6.22643 166.307 6.23363L166.333 4.56443ZM143.112 5.50736C143.573 5.5306 143.965 5.17621 143.988 4.71581C144.011 4.2554 143.657 3.86333 143.196 3.84008L143.112 5.50736ZM122.029 2.52342C121.569 2.50193 121.178 2.85781 121.156 3.3183C121.135 3.77879 121.491 4.16951 121.951 4.191L122.029 2.52342ZM102.747 3.63939C103.208 3.64588 103.587 3.27748 103.594 2.81653C103.6 2.35559 103.232 1.97665 102.771 1.97016L102.747 3.63939ZM83.5122 1.91973C83.0512 1.92354 82.6806 2.30031 82.6844 2.76129C82.6882 3.22226 83.0649 3.59288 83.5259 3.58907L83.5122 1.91973ZM64.3022 3.95628C64.763 3.94222 65.1251 3.55729 65.1111 3.09651C65.097 2.63573 64.7121 2.2736 64.2513 2.28766L64.3022 3.95628ZM44.991 3.1473C44.5309 3.17553 44.1808 3.57142 44.209 4.03155C44.2373 4.49168 44.6331 4.84179 45.0933 4.81356L44.991 3.1473ZM25.9841 6.54313C26.4409 6.48121 26.761 6.06069 26.6991 5.60388C26.6372 5.14706 26.2166 4.82694 25.7598 4.88886L25.9841 6.54313ZM16.2126 6.81988C13.063 7.89178 10.4901 9.87782 8.42257 12.678L9.76557 13.6696C11.6544 11.1114 13.9584 9.35048 16.7505 8.40026L16.2126 6.81988ZM2.18601 30.65C1.36936 36.1246 0.972197 42.4374 0.897272 49.5077L2.56657 49.5253C2.64101 42.5013 3.03551 36.2702 3.83714 30.8963L2.18601 30.65ZM1.30838 68.3502C1.45143 71.392 1.62768 74.5297 1.83252 77.7598L3.49857 77.6541C3.29422 74.4318 3.1185 71.3032 2.97593 68.2718L1.30838 68.3502ZM1.83252 77.7598C2.06854 81.4815 2.27542 85.1936 2.47167 88.8706L4.13869 88.7816C3.94232 85.1024 3.7351 81.384 3.49857 77.6541L1.83252 77.7598ZM3.72527 111.128C4.27042 119.149 4.97019 126.678 6.06738 133.356L7.71469 133.085C6.63025 126.485 5.93471 119.017 5.39082 111.015L3.72527 111.128ZM13.1264 154.689C15.4701 158.155 18.4371 160.604 22.2086 161.695L22.6726 160.091C19.3545 159.131 16.6848 156.971 14.5093 153.754L13.1264 154.689ZM22.2086 161.695C24.6523 162.402 27.6145 162.836 31.0601 163.076L31.1759 161.41C27.791 161.175 24.9585 160.753 22.6726 160.091L22.2086 161.695ZM48.7634 163.123C54.0537 162.936 59.9316 162.633 66.3704 162.298L66.2838 160.631C59.8419 160.966 53.9783 161.268 48.7043 161.455L48.7634 163.123ZM83.9604 161.431C89.5216 161.185 95.3952 160.961 101.574 160.795L101.529 159.127C95.3386 159.292 89.455 159.516 83.8865 159.763L83.9604 161.431ZM119.165 160.516C124.824 160.492 130.694 160.531 136.77 160.657L136.805 158.988C130.714 158.862 124.83 158.822 119.157 158.847L119.165 160.516ZM154.343 161.251C157.236 161.388 160.17 161.545 163.144 161.726L163.245 160.06C160.264 159.879 157.322 159.72 154.421 159.584L154.343 161.251ZM163.144 161.726C166.472 161.929 169.901 162.138 173.414 162.351L173.516 160.685C170.002 160.471 166.574 160.262 163.245 160.06L163.144 161.726ZM194.036 163.594C200.753 163.994 207.65 164.4 214.643 164.802L214.739 163.135C207.747 162.734 200.851 162.328 194.135 161.928L194.036 163.594ZM235.26 165.956C242.145 166.33 249.044 166.692 255.88 167.034L255.964 165.367C249.13 165.025 242.234 164.663 235.35 164.289L235.26 165.956ZM276.509 168.008C283.573 168.32 290.478 168.599 297.131 168.836L297.19 167.167C290.543 166.931 283.643 166.652 276.583 166.34L276.509 168.008ZM317.787 169.444C325.283 169.61 332.23 169.693 338.448 169.674L338.443 168.004C332.243 168.024 325.31 167.941 317.824 167.775L317.787 169.444ZM359.175 168.986C361.774 168.766 363.967 168.488 365.692 168.142C367.384 167.804 368.738 167.381 369.566 166.811L368.62 165.436C368.095 165.797 367.037 166.171 365.365 166.505C363.726 166.833 361.602 167.105 359.034 167.322L359.175 168.986ZM369.566 166.811C372.386 164.871 373.9 161.675 374.605 157.31L372.957 157.044C372.288 161.189 370.908 163.862 368.62 165.436L369.566 166.811ZM374.44 136.348C373.949 130.389 373.238 123.504 372.479 115.649L370.818 115.81C371.578 123.681 372.286 130.541 372.777 136.485L374.44 136.348ZM370.657 94.947C370.401 91.618 370.155 88.1603 369.926 84.5708L368.26 84.6767C368.489 88.2743 368.736 91.7394 368.993 95.0752L370.657 94.947ZM369.926 84.5708C369.707 81.1239 369.549 77.8468 369.441 74.7287L367.772 74.7869C367.882 77.9206 368.04 81.2136 368.26 84.6767L369.926 84.5708ZM369.333 55.0507C369.512 47.2176 369.9 40.8147 370.09 35.3554L368.422 35.2972C368.233 40.6887 367.843 47.1808 367.664 55.0125L369.333 55.0507ZM367.841 15.5612C366.479 12.6358 364.412 10.1129 361.379 7.72437L360.346 9.03589C363.209 11.2905 365.093 13.6154 366.327 16.2658L367.841 15.5612ZM361.379 7.72437C357.989 5.0544 354.785 3.23971 351.108 2.0711L350.602 3.66208C354.05 4.75783 357.079 6.46253 360.346 9.03589L361.379 7.72437ZM328.023 0.439949C321.839 0.687608 314.352 1.16034 305.059 1.66516L305.149 3.3321C314.465 2.82605 321.922 2.35505 328.09 2.10801L328.023 0.439949ZM282.094 2.73085C278.468 2.86627 274.647 2.9926 270.615 3.1048L270.661 4.77355C274.699 4.66119 278.525 4.5347 282.156 4.39908L282.094 2.73085ZM270.615 3.1048C266.674 3.2145 262.811 3.31974 259.026 3.42013L259.07 5.08894C262.856 4.98853 266.719 4.88326 270.661 4.77355L270.615 3.1048ZM235.851 3.99193C227.733 4.17425 220.014 4.32518 212.671 4.43951L212.697 6.1087C220.045 5.99431 227.767 5.84329 235.888 5.66091L235.851 3.99193ZM189.501 4.67803C181.241 4.7113 173.535 4.67692 166.333 4.56443L166.307 6.23363C173.522 6.34632 181.239 6.38071 189.507 6.34741L189.501 4.67803ZM143.196 3.84008C139.16 3.63629 135.318 3.39302 131.657 3.10729L131.527 4.77163C135.205 5.05868 139.062 5.30289 143.112 5.50736L143.196 3.84008ZM131.657 3.10729C128.762 2.88132 125.527 2.68666 122.029 2.52342L121.951 4.191C125.436 4.35363 128.653 4.5473 131.527 4.77163L131.657 3.10729ZM102.771 1.97016C96.5675 1.88275 90.0624 1.86569 83.5122 1.91973L83.5259 3.58907C90.0644 3.53513 96.557 3.55216 102.747 3.63939L102.771 1.97016ZM64.2513 2.28766C57.5009 2.49362 50.9799 2.77983 44.991 3.1473L45.0933 4.81356C51.0619 4.44733 57.5654 4.16183 64.3022 3.95628L64.2513 2.28766ZM25.7598 4.88886C21.6683 5.44347 18.3784 6.08283 16.2126 6.81988L16.7505 8.40026C18.7552 7.71799 21.9112 7.09519 25.9841 6.54313L25.7598 4.88886Z" fill="white"/>
</svg>
