<svg width="379" height="169" viewBox="0 0 379 169" fill="none" xmlns="http://www.w3.org/2000/svg">
<path opacity="0.7" d="M369.074 165.003L369.547 165.691L369.074 165.003ZM13.7942 161.866L14.0262 161.064L13.7942 161.866ZM375.922 82.0224L376.755 81.9695L375.922 82.0224ZM8.40306 11.558C8.12924 11.9288 8.2079 12.4514 8.57876 12.7253C8.94961 12.9991 9.47223 12.9204 9.74605 12.5496L8.40306 11.558ZM3.81762 29.7763C3.88563 29.3204 3.57115 28.8956 3.1152 28.8276C2.65926 28.7596 2.2345 29.0741 2.16649 29.53L3.81762 29.7763ZM0.877753 48.3876C0.872868 48.8486 1.24259 49.2262 1.70356 49.2311C2.16452 49.236 2.54217 48.8663 2.54706 48.4053L0.877753 48.3876ZM2.95641 67.1518C2.93475 66.6913 2.5439 66.3355 2.08342 66.3572C1.62294 66.3789 1.2672 66.7697 1.28886 67.2302L2.95641 67.1518ZM2.2363 87.7862C2.24345 88.2471 2.62291 88.615 3.08384 88.6078C3.54478 88.6007 3.91264 88.2212 3.90549 87.7603L2.2363 87.7862ZM3.62198 110.189C3.63554 109.728 3.27299 109.344 2.81219 109.33C2.3514 109.317 1.96687 109.679 1.95331 110.14L3.62198 110.189ZM1.56367 132.565C1.57115 133.026 1.95088 133.393 2.41181 133.386C2.87274 133.378 3.24033 132.999 3.23285 132.538L1.56367 132.565ZM6.57959 154.184C6.38481 153.766 5.88819 153.585 5.47038 153.78C5.05256 153.975 4.87176 154.471 5.06655 154.889L6.57959 154.184ZM22.9838 163.958C23.4443 163.979 23.8347 163.623 23.8558 163.163C23.877 162.702 23.5208 162.312 23.0603 162.29L22.9838 163.958ZM41.6876 161.953C41.2273 161.978 40.8741 162.371 40.8988 162.831C40.9235 163.292 41.3166 163.645 41.777 163.62L41.6876 161.953ZM60.4364 162.426C60.8964 162.394 61.2437 161.996 61.2122 161.536C61.1807 161.076 60.7823 160.729 60.3224 160.76L60.4364 162.426ZM78.9989 159.535C78.5387 159.563 78.1882 159.958 78.216 160.418C78.2438 160.878 78.6394 161.229 79.0995 161.201L78.9989 159.535ZM97.7624 160.234C98.223 160.215 98.5807 159.826 98.5614 159.365C98.5421 158.905 98.153 158.547 97.6924 158.566L97.7624 160.234ZM116.414 158.003C115.953 158.011 115.586 158.391 115.594 158.852C115.602 159.313 115.982 159.68 116.443 159.672L116.414 158.003ZM135.122 159.611C135.583 159.616 135.961 159.247 135.966 158.786C135.971 158.325 135.602 157.947 135.141 157.941L135.122 159.611ZM153.86 158.451C153.4 158.431 153.01 158.788 152.99 159.249C152.97 159.71 153.327 160.099 153.788 160.119L153.86 158.451ZM173.395 161.231C173.855 161.259 174.251 160.909 174.279 160.448C174.307 159.988 173.956 159.593 173.496 159.565L173.395 161.231ZM194.115 160.808C193.655 160.78 193.26 161.131 193.232 161.591C193.205 162.051 193.556 162.447 194.016 162.474L194.115 160.808ZM214.623 163.682C215.083 163.708 215.478 163.357 215.504 162.896C215.531 162.436 215.179 162.042 214.719 162.015L214.623 163.682ZM235.331 163.169C234.871 163.144 234.477 163.497 234.452 163.957C234.427 164.417 234.78 164.811 235.24 164.836L235.331 163.169ZM255.861 165.914C256.321 165.937 256.713 165.582 256.736 165.122C256.759 164.662 256.404 164.27 255.944 164.247L255.861 165.914ZM276.563 165.22C276.103 165.2 275.713 165.557 275.693 166.018C275.672 166.478 276.029 166.868 276.49 166.888L276.563 165.22ZM297.111 167.716C297.572 167.732 297.958 167.372 297.975 166.911C297.991 166.451 297.631 166.064 297.17 166.047L297.111 167.716ZM317.804 166.655C317.343 166.645 316.961 167.01 316.951 167.471C316.941 167.932 317.306 168.314 317.767 168.324L317.804 166.655ZM338.428 168.554C338.889 168.552 339.262 168.177 339.26 167.716C339.259 167.255 338.884 166.883 338.423 166.884L338.428 168.554ZM359.015 166.202C358.555 166.241 358.214 166.645 358.253 167.104C358.292 167.564 358.696 167.905 359.155 167.866L359.015 166.202ZM375.559 156.487C375.701 156.048 375.461 155.577 375.023 155.435C374.584 155.293 374.113 155.533 373.971 155.971L375.559 156.487ZM376.795 135.179C376.779 135.64 377.139 136.026 377.6 136.043C378.06 136.06 378.447 135.7 378.464 135.239L376.795 135.179ZM378.384 113.901C378.37 113.441 377.984 113.079 377.524 113.094C377.063 113.108 376.701 113.493 376.716 113.954L378.384 113.901ZM375.734 92.7105C375.76 93.1708 376.154 93.5226 376.615 93.4963C377.075 93.47 377.427 93.0755 377.4 92.6153L375.734 92.7105ZM376.083 72.3391C376.047 71.8795 375.646 71.5354 375.187 71.5706C374.727 71.6059 374.383 72.007 374.418 72.4667L376.083 72.3391ZM372.619 53.3221C372.671 53.7801 373.085 54.1087 373.543 54.0561C374.001 54.0035 374.33 53.5896 374.277 53.1316L372.619 53.3221ZM371.458 34.0101C371.372 33.5572 370.935 33.2598 370.482 33.3459C370.029 33.4319 369.732 33.8688 369.818 34.3217L371.458 34.0101ZM364.765 15.9466C364.941 16.3728 365.429 16.576 365.855 16.4004C366.281 16.2248 366.484 15.7369 366.309 15.3107L364.765 15.9466ZM350.909 1.58712C350.455 1.50716 350.022 1.81037 349.942 2.26438C349.862 2.71838 350.165 3.15125 350.619 3.23121L350.909 1.58712ZM327.918 2.1334C328.379 2.12976 328.749 1.75311 328.746 1.29213C328.742 0.831156 328.365 0.460414 327.904 0.464058L327.918 2.1334ZM304.981 0.963249C304.521 0.976656 304.158 1.36107 304.171 1.82187C304.185 2.28267 304.569 2.64535 305.03 2.63194L304.981 0.963249ZM282.1 3.32298C282.561 3.30928 282.924 2.92463 282.91 2.46385C282.896 2.00306 282.512 1.64062 282.051 1.65432L282.1 3.32298ZM259.006 2.30009C258.545 2.31231 258.182 2.69579 258.194 3.15662C258.206 3.61745 258.59 3.98112 259.05 3.9689L259.006 2.30009ZM235.869 4.54086C236.33 4.53051 236.695 4.14851 236.685 3.68763C236.674 3.22676 236.292 2.86154 235.831 2.87189L235.869 4.54086ZM212.651 3.31947C212.19 3.32664 211.822 3.70612 211.829 4.16706C211.837 4.62799 212.216 4.99584 212.677 4.98866L212.651 3.31947ZM189.488 5.22737C189.949 5.22551 190.321 4.8503 190.319 4.38932C190.317 3.92833 189.942 3.55613 189.481 3.55799L189.488 5.22737ZM166.313 3.44439C165.852 3.43719 165.473 3.80502 165.466 4.26595C165.459 4.72689 165.826 5.10638 166.287 5.11358L166.313 3.44439ZM143.093 4.38731C143.553 4.41056 143.945 4.05617 143.968 3.59576C143.992 3.13536 143.637 2.74328 143.177 2.72004L143.093 4.38731ZM122.01 1.40338C121.549 1.38189 121.158 1.73776 121.137 2.19825C121.115 2.65874 121.471 3.04947 121.932 3.07096L122.01 1.40338ZM102.728 2.51935C103.189 2.52584 103.568 2.15744 103.574 1.69649C103.581 1.23555 103.212 0.85661 102.751 0.850115L102.728 2.51935ZM83.4926 0.799691C83.0317 0.803494 82.661 1.18027 82.6649 1.64125C82.6687 2.10222 83.0454 2.47283 83.5064 2.46903L83.4926 0.799691ZM64.2827 2.83623C64.7435 2.82217 65.1056 2.43724 65.0916 1.97647C65.0775 1.51569 64.6926 1.15356 64.2318 1.16761L64.2827 2.83623ZM44.9715 2.02726C44.5114 2.05549 44.1613 2.45138 44.1895 2.91151C44.2177 3.37163 44.6136 3.72175 45.0738 3.69352L44.9715 2.02726ZM25.9646 5.42308C26.4214 5.36116 26.7415 4.94065 26.6796 4.48383C26.6176 4.02702 26.1971 3.7069 25.7403 3.76882L25.9646 5.42308ZM16.1931 5.69984C13.0435 6.77174 10.4706 8.75778 8.40306 11.558L9.74605 12.5496C11.6349 9.99135 13.9389 8.23043 16.731 7.28022L16.1931 5.69984ZM2.16649 29.53C1.34984 35.0046 0.952678 41.3174 0.877753 48.3876L2.54706 48.4053C2.62149 41.3813 3.01599 35.1502 3.81762 29.7763L2.16649 29.53ZM1.28886 67.2302C1.43191 70.2719 1.60816 73.4097 1.813 76.6397L3.47905 76.5341C3.2747 73.3117 3.09898 70.1831 2.95641 67.1518L1.28886 67.2302ZM1.813 76.6397C2.0486 80.3549 2.17881 84.0803 2.2363 87.7862L3.90549 87.7603C3.84767 84.0329 3.71663 80.2805 3.47905 76.5341L1.813 76.6397ZM1.95331 110.14C1.71732 118.161 1.45336 125.769 1.56367 132.565L3.23285 132.538C3.12331 125.79 3.38541 118.23 3.62198 110.189L1.95331 110.14ZM5.06655 154.889C6.87482 158.768 9.58418 161.517 13.5622 162.668L14.0262 161.064C10.6136 160.077 8.2341 157.732 6.57959 154.184L5.06655 154.889ZM13.5622 162.668C16.0497 163.388 19.2192 163.785 22.9838 163.958L23.0603 162.29C19.3498 162.12 16.3303 161.731 14.0262 161.064L13.5622 162.668ZM41.777 163.62C47.4036 163.319 53.6469 162.891 60.4364 162.426L60.3224 160.76C53.5295 161.226 47.2994 161.652 41.6876 161.953L41.777 163.62ZM79.0995 161.201C85.0337 160.843 91.2641 160.507 97.7624 160.234L97.6924 158.566C91.1815 158.839 84.9405 159.176 78.9989 159.535L79.0995 161.201ZM116.443 159.672C122.494 159.567 128.726 159.538 135.122 159.611L135.141 157.941C128.728 157.868 122.479 157.898 116.414 158.003L116.443 159.672ZM153.788 160.119C156.87 160.254 159.983 160.415 163.124 160.606L163.226 158.94C160.074 158.748 156.952 158.586 153.86 158.451L153.788 160.119ZM163.124 160.606C166.453 160.809 169.881 161.018 173.395 161.231L173.496 159.565C169.983 159.351 166.554 159.142 163.226 158.94L163.124 160.606ZM194.016 162.474C200.733 162.874 207.63 163.28 214.623 163.682L214.719 162.015C207.728 161.613 200.832 161.208 194.115 160.808L194.016 162.474ZM235.24 164.836C242.126 165.21 249.025 165.572 255.861 165.914L255.944 164.247C249.111 163.905 242.214 163.543 235.331 163.169L235.24 164.836ZM276.49 166.888C283.554 167.2 290.458 167.479 297.111 167.716L297.17 166.047C290.523 165.811 283.624 165.532 276.563 165.22L276.49 166.888ZM317.767 168.324C325.263 168.49 332.211 168.573 338.428 168.554L338.423 166.884C332.223 166.904 325.29 166.821 317.804 166.655L317.767 168.324ZM359.155 167.866C361.754 167.646 363.947 167.368 365.673 167.022C367.365 166.684 368.718 166.261 369.547 165.691L368.601 164.315C368.075 164.677 367.018 165.051 365.345 165.385C363.707 165.713 361.583 165.985 359.015 166.202L359.155 167.866ZM369.547 165.691C372.229 163.846 374.174 160.756 375.559 156.487L373.971 155.971C372.646 160.055 370.863 162.759 368.601 164.315L369.547 165.691ZM378.464 135.239C378.685 129.081 378.639 121.983 378.384 113.901L376.716 113.954C376.97 122.014 377.015 129.072 376.795 135.179L378.464 135.239ZM377.4 92.6153C377.205 89.1953 376.989 85.6473 376.755 81.9695L375.089 82.0754C375.323 85.7504 375.539 89.2947 375.734 92.7105L377.4 92.6153ZM376.755 81.9695C376.542 78.6116 376.317 75.404 376.083 72.3391L374.418 72.4667C374.652 75.5239 374.876 78.7243 375.089 82.0754L376.755 81.9695ZM374.277 53.1316C373.419 45.6584 372.474 39.3561 371.458 34.0101L369.818 34.3217C370.825 39.6191 371.764 45.8799 372.619 53.3221L374.277 53.1316ZM366.309 15.3107C364.78 11.6006 363.169 8.89065 361.502 6.74763L360.184 7.77255C361.747 9.78231 363.287 12.3579 364.765 15.9466L366.309 15.3107ZM361.502 6.74763C359.436 4.09081 356.131 2.50686 350.909 1.58712L350.619 3.23121C355.67 4.12076 358.488 5.59211 360.184 7.77255L361.502 6.74763ZM327.904 0.464058C321.495 0.514715 313.925 0.703036 304.981 0.963249L305.03 2.63194C313.972 2.37176 321.527 2.18391 327.918 2.1334L327.904 0.464058ZM282.051 1.65432C278.4 1.76285 274.584 1.87375 270.595 1.98476L270.642 3.65351C274.632 3.54247 278.449 3.43153 282.1 3.32298L282.051 1.65432ZM270.595 1.98476C266.654 2.09445 262.792 2.1997 259.006 2.30009L259.05 3.9689C262.837 3.86848 266.7 3.76322 270.642 3.65351L270.595 1.98476ZM235.831 2.87189C227.713 3.05421 219.995 3.20514 212.651 3.31947L212.677 4.98866C220.025 4.87426 227.748 4.72325 235.869 4.54086L235.831 2.87189ZM189.481 3.55799C181.222 3.59126 173.516 3.55688 166.313 3.44439L166.287 5.11358C173.503 5.22627 181.22 5.26067 189.488 5.22737L189.481 3.55799ZM143.177 2.72004C139.14 2.51625 135.299 2.27298 131.638 1.98725L131.508 3.65158C135.186 3.93864 139.042 4.18284 143.093 4.38731L143.177 2.72004ZM131.638 1.98725C128.743 1.76127 125.507 1.56662 122.01 1.40338L121.932 3.07096C125.416 3.23359 128.634 3.42726 131.508 3.65158L131.638 1.98725ZM102.751 0.850115C96.5479 0.762704 90.0429 0.745647 83.4926 0.799691L83.5064 2.46903C90.0449 2.41508 96.5375 2.43212 102.728 2.51935L102.751 0.850115ZM64.2318 1.16761C57.4813 1.37358 50.9603 1.65979 44.9715 2.02726L45.0738 3.69352C51.0424 3.32729 57.5459 3.04178 64.2827 2.83623L64.2318 1.16761ZM25.7403 3.76882C21.6487 4.32342 18.3589 4.96279 16.1931 5.69984L16.731 7.28022C18.7357 6.59795 21.8917 5.97515 25.9646 5.42308L25.7403 3.76882Z" fill="white"/>
</svg>
