<svg width="350" height="141" viewBox="0 0 350 141" fill="none" xmlns="http://www.w3.org/2000/svg">
<path d="M11.636 4.52136C21.5796 -0.829041 95.6536 0.826836 123.925 2.82914C152.195 4.83145 192.096 4.33021 251.543 2.82891C310.989 1.32761 335.075 -1.62674 339.414 9.70482C343.753 21.0364 345.259 26.9222 348.192 68.7937C351.125 110.665 350.974 132.245 341.906 137.905C332.839 143.565 198.414 136.945 130.849 133.215C63.2845 129.484 39.1547 142.666 15.374 137.905C-8.40665 133.143 3.78442 108.58 3.78526 80.0975C3.78609 51.615 1.69235 9.87175 11.636 4.52136Z" fill="url(#paint0_linear_883_11141)"/>
<defs>
<linearGradient id="paint0_linear_883_11141" x1="175.463" y1="-33.7167" x2="175.463" y2="178.134" gradientUnits="userSpaceOnUse">
<stop stop-color="#2D244F"/>
<stop offset="1" stop-color="#1B315B"/>
</linearGradient>
</defs>
</svg>
