<svg width="383" height="172" viewBox="0 0 383 172" fill="none" xmlns="http://www.w3.org/2000/svg">
<path opacity="0.7" d="M376.349 3.04063L377.054 2.59492L376.349 3.04063ZM373.033 168.267L372.56 167.579L373.033 168.267ZM17.2614 168.267L17.4413 167.451L17.2614 168.267ZM379.881 85.2858L380.714 85.2328L379.881 85.2858ZM240.976 162.227L240.925 163.06L240.976 162.227ZM274.578 6.08249L274.554 5.24811L274.578 6.08249ZM8.49265 4.81061C8.142 5.10987 8.10034 5.63673 8.3996 5.98738C8.69887 6.33803 9.22573 6.37968 9.57637 6.08042L8.49265 4.81061ZM3.09611 20.7636C3.15979 20.3071 2.84129 19.8853 2.38472 19.8216C1.92815 19.758 1.5064 20.0764 1.44272 20.533L3.09611 20.7636ZM0.976732 37.6734C0.999489 38.1338 1.39119 38.4886 1.85162 38.4659C2.31205 38.4431 2.66685 38.0514 2.64409 37.591L0.976732 37.6734ZM4.13151 54.4888C4.0784 54.0309 3.66413 53.7027 3.20621 53.7558C2.74829 53.8089 2.42012 54.2232 2.47322 54.6811L4.13151 54.4888ZM4.65606 71.5721C4.71872 72.0288 5.13975 72.3483 5.59647 72.2856C6.05318 72.2229 6.37262 71.8019 6.30996 71.3452L4.65606 71.5721ZM8.61087 88.2074C8.55057 87.7504 8.13119 87.4288 7.67416 87.4891C7.21713 87.5494 6.89552 87.9688 6.95582 88.4258L8.61087 88.2074ZM8.82675 106.642C8.84617 107.102 9.23528 107.46 9.69586 107.441C10.1564 107.421 10.5141 107.032 10.4947 106.571L8.82675 106.642ZM9.76672 126.392C9.81834 125.934 9.48883 125.521 9.03074 125.469C8.57265 125.417 8.15944 125.747 8.10782 126.205L9.76672 126.392ZM4.95962 145.63C4.88001 146.084 5.18357 146.517 5.63764 146.596C6.09171 146.676 6.52433 146.372 6.60394 145.918L4.95962 145.63ZM8.81355 163.78C8.46326 163.48 7.93635 163.521 7.63668 163.871C7.337 164.222 7.37804 164.749 7.72833 165.048L8.81355 163.78ZM26.4586 170.14C26.9191 170.163 27.311 169.808 27.3341 169.348C27.3571 168.887 27.0026 168.496 26.5422 168.472L26.4586 170.14ZM45.1288 168.526C44.6679 168.539 44.3043 168.922 44.3166 169.383C44.3288 169.844 44.7124 170.208 45.1732 170.195L45.1288 168.526ZM63.8535 169.434C64.3139 169.411 64.6681 169.018 64.6445 168.558C64.621 168.098 64.2287 167.744 63.7683 167.767L63.8535 169.434ZM82.4041 166.706C81.9439 166.735 81.5937 167.13 81.6219 167.591C81.65 168.051 82.0458 168.401 82.506 168.373L82.4041 166.706ZM101.148 167.196C101.608 167.166 101.957 166.769 101.928 166.309C101.898 165.849 101.501 165.5 101.041 165.53L101.148 167.196ZM119.687 164.338C119.227 164.366 118.878 164.763 118.907 165.223C118.936 165.683 119.332 166.033 119.792 166.004L119.687 164.338ZM138.419 164.87C138.879 164.843 139.23 164.449 139.204 163.988C139.177 163.528 138.782 163.177 138.322 163.204L138.419 164.87ZM156.974 162.189C156.514 162.212 156.159 162.604 156.182 163.064C156.206 163.525 156.597 163.879 157.058 163.856L156.974 162.189ZM175.703 163.028C176.164 163.011 176.523 162.623 176.506 162.162C176.488 161.702 176.101 161.342 175.64 161.36L175.703 163.028ZM194.311 160.796C193.85 160.805 193.484 161.187 193.494 161.648C193.504 162.109 193.886 162.474 194.347 162.465L194.311 160.796ZM213.004 162.272C213.465 162.273 213.84 161.9 213.841 161.439C213.842 160.978 213.469 160.603 213.008 160.602L213.004 162.272ZM231.711 160.944C231.25 160.927 230.863 161.287 230.846 161.747C230.829 162.208 231.189 162.595 231.649 162.612L231.711 160.944ZM251.979 163.773C252.438 163.804 252.837 163.456 252.868 162.996C252.899 162.536 252.552 162.138 252.092 162.107L251.979 163.773ZM274.159 163.746C273.7 163.709 273.297 164.052 273.26 164.511C273.224 164.971 273.566 165.373 274.026 165.41L274.159 163.746ZM296.073 167.273C296.533 167.314 296.938 166.974 296.978 166.515C297.019 166.056 296.679 165.651 296.22 165.611L296.073 167.273ZM318.266 167.57C317.807 167.53 317.402 167.869 317.362 168.329C317.321 168.788 317.661 169.193 318.12 169.233L318.266 167.57ZM340.206 170.997C340.666 171.028 341.063 170.679 341.094 170.219C341.124 169.76 340.776 169.362 340.316 169.331L340.206 170.997ZM362.328 169.856C361.868 169.883 361.516 170.277 361.542 170.738C361.569 171.198 361.963 171.549 362.424 171.523L362.328 169.856ZM379.518 159.75C379.66 159.312 379.42 158.841 378.982 158.698C378.543 158.556 378.072 158.796 377.93 159.235L379.518 159.75ZM380.754 138.442C380.738 138.903 381.098 139.29 381.558 139.306C382.019 139.323 382.406 138.963 382.423 138.502L380.754 138.442ZM382.343 117.165C382.329 116.704 381.943 116.342 381.483 116.357C381.022 116.371 380.66 116.757 380.675 117.218L382.343 117.165ZM379.693 95.9739C379.719 96.4341 380.113 96.7859 380.574 96.7596C381.034 96.7333 381.386 96.3389 381.359 95.8787L379.693 95.9739ZM380.141 74.9239C380.119 74.4634 379.728 74.1079 379.268 74.1298C378.807 74.1517 378.452 74.5428 378.474 75.0032L380.141 74.9239ZM377.821 54.3383C377.828 54.7993 378.208 55.167 378.669 55.1597C379.13 55.1523 379.497 54.7727 379.49 54.3118L377.821 54.3383ZM379.43 33.6931C379.433 33.2321 379.062 32.8559 378.601 32.8528C378.14 32.8497 377.764 33.2209 377.761 33.6819L379.43 33.6931ZM377.626 13.087C377.651 13.5473 378.046 13.8995 378.506 13.8736C378.966 13.8477 379.318 13.4536 379.292 12.9933L377.626 13.087ZM368.102 0.978784C367.641 0.979649 367.268 1.35406 367.269 1.81505C367.27 2.27604 367.644 2.64904 368.105 2.64818L368.102 0.978784ZM351.144 3.31076C351.605 3.28535 351.957 2.89161 351.932 2.43132C351.906 1.97103 351.513 1.61849 351.052 1.6439L351.144 3.31076ZM334.05 2.62208C333.59 2.64849 333.238 3.043 333.265 3.50323C333.291 3.96346 333.686 4.31515 334.146 4.28873L334.05 2.62208ZM317.142 5.218C317.602 5.19442 317.957 4.80208 317.933 4.34169C317.909 3.88131 317.517 3.52721 317.057 3.55079L317.142 5.218ZM300.078 4.34854C299.617 4.36811 299.26 4.75735 299.279 5.21793C299.299 5.6785 299.688 6.03601 300.149 6.01643L300.078 4.34854ZM283.133 6.65807C283.593 6.64295 283.954 6.25718 283.939 5.79644C283.924 5.3357 283.538 4.97445 283.078 4.98958L283.133 6.65807ZM262.965 5.56344C262.504 5.57566 262.141 5.95914 262.153 6.41997C262.165 6.8808 262.548 7.24447 263.009 7.23225L262.965 5.56344ZM239.828 7.80422C240.289 7.79387 240.654 7.41186 240.643 6.95099C240.633 6.49011 240.251 6.12489 239.79 6.13524L239.828 7.80422ZM216.61 6.58282C216.149 6.58999 215.781 6.96947 215.788 7.43041C215.796 7.89134 216.175 8.25919 216.636 8.25201L216.61 6.58282ZM193.447 8.49072C193.908 8.48887 194.28 8.11366 194.278 7.65267C194.276 7.19168 193.901 6.81948 193.44 6.82134L193.447 8.49072ZM170.272 6.70774C169.811 6.70055 169.432 7.06837 169.425 7.52931C169.418 7.99024 169.785 8.36974 170.246 8.37694L170.272 6.70774ZM147.052 7.65067C147.512 7.67391 147.904 7.31952 147.928 6.85912C147.951 6.39871 147.596 6.00664 147.136 5.98339L147.052 7.65067ZM125.717 4.4869C125.258 4.45186 124.857 4.79608 124.821 5.25574C124.786 5.7154 125.131 6.11643 125.59 6.15147L125.717 4.4869ZM105.82 4.71081C106.28 4.7425 106.678 4.39536 106.71 3.93546C106.742 3.47556 106.394 3.07705 105.935 3.04536L105.82 4.71081ZM86.1262 1.78322C85.666 1.7566 85.2713 2.10809 85.2447 2.56831C85.218 3.02853 85.5695 3.4232 86.0297 3.44983L86.1262 1.78322ZM66.2331 2.45523C66.6937 2.47431 67.0826 2.1164 67.1016 1.6558C67.1207 1.1952 66.7628 0.806348 66.3022 0.787266L66.2331 2.45523ZM46.4486 0.211319C45.9877 0.204957 45.6088 0.573471 45.6025 1.03442C45.5961 1.49537 45.9646 1.87419 46.4256 1.88056L46.4486 0.211319ZM26.6454 2.11974C27.1059 2.09722 27.4609 1.70571 27.4384 1.24527C27.4158 0.78483 27.0243 0.429819 26.5639 0.452332L26.6454 2.11974ZM16.6328 1.30624C13.3647 1.75974 10.6702 2.95217 8.49265 4.81061L9.57637 6.08042C11.489 4.44809 13.8788 3.37378 16.8623 2.95979L16.6328 1.30624ZM1.44272 20.533C0.745423 25.532 0.662733 31.3203 0.976732 37.6734L2.64409 37.591C2.33273 31.2912 2.41896 25.6182 3.09611 20.7636L1.44272 20.533ZM2.47322 54.6811C3.10215 60.1043 3.85947 65.7659 4.65606 71.5721L6.30996 71.3452C5.51362 65.5408 4.7583 59.8936 4.13151 54.4888L2.47322 54.6811ZM6.95582 88.4258C7.32517 91.2253 7.68494 94.0383 8.02622 96.856L9.68351 96.6552C9.34134 93.8303 8.9808 91.0112 8.61087 88.2074L6.95582 88.4258ZM8.02622 96.856C8.43889 100.263 8.69528 103.523 8.82675 106.642L10.4947 106.571C10.3614 103.41 10.1016 100.107 9.68351 96.6552L8.02622 96.856ZM8.10782 126.205C7.25008 133.816 5.90975 140.211 4.95962 145.63L6.60394 145.918C7.54339 140.56 8.90133 134.071 9.76672 126.392L8.10782 126.205ZM7.72833 165.048C9.82952 166.846 12.8709 168.152 17.0816 169.082L17.4413 167.451C13.36 166.551 10.6201 165.325 8.81355 163.78L7.72833 165.048ZM17.0816 169.082C19.4729 169.609 22.6419 169.949 26.4586 170.14L26.5422 168.472C22.7609 168.283 19.6989 167.95 17.4413 167.451L17.0816 169.082ZM45.1732 170.195C50.8549 170.044 57.1229 169.779 63.8535 169.434L63.7683 167.767C57.0458 168.111 50.7923 168.376 45.1288 168.526L45.1732 170.195ZM82.506 168.373C88.5089 168.006 94.7446 167.607 101.148 167.196L101.041 165.53C94.6376 165.941 88.4042 166.339 82.4041 166.706L82.506 168.373ZM119.792 166.004C125.926 165.617 132.152 165.235 138.419 164.87L138.322 163.204C132.051 163.568 125.823 163.951 119.687 164.338L119.792 166.004ZM157.058 163.856C163.297 163.544 169.528 163.264 175.703 163.028L175.64 161.36C169.457 161.596 163.219 161.877 156.974 162.189L157.058 163.856ZM194.347 162.465C200.703 162.328 206.941 162.259 213.004 162.272L213.008 160.602C206.93 160.589 200.678 160.659 194.311 160.796L194.347 162.465ZM231.649 162.612C234.82 162.729 237.915 162.877 240.925 163.06L241.027 161.394C238.002 161.21 234.894 161.061 231.711 160.944L231.649 162.612ZM240.925 163.06C244.675 163.289 248.36 163.527 251.979 163.773L252.092 162.107C248.47 161.861 244.781 161.623 241.027 161.394L240.925 163.06ZM274.026 165.41C281.764 166.03 289.121 166.661 296.073 167.273L296.22 165.611C289.265 164.998 281.903 164.366 274.159 163.746L274.026 165.41ZM318.12 169.233C326.293 169.95 333.676 170.565 340.206 170.997L340.316 169.331C333.805 168.901 326.437 168.287 318.266 167.57L318.12 169.233ZM362.424 171.523C367.489 171.232 371.294 170.476 373.506 168.954L372.56 167.579C370.768 168.811 367.393 169.565 362.328 169.856L362.424 171.523ZM373.506 168.954C376.187 167.11 378.132 164.02 379.518 159.75L377.93 159.235C376.605 163.318 374.822 166.022 372.56 167.579L373.506 168.954ZM382.423 138.502C382.644 132.345 382.598 125.246 382.343 117.165L380.675 117.218C380.929 125.278 380.974 132.335 380.754 138.442L382.423 138.502ZM381.359 95.8787C381.164 92.4587 380.948 88.9107 380.714 85.2328L379.048 85.3387C379.282 89.0137 379.497 92.5581 379.693 95.9739L381.359 95.8787ZM380.714 85.2328C380.488 81.6688 380.299 78.2335 380.141 74.9239L378.474 75.0032C378.631 78.3214 378.821 81.7656 379.048 85.3387L380.714 85.2328ZM379.49 54.3118C379.366 46.5057 379.39 39.6559 379.43 33.6931L377.761 33.6819C377.721 39.6489 377.696 46.5134 377.821 54.3383L379.49 54.3118ZM379.292 12.9933C379.026 8.26132 378.433 4.7782 377.054 2.59492L375.643 3.48635C376.765 5.26292 377.359 8.33646 377.626 13.087L379.292 12.9933ZM377.054 2.59492C376.77 2.14399 376.287 1.87196 375.811 1.69117C375.314 1.50274 374.694 1.36543 373.977 1.26303C372.54 1.05779 370.571 0.974154 368.102 0.978784L368.105 2.64818C370.554 2.64358 372.426 2.72786 373.741 2.91566C374.4 3.00979 374.885 3.12529 375.218 3.25196C375.572 3.38626 375.646 3.49161 375.643 3.48635L377.054 2.59492ZM351.052 1.6439C346.097 1.91748 340.423 2.25633 334.05 2.62208L334.146 4.28873C340.525 3.92264 346.191 3.58423 351.144 3.31076L351.052 1.6439ZM317.057 3.55079C311.744 3.82294 306.084 4.09329 300.078 4.34854L300.149 6.01643C306.16 5.76095 311.826 5.49036 317.142 5.218L317.057 3.55079ZM283.078 4.98958C280.297 5.08086 277.456 5.16737 274.554 5.24811L274.601 6.91686C277.505 6.83604 280.349 6.74945 283.133 6.65807L283.078 4.98958ZM274.554 5.24811C270.613 5.35781 266.751 5.46305 262.965 5.56344L263.009 7.23225C266.796 7.13184 270.659 7.02657 274.601 6.91686L274.554 5.24811ZM239.79 6.13524C231.672 6.31756 223.954 6.46849 216.61 6.58282L216.636 8.25201C223.984 8.13762 231.707 7.98661 239.828 7.80422L239.79 6.13524ZM193.44 6.82134C185.181 6.85461 177.475 6.82023 170.272 6.70774L170.246 8.37694C177.462 8.48963 185.179 8.52403 193.447 8.49072L193.44 6.82134ZM147.136 5.98339C143.099 5.7796 139.258 5.53634 135.597 5.2506L135.467 6.91494C139.145 7.20199 143.002 7.4462 147.052 7.65067L147.136 5.98339ZM135.597 5.2506C132.596 5.01635 129.28 4.75847 125.717 4.4869L125.59 6.15147C129.151 6.42292 132.466 6.68071 135.467 6.91494L135.597 5.2506ZM105.935 3.04536C99.5603 2.60621 92.879 2.17396 86.1262 1.78322L86.0297 3.44983C92.7753 3.84014 99.4503 4.27198 105.82 4.71081L105.935 3.04536ZM66.3022 0.787266C59.4319 0.502637 52.728 0.297987 46.4486 0.211319L46.4256 1.88056C52.6859 1.96696 59.3739 2.17106 66.2331 2.45523L66.3022 0.787266ZM26.5639 0.452332C22.8056 0.636094 19.4557 0.914525 16.6328 1.30624L16.8623 2.95979C19.6195 2.5772 22.9164 2.30207 26.6454 2.11974L26.5639 0.452332Z" fill="white"/>
</svg>
