<svg width="350" height="143" viewBox="0 0 350 143" fill="none" xmlns="http://www.w3.org/2000/svg">
<path d="M14.8651 1.80301C36.9818 -0.98187 95.6163 3.09027 123.887 5.09258C152.158 7.09489 192.059 6.59364 251.505 5.09235C310.952 3.59105 342.922 -0.300692 344.912 2.55893C349.12 8.60458 345.221 29.1857 348.155 71.0571C351.088 112.929 350.937 134.508 341.869 140.168C332.801 145.828 288.23 138.868 220.665 135.138C153.101 131.408 39.1173 144.93 15.3367 140.168C-8.44397 135.406 12.7744 119.218 7.62102 80.6098C2.46763 42.0016 -7.25166 4.58789 14.8651 1.80301Z" fill="url(#paint0_linear_883_10778)"/>
<defs>
<linearGradient id="paint0_linear_883_10778" x1="175.424" y1="-31.451" x2="175.424" y2="180.399" gradientUnits="userSpaceOnUse">
<stop stop-color="#2D244F"/>
<stop offset="1" stop-color="#1B315B"/>
</linearGradient>
</defs>
</svg>
