<svg width="1921" height="483" viewBox="0 0 1921 483" fill="none" xmlns="http://www.w3.org/2000/svg">
<g clip-path="url(#clip0_101_1494)">
<g filter="url(#filter0_df_101_1494)">
<path d="M447.706 111.073C528.905 99.1126 529.874 138.93 580.737 134.414C631.599 129.897 655.216 148.191 679.693 149.448C704.171 150.705 714.286 157.143 773.436 140.837C832.586 124.531 943.103 208.012 943.103 208.012L153.926 327.633L-105.608 309.146L-133.572 126.11C-133.572 126.11 -126.928 69.0647 -87.9952 70.8377C-49.0628 72.6107 -24.063 90.3882 -8.42271 93.6146C7.21761 96.8409 79.2805 92.0567 142.721 103.12C206.162 114.184 223.941 100.578 275.722 88.5672C327.504 76.5563 366.507 123.034 447.706 111.073Z" fill="url(#paint0_linear_101_1494)" shape-rendering="crispEdges"/>
</g>
<g opacity="0.8" filter="url(#filter1_dd_101_1494)">
<ellipse cx="162.734" cy="28.2215" rx="162.734" ry="28.2215" transform="matrix(-1 0 0 1 927.479 210.304)" fill="#FEFFFB"/>
<ellipse cx="58.9267" cy="51.6782" rx="58.9267" ry="51.6782" transform="matrix(-1 0 0 1 946.662 151.667)" fill="#FEFFFB"/>
<ellipse cx="72.9732" cy="74.7685" rx="72.9732" ry="74.7685" transform="matrix(-1 0 0 1 880.201 76.896)" fill="#FEFFFB"/>
<ellipse cx="72.9732" cy="74.7685" rx="72.9732" ry="74.7685" transform="matrix(-1 0 0 1 601.9 141.771)" fill="#FEFFFB"/>
<ellipse cx="57.5563" cy="59.0085" rx="57.5563" ry="59.0085" transform="matrix(-1 0 0 1 692.455 135.541)" fill="#FEFFFB"/>
<ellipse cx="50.0192" cy="51.6782" rx="50.0192" ry="51.6782" transform="matrix(-1 0 0 1 775.361 126.011)" fill="#FEFFFB"/>
<ellipse cx="18.1576" cy="15.76" rx="18.1576" ry="15.76" transform="matrix(-1 0 0 1 638.322 126.011)" fill="#FEFFFB"/>
<ellipse cx="26.7226" cy="25.2894" rx="26.7226" ry="25.2894" transform="matrix(-1 0 0 1 914.459 115.009)" fill="#FEFFFB"/>
<ellipse cx="26.7226" cy="25.2894" rx="26.7226" ry="25.2894" transform="matrix(-1 0 0 1 475.396 195.841)" fill="#FEFFFB"/>
</g>
<g opacity="0.8" filter="url(#filter2_dd_101_1494)">
<ellipse cx="162.734" cy="28.2215" rx="162.734" ry="28.2215" transform="matrix(-1 0 0 1 134.939 229.376)" fill="#FEFFFB"/>
<ellipse cx="58.9267" cy="51.6782" rx="58.9267" ry="51.6782" transform="matrix(-1 0 0 1 154.127 170.74)" fill="#FEFFFB"/>
<ellipse cx="72.9732" cy="74.7685" rx="72.9732" ry="74.7685" transform="matrix(-1 0 0 1 87.666 95.9683)" fill="#FEFFFB"/>
<ellipse cx="26.7226" cy="25.2894" rx="26.7226" ry="25.2894" transform="matrix(-1 0 0 1 121.924 134.082)" fill="#FEFFFB"/>
</g>
<g filter="url(#filter3_df_101_1494)">
<path d="M547.417 236.231C628.554 224.275 678.593 254.122 729.417 249.609C780.24 245.095 977.134 188.362 1086.92 206.108C1205.42 225.263 1186.92 239.227 1388.42 263.476C1589.92 287.726 2245 93.8356 2153.42 425.609C2126.47 523.209 2166.53 505.873 2042.92 511.608C1853.66 520.389 58.7103 670.623 -151.556 655.306C-473.898 631.824 -204.056 398.797 -204.056 398.797L-165.554 282.595C-165.554 282.595 -54.8363 202.157 -15.933 203.933C22.9702 205.708 47.9525 223.487 63.5812 226.715C79.21 229.942 151.219 225.163 214.613 236.231C278.006 247.299 295.771 233.694 347.513 221.686C399.254 209.679 466.279 248.186 547.417 236.231Z" fill="url(#paint1_linear_101_1494)" shape-rendering="crispEdges"/>
</g>
<g filter="url(#filter4_d_101_1494)">
<circle cx="1828.3" cy="4.60165" r="3.97714" fill="white"/>
</g>
<g filter="url(#filter5_d_101_1494)">
<circle cx="1810" cy="96.0752" r="2.38628" fill="white"/>
</g>
<g filter="url(#filter6_d_101_1494)">
<circle cx="649.916" cy="73.1245" r="3.5" fill="white"/>
</g>
<g filter="url(#filter7_df_101_1494)">
<circle cx="1839.43" cy="51.5314" r="7.15885" fill="white"/>
</g>
<g filter="url(#filter8_df_101_1494)">
<circle cx="609.575" cy="91.7834" r="7.15885" fill="white"/>
</g>
<g filter="url(#filter9_df_101_1494)">
<circle cx="996.347" cy="278.556" r="11.9314" fill="white"/>
</g>
</g>
<defs>
<filter id="filter0_df_101_1494" x="-142.572" y="45.7974" width="1115.67" height="290.835" filterUnits="userSpaceOnUse" color-interpolation-filters="sRGB">
<feFlood flood-opacity="0" result="BackgroundImageFix"/>
<feColorMatrix in="SourceAlpha" type="matrix" values="0 0 0 0 0 0 0 0 0 0 0 0 0 0 0 0 0 0 127 0" result="hardAlpha"/>
<feOffset dx="15" dy="-10"/>
<feGaussianBlur stdDeviation="7.5"/>
<feComposite in2="hardAlpha" operator="out"/>
<feColorMatrix type="matrix" values="0 0 0 0 1 0 0 0 0 0.949319 0 0 0 0 0.933314 0 0 0 0.69 0"/>
<feBlend mode="color-burn" in2="BackgroundImageFix" result="effect1_dropShadow_101_1494"/>
<feBlend mode="normal" in="SourceGraphic" in2="effect1_dropShadow_101_1494" result="shape"/>
<feGaussianBlur stdDeviation="4.5" result="effect2_foregroundBlur_101_1494"/>
</filter>
<filter id="filter1_dd_101_1494" x="399.951" y="57.896" width="571.711" height="258.412" filterUnits="userSpaceOnUse" color-interpolation-filters="sRGB">
<feFlood flood-opacity="0" result="BackgroundImageFix"/>
<feColorMatrix in="SourceAlpha" type="matrix" values="0 0 0 0 0 0 0 0 0 0 0 0 0 0 0 0 0 0 127 0" result="hardAlpha"/>
<feOffset dx="5" dy="5"/>
<feGaussianBlur stdDeviation="10"/>
<feComposite in2="hardAlpha" operator="out"/>
<feColorMatrix type="matrix" values="0 0 0 0 1 0 0 0 0 0.885 0 0 0 0 0.7125 0 0 0 0.8 0"/>
<feBlend mode="normal" in2="BackgroundImageFix" result="effect1_dropShadow_101_1494"/>
<feColorMatrix in="SourceAlpha" type="matrix" values="0 0 0 0 0 0 0 0 0 0 0 0 0 0 0 0 0 0 127 0" result="hardAlpha"/>
<feOffset dx="-6" dy="-3"/>
<feGaussianBlur stdDeviation="8"/>
<feComposite in2="hardAlpha" operator="out"/>
<feColorMatrix type="matrix" values="0 0 0 0 1 0 0 0 0 1 0 0 0 0 1 0 0 0 0.57 0"/>
<feBlend mode="normal" in2="effect1_dropShadow_101_1494" result="effect2_dropShadow_101_1494"/>
<feBlend mode="normal" in="SourceGraphic" in2="effect2_dropShadow_101_1494" result="shape"/>
</filter>
<filter id="filter2_dd_101_1494" x="-392.584" y="76.9683" width="571.711" height="258.412" filterUnits="userSpaceOnUse" color-interpolation-filters="sRGB">
<feFlood flood-opacity="0" result="BackgroundImageFix"/>
<feColorMatrix in="SourceAlpha" type="matrix" values="0 0 0 0 0 0 0 0 0 0 0 0 0 0 0 0 0 0 127 0" result="hardAlpha"/>
<feOffset dx="5" dy="5"/>
<feGaussianBlur stdDeviation="10"/>
<feComposite in2="hardAlpha" operator="out"/>
<feColorMatrix type="matrix" values="0 0 0 0 1 0 0 0 0 0.885 0 0 0 0 0.7125 0 0 0 0.8 0"/>
<feBlend mode="normal" in2="BackgroundImageFix" result="effect1_dropShadow_101_1494"/>
<feColorMatrix in="SourceAlpha" type="matrix" values="0 0 0 0 0 0 0 0 0 0 0 0 0 0 0 0 0 0 127 0" result="hardAlpha"/>
<feOffset dx="-6" dy="-3"/>
<feGaussianBlur stdDeviation="8"/>
<feComposite in2="hardAlpha" operator="out"/>
<feColorMatrix type="matrix" values="0 0 0 0 1 0 0 0 0 1 0 0 0 0 1 0 0 0 0.57 0"/>
<feBlend mode="normal" in2="effect1_dropShadow_101_1494" result="effect2_dropShadow_101_1494"/>
<feBlend mode="normal" in="SourceGraphic" in2="effect2_dropShadow_101_1494" result="shape"/>
</filter>
<filter id="filter3_df_101_1494" x="-318.822" y="177.681" width="2510.96" height="487.72" filterUnits="userSpaceOnUse" color-interpolation-filters="sRGB">
<feFlood flood-opacity="0" result="BackgroundImageFix"/>
<feColorMatrix in="SourceAlpha" type="matrix" values="0 0 0 0 0 0 0 0 0 0 0 0 0 0 0 0 0 0 127 0" result="hardAlpha"/>
<feOffset dx="15" dy="-10"/>
<feGaussianBlur stdDeviation="7.5"/>
<feComposite in2="hardAlpha" operator="out"/>
<feColorMatrix type="matrix" values="0 0 0 0 1 0 0 0 0 0.949319 0 0 0 0 0.933314 0 0 0 0.69 0"/>
<feBlend mode="color-burn" in2="BackgroundImageFix" result="effect1_dropShadow_101_1494"/>
<feBlend mode="normal" in="SourceGraphic" in2="effect1_dropShadow_101_1494" result="shape"/>
<feGaussianBlur stdDeviation="4.5" result="effect2_foregroundBlur_101_1494"/>
</filter>
<filter id="filter4_d_101_1494" x="1805.23" y="-18.4658" width="55.6808" height="55.6798" filterUnits="userSpaceOnUse" color-interpolation-filters="sRGB">
<feFlood flood-opacity="0" result="BackgroundImageFix"/>
<feColorMatrix in="SourceAlpha" type="matrix" values="0 0 0 0 0 0 0 0 0 0 0 0 0 0 0 0 0 0 127 0" result="hardAlpha"/>
<feOffset dx="4.77257" dy="4.77257"/>
<feGaussianBlur stdDeviation="11.9314"/>
<feComposite in2="hardAlpha" operator="out"/>
<feColorMatrix type="matrix" values="0 0 0 0 1 0 0 0 0 0.938167 0 0 0 0 0.779167 0 0 0 1 0"/>
<feBlend mode="normal" in2="BackgroundImageFix" result="effect1_dropShadow_101_1494"/>
<feBlend mode="normal" in="SourceGraphic" in2="effect1_dropShadow_101_1494" result="shape"/>
</filter>
<filter id="filter5_d_101_1494" x="1788.52" y="74.5987" width="52.4991" height="52.4982" filterUnits="userSpaceOnUse" color-interpolation-filters="sRGB">
<feFlood flood-opacity="0" result="BackgroundImageFix"/>
<feColorMatrix in="SourceAlpha" type="matrix" values="0 0 0 0 0 0 0 0 0 0 0 0 0 0 0 0 0 0 127 0" result="hardAlpha"/>
<feOffset dx="4.77257" dy="4.77257"/>
<feGaussianBlur stdDeviation="11.9314"/>
<feComposite in2="hardAlpha" operator="out"/>
<feColorMatrix type="matrix" values="0 0 0 0 1 0 0 0 0 0.938167 0 0 0 0 0.779167 0 0 0 1 0"/>
<feBlend mode="normal" in2="BackgroundImageFix" result="effect1_dropShadow_101_1494"/>
<feBlend mode="normal" in="SourceGraphic" in2="effect1_dropShadow_101_1494" result="shape"/>
</filter>
<filter id="filter6_d_101_1494" x="627.326" y="50.5342" width="54.7257" height="54.7257" filterUnits="userSpaceOnUse" color-interpolation-filters="sRGB">
<feFlood flood-opacity="0" result="BackgroundImageFix"/>
<feColorMatrix in="SourceAlpha" type="matrix" values="0 0 0 0 0 0 0 0 0 0 0 0 0 0 0 0 0 0 127 0" result="hardAlpha"/>
<feOffset dx="4.77257" dy="4.77257"/>
<feGaussianBlur stdDeviation="11.9314"/>
<feComposite in2="hardAlpha" operator="out"/>
<feColorMatrix type="matrix" values="0 0 0 0 1 0 0 0 0 0.938167 0 0 0 0 0.779167 0 0 0 1 0"/>
<feBlend mode="normal" in2="BackgroundImageFix" result="effect1_dropShadow_101_1494"/>
<feBlend mode="normal" in="SourceGraphic" in2="effect1_dropShadow_101_1494" result="shape"/>
</filter>
<filter id="filter7_df_101_1494" x="1808.41" y="20.5097" width="62.0441" height="62.0436" filterUnits="userSpaceOnUse" color-interpolation-filters="sRGB">
<feFlood flood-opacity="0" result="BackgroundImageFix"/>
<feColorMatrix in="SourceAlpha" type="matrix" values="0 0 0 0 0 0 0 0 0 0 0 0 0 0 0 0 0 0 127 0" result="hardAlpha"/>
<feOffset/>
<feGaussianBlur stdDeviation="11.9314"/>
<feComposite in2="hardAlpha" operator="out"/>
<feColorMatrix type="matrix" values="0 0 0 0 1 0 0 0 0 0.938167 0 0 0 0 0.779167 0 0 0 1 0"/>
<feBlend mode="normal" in2="BackgroundImageFix" result="effect1_dropShadow_101_1494"/>
<feBlend mode="normal" in="SourceGraphic" in2="effect1_dropShadow_101_1494" result="shape"/>
<feGaussianBlur stdDeviation="3.97714" result="effect2_foregroundBlur_101_1494"/>
</filter>
<filter id="filter8_df_101_1494" x="578.553" y="60.7617" width="62.0431" height="62.0436" filterUnits="userSpaceOnUse" color-interpolation-filters="sRGB">
<feFlood flood-opacity="0" result="BackgroundImageFix"/>
<feColorMatrix in="SourceAlpha" type="matrix" values="0 0 0 0 0 0 0 0 0 0 0 0 0 0 0 0 0 0 127 0" result="hardAlpha"/>
<feOffset/>
<feGaussianBlur stdDeviation="11.9314"/>
<feComposite in2="hardAlpha" operator="out"/>
<feColorMatrix type="matrix" values="0 0 0 0 1 0 0 0 0 0.938167 0 0 0 0 0.779167 0 0 0 1 0"/>
<feBlend mode="normal" in2="BackgroundImageFix" result="effect1_dropShadow_101_1494"/>
<feBlend mode="normal" in="SourceGraphic" in2="effect1_dropShadow_101_1494" result="shape"/>
<feGaussianBlur stdDeviation="3.97714" result="effect2_foregroundBlur_101_1494"/>
</filter>
<filter id="filter9_df_101_1494" x="960.553" y="242.762" width="71.589" height="71.5885" filterUnits="userSpaceOnUse" color-interpolation-filters="sRGB">
<feFlood flood-opacity="0" result="BackgroundImageFix"/>
<feColorMatrix in="SourceAlpha" type="matrix" values="0 0 0 0 0 0 0 0 0 0 0 0 0 0 0 0 0 0 127 0" result="hardAlpha"/>
<feOffset/>
<feGaussianBlur stdDeviation="11.9314"/>
<feComposite in2="hardAlpha" operator="out"/>
<feColorMatrix type="matrix" values="0 0 0 0 1 0 0 0 0 0.938167 0 0 0 0 0.779167 0 0 0 1 0"/>
<feBlend mode="normal" in2="BackgroundImageFix" result="effect1_dropShadow_101_1494"/>
<feBlend mode="normal" in="SourceGraphic" in2="effect1_dropShadow_101_1494" result="shape"/>
<feGaussianBlur stdDeviation="3.97714" result="effect2_foregroundBlur_101_1494"/>
</filter>
<linearGradient id="paint0_linear_101_1494" x1="356.293" y1="-56.0317" x2="327.118" y2="281.361" gradientUnits="userSpaceOnUse">
<stop offset="0.0307237" stop-color="#FFEEEE"/>
<stop offset="0.246017" stop-color="#FFCFBB"/>
<stop offset="0.845259" stop-color="#867EBB"/>
<stop offset="1" stop-color="#867EBB" stop-opacity="0"/>
</linearGradient>
<linearGradient id="paint1_linear_101_1494" x1="422.444" y1="17.3061" x2="445.451" y2="511.363" gradientUnits="userSpaceOnUse">
<stop stop-color="#FFCFBB"/>
<stop offset="0.552083" stop-color="#8587C8"/>
<stop offset="1" stop-color="#8587C8" stop-opacity="0"/>
</linearGradient>
<clipPath id="clip0_101_1494">
<rect width="1920" height="482" fill="white" transform="translate(0.416016 0.625)"/>
</clipPath>
</defs>
</svg>
