<svg width="1920" height="483" viewBox="0 0 1920 483" fill="none" xmlns="http://www.w3.org/2000/svg">
<g clip-path="url(#clip0_0_2525)">
<g filter="url(#filter0_df_0_2525)">
<path d="M447.29 111.087C528.489 99.1263 529.458 138.944 580.321 134.427C631.183 129.911 654.8 148.205 679.277 149.462C703.755 150.719 713.87 157.156 773.02 140.85C832.17 124.545 942.687 208.026 942.687 208.026L153.51 327.647L-106.024 309.159L-133.988 126.124C-133.988 126.124 -127.344 69.0783 -88.4112 70.8514C-49.4788 72.6244 -24.479 90.4019 -8.83873 93.6283C6.80159 96.8546 78.8645 92.0704 142.305 103.134C205.746 114.198 223.525 100.592 275.306 88.5809C327.088 76.57 366.091 123.048 447.29 111.087Z" fill="url(#paint0_linear_0_2525)" shape-rendering="crispEdges"/>
</g>
<g opacity="0.8" filter="url(#filter1_dd_0_2525)">
<ellipse cx="162.734" cy="28.2215" rx="162.734" ry="28.2215" transform="matrix(-1 0 0 1 927.062 210.318)" fill="#FEFFFB"/>
<ellipse cx="58.9267" cy="51.6782" rx="58.9267" ry="51.6782" transform="matrix(-1 0 0 1 946.246 151.681)" fill="#FEFFFB"/>
<ellipse cx="72.9732" cy="74.7685" rx="72.9732" ry="74.7685" transform="matrix(-1 0 0 1 879.785 76.9097)" fill="#FEFFFB"/>
<ellipse cx="72.9732" cy="74.7685" rx="72.9732" ry="74.7685" transform="matrix(-1 0 0 1 601.484 141.785)" fill="#FEFFFB"/>
<ellipse cx="57.5563" cy="59.0085" rx="57.5563" ry="59.0085" transform="matrix(-1 0 0 1 692.039 135.554)" fill="#FEFFFB"/>
<ellipse cx="50.0192" cy="51.6782" rx="50.0192" ry="51.6782" transform="matrix(-1 0 0 1 774.945 126.025)" fill="#FEFFFB"/>
<ellipse cx="18.1576" cy="15.76" rx="18.1576" ry="15.76" transform="matrix(-1 0 0 1 637.906 126.025)" fill="#FEFFFB"/>
<ellipse cx="26.7226" cy="25.2894" rx="26.7226" ry="25.2894" transform="matrix(-1 0 0 1 914.043 115.023)" fill="#FEFFFB"/>
<ellipse cx="26.7226" cy="25.2894" rx="26.7226" ry="25.2894" transform="matrix(-1 0 0 1 474.98 195.855)" fill="#FEFFFB"/>
</g>
<g opacity="0.8" filter="url(#filter2_dd_0_2525)">
<ellipse cx="162.734" cy="28.2215" rx="162.734" ry="28.2215" transform="matrix(-1 0 0 1 134.523 229.39)" fill="#FEFFFB"/>
<ellipse cx="58.9267" cy="51.6782" rx="58.9267" ry="51.6782" transform="matrix(-1 0 0 1 153.711 170.753)" fill="#FEFFFB"/>
<ellipse cx="72.9732" cy="74.7685" rx="72.9732" ry="74.7685" transform="matrix(-1 0 0 1 87.25 95.9819)" fill="#FEFFFB"/>
<ellipse cx="26.7226" cy="25.2894" rx="26.7226" ry="25.2894" transform="matrix(-1 0 0 1 121.508 134.095)" fill="#FEFFFB"/>
</g>
<g filter="url(#filter3_df_0_2525)">
<path d="M547.001 236.244C628.138 224.289 678.177 254.135 729.001 249.622C779.824 245.109 976.718 188.376 1086.5 206.122C1205 225.276 1186.5 239.24 1388 263.49C1589.5 287.74 2244.59 93.8493 2153 425.622C2126.06 523.223 2166.11 505.886 2042.5 511.622C1853.25 520.403 58.2943 670.637 -151.972 655.32C-474.314 631.838 -204.472 398.81 -204.472 398.81L-165.97 282.608C-165.97 282.608 -55.2523 202.171 -16.3491 203.946C22.5542 205.722 47.5365 223.501 63.1652 226.728C78.7939 229.956 150.803 225.176 214.197 236.244C277.59 247.312 295.355 233.707 347.097 221.7C398.838 209.693 465.863 248.2 547.001 236.244Z" fill="url(#paint1_linear_0_2525)" shape-rendering="crispEdges"/>
</g>
<path fill-rule="evenodd" clip-rule="evenodd" d="M499.966 79.8658L500.276 76.9457C500.214 77.8997 500.115 78.8837 499.966 79.8658ZM422.363 149.644C422.363 149.644 433.055 144.579 443.55 138.921C435.729 143.959 425.373 148.45 422.363 149.644Z" fill="url(#paint2_linear_0_2525)"/>
<path d="M496.282 88.5758C492.782 91.9577 488.56 92.4515 483.831 91.7777C481.334 91.4219 478.799 89.3657 477.4 87.434C477.308 87.3069 477.089 86.8919 476.82 86.3811C476.076 84.9713 474.946 82.8316 475.039 84.0005C475.733 92.7637 473.188 99.8547 469.266 108.202C464.667 117.987 457.316 127.51 449.055 134.847C447.521 136.21 445.625 137.585 443.55 138.921C450.757 135.036 457.87 130.871 461.365 127.874C466.248 123.686 475.118 116.012 478.896 112.559C482.673 109.107 486.736 104.717 490.192 101.026C498.213 92.4633 499.577 83.0365 499.966 79.8658C499.457 83.2212 498.375 86.5529 496.282 88.5758Z" fill="url(#paint3_linear_0_2525)"/>
<path fill-rule="evenodd" clip-rule="evenodd" d="M378.795 127.024C382.355 119.806 385.614 113.197 387.364 109.307C387.777 108.388 388.196 107.42 388.609 106.464C389.909 103.46 391.159 100.571 392.039 99.6658C392.704 98.9813 394.209 98.7612 396.075 98.4884C397.462 98.2857 399.047 98.0539 400.634 97.581C404.358 96.4715 412.63 93.7363 418.518 91.7573C419.2 91.5284 419.91 91.2926 420.647 91.0485C427.825 88.6679 437.413 85.4885 445.323 80.0482C452.113 75.3781 457.67 70.7994 464.386 65.2648C466.296 63.691 468.299 62.04 470.452 60.2875C475.075 56.524 479.429 52.0454 482.835 48.5423C486.592 44.6777 489.195 42.0003 489.731 42.7797C490.753 44.2654 493.503 50.8103 495.261 55.4608C495.513 56.1266 495.781 56.8273 496.058 57.5499C497.715 61.8741 499.673 66.9813 500.104 70.0808C500.307 71.5367 500.461 74.1075 500.278 76.9452C500.216 77.8992 500.117 78.8832 499.968 79.8653C499.459 83.2207 498.377 86.5524 496.284 88.5753C492.784 91.9572 488.562 92.451 483.833 91.7772C481.336 91.4214 478.801 89.3652 477.402 87.4335C477.31 87.3064 477.091 86.8914 476.822 86.3807C476.078 84.9708 474.948 82.8311 475.041 84C475.735 92.7632 473.19 99.8542 469.267 108.201C464.669 117.987 457.318 127.51 449.057 134.847C447.523 136.209 445.627 137.584 443.552 138.921C435.73 143.959 425.375 148.449 422.365 149.644C421.86 149.844 421.323 150.063 420.75 150.297C417 151.829 411.691 153.998 403.522 155.678C394.739 157.483 386.384 159.152 377.572 160.582C376.593 160.742 375.356 161.033 374.024 161.347C369.348 162.449 363.501 163.827 363.495 160.717C363.491 158.062 371.735 141.343 378.795 127.024ZM380.076 135.816C379.805 134.332 380.212 132.801 381.019 132.468C381.827 132.135 382.927 132.462 383.672 133.579C384.437 134.727 384.265 135.604 383.199 136.483C382.33 137.2 380.337 137.249 380.076 135.816ZM385.941 124.227C385.865 124.303 385.757 124.389 385.633 124.488C385.093 124.92 384.253 125.592 384.464 126.703C384.78 128.361 386.512 128.957 387.755 127.77C388.649 126.916 388.756 124.515 387.645 123.753C387.098 123.377 386.347 123.819 385.941 124.227ZM388.319 118.275C388.184 117.704 388.442 116.087 389.222 115.527C390.001 114.967 391.485 114.23 391.866 115.341C392.117 116.076 391.689 118.111 391.217 118.709C390.503 119.613 388.613 119.523 388.319 118.275Z" fill="url(#paint4_linear_0_2525)"/>
<path d="M297.01 109.381C295.467 108.796 282.342 106.96 279.191 104.742C276.148 102.6 273.422 99.5893 271.548 96.1673C274.602 101.741 275.789 103.818 278.502 106.63C281.151 109.377 284.595 112.817 287.875 114.785C291.173 116.763 296.486 120.501 301.091 122.399C305.696 124.297 304.458 124.162 315.456 127.286C316.432 127.564 320.216 128.423 320.069 127.954C319.667 127.524 313.25 125.412 311.87 124.298C310.491 123.185 309.256 122.415 307.02 120.54C304.785 118.664 301.765 116.129 300.939 115.1C298.941 112.611 298.552 109.967 297.01 109.381Z" fill="url(#paint5_linear_0_2525)"/>
<path fill-rule="evenodd" clip-rule="evenodd" d="M287.124 45.3763C284.657 43.2419 282.126 40.8982 281.846 40.8006C281.567 40.7029 279.543 44.9093 278.66 50.8598C277.778 56.8103 276.995 60.5752 274.387 66.6067C272.018 72.086 269.91 78.5488 269.089 84.4432C268.53 88.4511 269.561 92.5404 271.548 96.1673C273.422 99.5893 276.148 102.6 279.191 104.742C282.342 106.96 295.467 108.796 297.01 109.381C298.552 109.967 298.941 112.611 300.939 115.1C301.765 116.129 304.785 118.664 307.02 120.54C309.256 122.415 310.491 123.185 311.87 124.298C313.25 125.412 319.667 127.524 320.069 127.954C319.162 125.061 316.557 119.615 315.365 116.794C312.861 110.866 312.16 106.097 311.451 99.6708C310.403 90.1681 314.438 84.5753 316.184 76.7783C317.931 68.9814 319.09 65.5184 317.657 64.3026C316.224 63.0868 308.164 57.554 304.433 55.2165C297.111 50.6299 293.692 51.0574 287.124 45.3763ZM293.296 54.3589C294.162 53.7338 295.447 54.3485 295.452 54.9578C295.457 55.5671 295.194 55.7971 294.943 56.2559C294.462 57.136 293.746 56.9601 292.883 56.6241C291.602 56.1263 292.538 54.9064 293.296 54.3589ZM299.893 57.2868C300.095 57.2432 300.665 57.3476 301.093 57.7459C301.521 58.1443 302.116 60.2286 300.304 60.1346C299.232 60.0791 298.315 59.8001 298.385 58.595C298.426 57.9113 299.288 57.4177 299.893 57.2868ZM303.788 62.4989C303.762 61.9317 304.943 61.0668 305.958 61.4658C306.973 61.8648 307.17 62.2036 307.316 62.9767C307.423 63.5413 306.193 64.0808 305.776 64.0846C304.82 64.0933 303.836 63.5675 303.788 62.4989Z" fill="url(#paint6_linear_0_2525)"/>
<path d="M201.926 93.8923C203.597 95.3484 219.907 104.068 222.641 108.233C225.282 112.257 226.922 117.133 227.151 122.063C226.777 114.033 226.572 111.016 224.817 106.377C223.104 101.846 220.791 96.1084 217.718 92.1694C214.628 88.2094 210.016 81.1874 205.127 76.6664C200.238 72.1455 201.801 72.923 189.189 63.7673C188.07 62.9547 183.586 60.0558 183.471 60.6766C183.723 61.3802 190.889 67.0591 191.992 69.0489C193.095 71.0386 194.232 72.5549 195.972 75.8625C197.711 79.1701 200.059 83.6403 200.478 85.2546C201.492 89.1581 200.255 92.4362 201.926 93.8923Z" fill="url(#paint7_linear_0_2525)"/>
<path fill-rule="evenodd" clip-rule="evenodd" d="M172.957 169.607C174.833 173.333 180.402 177.302 180.711 177.556C181.019 177.81 183.23 171.731 188.364 165.235C193.497 158.738 197.992 155.862 205.485 150.136C212.292 144.935 217.787 139.755 222.803 133.293C226.213 128.9 227.92 125.034 227.677 119.809C227.447 114.879 225.808 110.002 223.167 105.979C220.433 101.813 204.123 93.094 202.452 91.6379C200.781 90.1818 202.018 86.9037 201.004 83.0002C200.585 81.3859 198.237 76.9157 196.498 73.6081C194.758 70.3005 194.868 68.7788 192.518 66.7944C190.168 64.8101 185.786 60.6577 183.35 57.8545C182.639 61.6824 183.146 69.9071 182.863 73.7941C182.267 81.9613 180.01 88.2203 176.686 96.0689C171.771 107.676 168.121 110.114 155.81 120.832C143.499 131.55 143.478 130.796 144.584 132.932C145.69 135.068 153.106 146.484 156.536 151.08C163.266 160.098 167.961 159.691 172.957 169.607ZM170.841 157.662C169.269 157.957 167.961 156.596 168.36 155.883C168.758 155.17 169.262 155.033 169.902 154.624C171.13 153.839 171.968 154.403 172.899 155.228C174.278 156.45 172.217 157.403 170.841 157.662ZM163.975 150.941C163.678 150.891 162.985 150.483 162.678 149.804C162.371 149.125 162.962 146.396 165.32 147.414C166.714 148.016 167.754 148.801 166.859 150.171C166.351 150.948 164.87 151.091 163.975 150.941ZM162.238 142.911C161.895 143.585 159.744 144.002 158.653 143.028C157.562 142.054 157.524 141.56 157.843 140.585C158.075 139.873 160.077 139.861 160.636 140.065C161.92 140.534 162.884 141.641 162.238 142.911Z" fill="url(#paint8_linear_0_2525)"/>
<g filter="url(#filter4_d_0_2525)">
<circle cx="1827.88" cy="4.61532" r="3.97714" fill="white"/>
</g>
<g filter="url(#filter5_d_0_2525)">
<circle cx="1809.59" cy="96.0889" r="2.38628" fill="white"/>
</g>
<g filter="url(#filter6_d_0_2525)">
<circle cx="649.5" cy="73.1382" r="3.5" fill="white"/>
</g>
<g filter="url(#filter7_df_0_2525)">
<circle cx="1839.01" cy="51.5451" r="7.15885" fill="white"/>
</g>
<g filter="url(#filter8_df_0_2525)">
<circle cx="609.159" cy="91.797" r="7.15885" fill="white"/>
</g>
<g filter="url(#filter9_df_0_2525)">
<circle cx="995.931" cy="278.57" r="11.9314" fill="white"/>
</g>
</g>
<defs>
<filter id="filter0_df_0_2525" x="-142.988" y="45.8109" width="1115.67" height="290.836" filterUnits="userSpaceOnUse" color-interpolation-filters="sRGB">
<feFlood flood-opacity="0" result="BackgroundImageFix"/>
<feColorMatrix in="SourceAlpha" type="matrix" values="0 0 0 0 0 0 0 0 0 0 0 0 0 0 0 0 0 0 127 0" result="hardAlpha"/>
<feOffset dx="15" dy="-10"/>
<feGaussianBlur stdDeviation="7.5"/>
<feComposite in2="hardAlpha" operator="out"/>
<feColorMatrix type="matrix" values="0 0 0 0 1 0 0 0 0 0.949319 0 0 0 0 0.933314 0 0 0 0.69 0"/>
<feBlend mode="color-burn" in2="BackgroundImageFix" result="effect1_dropShadow_0_2525"/>
<feBlend mode="normal" in="SourceGraphic" in2="effect1_dropShadow_0_2525" result="shape"/>
<feGaussianBlur stdDeviation="4.5" result="effect2_foregroundBlur_0_2525"/>
</filter>
<filter id="filter1_dd_0_2525" x="399.535" y="57.9097" width="571.711" height="258.412" filterUnits="userSpaceOnUse" color-interpolation-filters="sRGB">
<feFlood flood-opacity="0" result="BackgroundImageFix"/>
<feColorMatrix in="SourceAlpha" type="matrix" values="0 0 0 0 0 0 0 0 0 0 0 0 0 0 0 0 0 0 127 0" result="hardAlpha"/>
<feOffset dx="5" dy="5"/>
<feGaussianBlur stdDeviation="10"/>
<feComposite in2="hardAlpha" operator="out"/>
<feColorMatrix type="matrix" values="0 0 0 0 1 0 0 0 0 0.885 0 0 0 0 0.7125 0 0 0 0.8 0"/>
<feBlend mode="normal" in2="BackgroundImageFix" result="effect1_dropShadow_0_2525"/>
<feColorMatrix in="SourceAlpha" type="matrix" values="0 0 0 0 0 0 0 0 0 0 0 0 0 0 0 0 0 0 127 0" result="hardAlpha"/>
<feOffset dx="-6" dy="-3"/>
<feGaussianBlur stdDeviation="8"/>
<feComposite in2="hardAlpha" operator="out"/>
<feColorMatrix type="matrix" values="0 0 0 0 1 0 0 0 0 1 0 0 0 0 1 0 0 0 0.57 0"/>
<feBlend mode="normal" in2="effect1_dropShadow_0_2525" result="effect2_dropShadow_0_2525"/>
<feBlend mode="normal" in="SourceGraphic" in2="effect2_dropShadow_0_2525" result="shape"/>
</filter>
<filter id="filter2_dd_0_2525" x="-393" y="76.9819" width="571.711" height="258.412" filterUnits="userSpaceOnUse" color-interpolation-filters="sRGB">
<feFlood flood-opacity="0" result="BackgroundImageFix"/>
<feColorMatrix in="SourceAlpha" type="matrix" values="0 0 0 0 0 0 0 0 0 0 0 0 0 0 0 0 0 0 127 0" result="hardAlpha"/>
<feOffset dx="5" dy="5"/>
<feGaussianBlur stdDeviation="10"/>
<feComposite in2="hardAlpha" operator="out"/>
<feColorMatrix type="matrix" values="0 0 0 0 1 0 0 0 0 0.885 0 0 0 0 0.7125 0 0 0 0.8 0"/>
<feBlend mode="normal" in2="BackgroundImageFix" result="effect1_dropShadow_0_2525"/>
<feColorMatrix in="SourceAlpha" type="matrix" values="0 0 0 0 0 0 0 0 0 0 0 0 0 0 0 0 0 0 127 0" result="hardAlpha"/>
<feOffset dx="-6" dy="-3"/>
<feGaussianBlur stdDeviation="8"/>
<feComposite in2="hardAlpha" operator="out"/>
<feColorMatrix type="matrix" values="0 0 0 0 1 0 0 0 0 1 0 0 0 0 1 0 0 0 0.57 0"/>
<feBlend mode="normal" in2="effect1_dropShadow_0_2525" result="effect2_dropShadow_0_2525"/>
<feBlend mode="normal" in="SourceGraphic" in2="effect2_dropShadow_0_2525" result="shape"/>
</filter>
<filter id="filter3_df_0_2525" x="-319.238" y="177.695" width="2510.96" height="487.72" filterUnits="userSpaceOnUse" color-interpolation-filters="sRGB">
<feFlood flood-opacity="0" result="BackgroundImageFix"/>
<feColorMatrix in="SourceAlpha" type="matrix" values="0 0 0 0 0 0 0 0 0 0 0 0 0 0 0 0 0 0 127 0" result="hardAlpha"/>
<feOffset dx="15" dy="-10"/>
<feGaussianBlur stdDeviation="7.5"/>
<feComposite in2="hardAlpha" operator="out"/>
<feColorMatrix type="matrix" values="0 0 0 0 1 0 0 0 0 0.949319 0 0 0 0 0.933314 0 0 0 0.69 0"/>
<feBlend mode="color-burn" in2="BackgroundImageFix" result="effect1_dropShadow_0_2525"/>
<feBlend mode="normal" in="SourceGraphic" in2="effect1_dropShadow_0_2525" result="shape"/>
<feGaussianBlur stdDeviation="4.5" result="effect2_foregroundBlur_0_2525"/>
</filter>
<filter id="filter4_d_0_2525" x="1804.81" y="-18.4521" width="55.6798" height="55.6799" filterUnits="userSpaceOnUse" color-interpolation-filters="sRGB">
<feFlood flood-opacity="0" result="BackgroundImageFix"/>
<feColorMatrix in="SourceAlpha" type="matrix" values="0 0 0 0 0 0 0 0 0 0 0 0 0 0 0 0 0 0 127 0" result="hardAlpha"/>
<feOffset dx="4.77257" dy="4.77257"/>
<feGaussianBlur stdDeviation="11.9314"/>
<feComposite in2="hardAlpha" operator="out"/>
<feColorMatrix type="matrix" values="0 0 0 0 1 0 0 0 0 0.938167 0 0 0 0 0.779167 0 0 0 1 0"/>
<feBlend mode="normal" in2="BackgroundImageFix" result="effect1_dropShadow_0_2525"/>
<feBlend mode="normal" in="SourceGraphic" in2="effect1_dropShadow_0_2525" result="shape"/>
</filter>
<filter id="filter5_d_0_2525" x="1788.11" y="74.6124" width="52.4982" height="52.4983" filterUnits="userSpaceOnUse" color-interpolation-filters="sRGB">
<feFlood flood-opacity="0" result="BackgroundImageFix"/>
<feColorMatrix in="SourceAlpha" type="matrix" values="0 0 0 0 0 0 0 0 0 0 0 0 0 0 0 0 0 0 127 0" result="hardAlpha"/>
<feOffset dx="4.77257" dy="4.77257"/>
<feGaussianBlur stdDeviation="11.9314"/>
<feComposite in2="hardAlpha" operator="out"/>
<feColorMatrix type="matrix" values="0 0 0 0 1 0 0 0 0 0.938167 0 0 0 0 0.779167 0 0 0 1 0"/>
<feBlend mode="normal" in2="BackgroundImageFix" result="effect1_dropShadow_0_2525"/>
<feBlend mode="normal" in="SourceGraphic" in2="effect1_dropShadow_0_2525" result="shape"/>
</filter>
<filter id="filter6_d_0_2525" x="626.91" y="50.5479" width="54.7257" height="54.7257" filterUnits="userSpaceOnUse" color-interpolation-filters="sRGB">
<feFlood flood-opacity="0" result="BackgroundImageFix"/>
<feColorMatrix in="SourceAlpha" type="matrix" values="0 0 0 0 0 0 0 0 0 0 0 0 0 0 0 0 0 0 127 0" result="hardAlpha"/>
<feOffset dx="4.77257" dy="4.77257"/>
<feGaussianBlur stdDeviation="11.9314"/>
<feComposite in2="hardAlpha" operator="out"/>
<feColorMatrix type="matrix" values="0 0 0 0 1 0 0 0 0 0.938167 0 0 0 0 0.779167 0 0 0 1 0"/>
<feBlend mode="normal" in2="BackgroundImageFix" result="effect1_dropShadow_0_2525"/>
<feBlend mode="normal" in="SourceGraphic" in2="effect1_dropShadow_0_2525" result="shape"/>
</filter>
<filter id="filter7_df_0_2525" x="1807.99" y="20.5234" width="62.0431" height="62.0434" filterUnits="userSpaceOnUse" color-interpolation-filters="sRGB">
<feFlood flood-opacity="0" result="BackgroundImageFix"/>
<feColorMatrix in="SourceAlpha" type="matrix" values="0 0 0 0 0 0 0 0 0 0 0 0 0 0 0 0 0 0 127 0" result="hardAlpha"/>
<feOffset/>
<feGaussianBlur stdDeviation="11.9314"/>
<feComposite in2="hardAlpha" operator="out"/>
<feColorMatrix type="matrix" values="0 0 0 0 1 0 0 0 0 0.938167 0 0 0 0 0.779167 0 0 0 1 0"/>
<feBlend mode="normal" in2="BackgroundImageFix" result="effect1_dropShadow_0_2525"/>
<feBlend mode="normal" in="SourceGraphic" in2="effect1_dropShadow_0_2525" result="shape"/>
<feGaussianBlur stdDeviation="3.97714" result="effect2_foregroundBlur_0_2525"/>
</filter>
<filter id="filter8_df_0_2525" x="578.137" y="60.7753" width="62.0431" height="62.0434" filterUnits="userSpaceOnUse" color-interpolation-filters="sRGB">
<feFlood flood-opacity="0" result="BackgroundImageFix"/>
<feColorMatrix in="SourceAlpha" type="matrix" values="0 0 0 0 0 0 0 0 0 0 0 0 0 0 0 0 0 0 127 0" result="hardAlpha"/>
<feOffset/>
<feGaussianBlur stdDeviation="11.9314"/>
<feComposite in2="hardAlpha" operator="out"/>
<feColorMatrix type="matrix" values="0 0 0 0 1 0 0 0 0 0.938167 0 0 0 0 0.779167 0 0 0 1 0"/>
<feBlend mode="normal" in2="BackgroundImageFix" result="effect1_dropShadow_0_2525"/>
<feBlend mode="normal" in="SourceGraphic" in2="effect1_dropShadow_0_2525" result="shape"/>
<feGaussianBlur stdDeviation="3.97714" result="effect2_foregroundBlur_0_2525"/>
</filter>
<filter id="filter9_df_0_2525" x="960.137" y="242.776" width="71.589" height="71.5885" filterUnits="userSpaceOnUse" color-interpolation-filters="sRGB">
<feFlood flood-opacity="0" result="BackgroundImageFix"/>
<feColorMatrix in="SourceAlpha" type="matrix" values="0 0 0 0 0 0 0 0 0 0 0 0 0 0 0 0 0 0 127 0" result="hardAlpha"/>
<feOffset/>
<feGaussianBlur stdDeviation="11.9314"/>
<feComposite in2="hardAlpha" operator="out"/>
<feColorMatrix type="matrix" values="0 0 0 0 1 0 0 0 0 0.938167 0 0 0 0 0.779167 0 0 0 1 0"/>
<feBlend mode="normal" in2="BackgroundImageFix" result="effect1_dropShadow_0_2525"/>
<feBlend mode="normal" in="SourceGraphic" in2="effect1_dropShadow_0_2525" result="shape"/>
<feGaussianBlur stdDeviation="3.97714" result="effect2_foregroundBlur_0_2525"/>
</filter>
<linearGradient id="paint0_linear_0_2525" x1="355.877" y1="-56.018" x2="326.702" y2="281.374" gradientUnits="userSpaceOnUse">
<stop offset="0.0307237" stop-color="#FFEEEE"/>
<stop offset="0.246017" stop-color="#FFCFBB"/>
<stop offset="0.845259" stop-color="#867EBB"/>
<stop offset="1" stop-color="#867EBB" stop-opacity="0"/>
</linearGradient>
<linearGradient id="paint1_linear_0_2525" x1="422.028" y1="17.3198" x2="445.035" y2="511.377" gradientUnits="userSpaceOnUse">
<stop stop-color="#FFCFBB"/>
<stop offset="0.552083" stop-color="#8587C8"/>
<stop offset="1" stop-color="#8587C8" stop-opacity="0"/>
</linearGradient>
<linearGradient id="paint2_linear_0_2525" x1="414.382" y1="84.2598" x2="449.932" y2="135.95" gradientUnits="userSpaceOnUse">
<stop stop-color="white"/>
<stop offset="1" stop-color="#F2E5D9"/>
</linearGradient>
<linearGradient id="paint3_linear_0_2525" x1="463.225" y1="86.2709" x2="495.76" y2="137.238" gradientUnits="userSpaceOnUse">
<stop stop-color="#F4C5B1"/>
<stop offset="1" stop-color="#33317F"/>
</linearGradient>
<linearGradient id="paint4_linear_0_2525" x1="373.277" y1="158.7" x2="492.037" y2="47.0307" gradientUnits="userSpaceOnUse">
<stop stop-color="#FFF5EB"/>
<stop offset="1" stop-color="#CCBCEF"/>
</linearGradient>
<linearGradient id="paint5_linear_0_2525" x1="271.347" y1="137.379" x2="308.113" y2="102.327" gradientUnits="userSpaceOnUse">
<stop offset="0.345309" stop-color="#B86F2B"/>
<stop offset="1" stop-color="#C36ACA"/>
</linearGradient>
<linearGradient id="paint6_linear_0_2525" x1="253.1" y1="97.9861" x2="335.379" y2="50.4102" gradientUnits="userSpaceOnUse">
<stop stop-color="#F4D6B9"/>
<stop offset="1" stop-color="#C0A7D8"/>
</linearGradient>
<linearGradient id="paint7_linear_0_2525" x1="188.169" y1="90.6956" x2="232.387" y2="76.143" gradientUnits="userSpaceOnUse">
<stop stop-color="#9AB1EC"/>
<stop offset="1" stop-color="#381F6F"/>
</linearGradient>
<linearGradient id="paint8_linear_0_2525" x1="139.966" y1="94.2283" x2="236.265" y2="91.6156" gradientUnits="userSpaceOnUse">
<stop stop-color="#FFDFD5"/>
<stop offset="1" stop-color="#B4A6DE"/>
</linearGradient>
<clipPath id="clip0_0_2525">
<rect width="1920" height="482" fill="white" transform="translate(0 0.638672)"/>
</clipPath>
</defs>
</svg>
