<svg width="2560" height="644" viewBox="0 0 2560 300" fill="none" xmlns="http://www.w3.org/2000/svg">
<g filter="url(#filter0_df_1126_8869)">
<path d="M840.494 142.448C921.693 130.487 922.663 170.305 973.525 165.788C1024.39 161.272 1048 179.566 1072.48 180.823C1096.96 182.08 1107.07 188.517 1166.22 172.211C1225.37 155.906 1414.46 340.52 1414.46 340.52L546.714 359.008L287.18 340.52L259.216 157.485C259.216 157.485 265.861 100.439 304.793 102.212C343.725 103.985 368.725 121.763 384.365 124.989C400.006 128.216 472.069 123.431 535.509 134.495C598.95 145.559 616.729 131.953 668.51 119.942C720.292 107.931 759.295 154.409 840.494 142.448Z" fill="url(#paint0_linear_1126_8869)" shape-rendering="crispEdges"/>
</g>
<g opacity="0.8" filter="url(#filter1_dd_1126_8869)">
<ellipse cx="174.32" cy="30.2307" rx="174.32" ry="30.2307" transform="matrix(-1 0 0 1 1376.08 243.879)" fill="#FEFFFB"/>
<ellipse cx="63.122" cy="55.3575" rx="63.122" ry="55.3575" transform="matrix(-1 0 0 1 1396.63 181.067)" fill="#FEFFFB"/>
<ellipse cx="78.1686" cy="80.0918" rx="78.1686" ry="80.0918" transform="matrix(-1 0 0 1 1325.44 100.972)" fill="#FEFFFB"/>
<ellipse cx="78.1686" cy="80.0918" rx="78.1686" ry="80.0918" transform="matrix(-1 0 0 1 1027.33 170.466)" fill="#FEFFFB"/>
<ellipse cx="61.6541" cy="63.2097" rx="61.6541" ry="63.2097" transform="matrix(-1 0 0 1 1124.33 163.792)" fill="#FEFFFB"/>
<ellipse cx="53.5803" cy="55.3575" rx="53.5803" ry="55.3575" transform="matrix(-1 0 0 1 1213.14 153.584)" fill="#FEFFFB"/>
<ellipse cx="19.4504" cy="16.8821" rx="19.4504" ry="16.8821" transform="matrix(-1 0 0 1 1066.34 153.584)" fill="#FEFFFB"/>
<ellipse cx="28.6251" cy="27.0899" rx="28.6251" ry="27.0899" transform="matrix(-1 0 0 1 1362.14 141.799)" fill="#FEFFFB"/>
<ellipse cx="28.6251" cy="27.0899" rx="28.6251" ry="27.0899" transform="matrix(-1 0 0 1 891.814 228.386)" fill="#FEFFFB"/>
</g>
<g opacity="0.8" filter="url(#filter2_dd_1126_8869)">
<ellipse cx="162.734" cy="28.2215" rx="162.734" ry="28.2215" transform="matrix(-1 0 0 1 527.72 260.751)" fill="#FEFFFB"/>
<ellipse cx="58.9267" cy="51.6782" rx="58.9267" ry="51.6782" transform="matrix(-1 0 0 1 546.907 202.114)" fill="#FEFFFB"/>
<ellipse cx="72.9732" cy="74.7685" rx="72.9732" ry="74.7685" transform="matrix(-1 0 0 1 480.446 127.343)" fill="#FEFFFB"/>
<ellipse cx="72.9732" cy="74.7685" rx="72.9732" ry="74.7685" transform="matrix(-1 0 0 1 202.149 192.218)" fill="#FEFFFB"/>
<ellipse cx="57.5563" cy="59.0085" rx="57.5563" ry="59.0085" transform="matrix(-1 0 0 1 292.696 185.987)" fill="#FEFFFB"/>
<ellipse cx="50.0192" cy="51.6782" rx="50.0192" ry="51.6782" transform="matrix(-1 0 0 1 375.61 176.458)" fill="#FEFFFB"/>
<ellipse cx="18.1576" cy="15.76" rx="18.1576" ry="15.76" transform="matrix(-1 0 0 1 238.571 176.458)" fill="#FEFFFB"/>
<ellipse cx="26.7226" cy="25.2894" rx="26.7226" ry="25.2894" transform="matrix(-1 0 0 1 514.704 165.456)" fill="#FEFFFB"/>
<ellipse cx="26.7226" cy="25.2894" rx="26.7226" ry="25.2894" transform="matrix(-1 0 0 1 75.6416 246.288)" fill="#FEFFFB"/>
</g>
<g filter="url(#filter3_df_1126_8869)">
<path d="M922.029 269.969C1003.91 265.442 1051.11 298.116 1102.13 298.116C1153.16 298.116 1333.13 271.918 1440.92 298.116C1557.26 326.396 1547.58 317.502 1746.14 357.66C1944.71 397.817 2672.79 157.105 2504.98 586.318C2469.51 677.039 2510.53 612.979 2386.89 607.985C2197.6 600.338 365.572 583.365 157.485 550.978C-161.517 501.327 159.122 361.289 159.122 361.289C176.958 321.473 155.66 343.746 183.122 285.928C210.584 228.109 281.723 239.194 333.488 224.802C385.252 210.41 402.064 254.041 456.65 269.969C511.236 285.897 519.781 238.13 581.947 254.041C644.113 269.951 671.594 246.258 724.195 239.195C776.796 232.131 840.152 274.495 922.029 269.969Z" fill="url(#paint1_linear_1126_8869)" shape-rendering="crispEdges"/>
</g>
<path fill-rule="evenodd" clip-rule="evenodd" d="M893.163 111.227L893.473 108.307C893.412 109.261 893.312 110.245 893.163 111.227ZM815.56 181.005C815.56 181.005 826.253 175.94 836.747 170.282C828.926 175.32 818.57 179.811 815.56 181.005Z" fill="url(#paint2_linear_1126_8869)"/>
<path d="M889.479 119.937C885.979 123.319 881.757 123.813 877.029 123.139C874.531 122.783 871.996 120.727 870.598 118.795C870.506 118.668 870.287 118.253 870.017 117.742C869.273 116.332 868.144 114.193 868.236 115.362C868.93 124.125 866.385 131.216 862.463 139.563C857.864 149.348 850.514 158.871 842.252 166.209C840.719 167.571 838.822 168.946 836.747 170.282C843.954 166.397 851.068 162.232 854.562 159.235C859.446 155.047 868.315 147.373 872.093 143.92C875.87 140.468 879.933 136.078 883.389 132.387C891.41 123.824 892.775 114.398 893.163 111.227C892.654 114.582 891.572 117.914 889.479 119.937Z" fill="url(#paint3_linear_1126_8869)"/>
<path fill-rule="evenodd" clip-rule="evenodd" d="M771.993 158.385C775.552 151.167 778.811 144.558 780.561 140.668C780.974 139.749 781.393 138.781 781.807 137.825C783.106 134.821 784.357 131.932 785.236 131.027C785.901 130.342 787.406 130.122 789.272 129.849C790.659 129.647 792.244 129.415 793.832 128.942C797.556 127.833 805.827 125.097 811.716 123.118C812.397 122.889 813.108 122.654 813.844 122.41C821.023 120.029 830.61 116.85 838.52 111.409C845.311 106.739 850.867 102.161 857.583 96.6259C859.493 95.0521 861.497 93.401 863.649 91.6486C868.272 87.885 872.626 83.4065 876.032 79.9033C879.789 76.0388 882.392 73.3614 882.928 74.1407C883.95 75.6265 886.7 82.1714 888.458 86.8219C888.71 87.4877 888.978 88.1884 889.255 88.9109C890.912 93.2352 892.87 98.3424 893.301 101.442C893.504 102.898 893.658 105.469 893.475 108.306C893.414 109.26 893.314 110.244 893.165 111.226C892.656 114.582 891.574 117.913 889.481 119.936C885.981 123.318 881.759 123.812 877.03 123.138C874.533 122.782 871.998 120.726 870.6 118.795C870.507 118.667 870.288 118.253 870.019 117.742C869.275 116.332 868.145 114.192 868.238 115.361C868.932 124.124 866.387 131.215 862.465 139.563C857.866 149.348 850.515 158.871 842.254 166.208C840.72 167.57 838.824 168.945 836.749 170.282C828.928 175.32 818.572 179.81 815.562 181.005C815.057 181.205 814.52 181.424 813.947 181.659C810.197 183.191 804.888 185.36 796.72 187.039C787.936 188.844 779.582 190.513 770.77 191.944C769.79 192.103 768.553 192.394 767.221 192.708C762.545 193.81 756.698 195.188 756.693 192.079C756.688 189.423 764.932 172.704 771.993 158.385ZM773.273 167.178C773.002 165.693 773.409 164.162 774.217 163.829C775.024 163.496 776.124 163.823 776.87 164.94C777.635 166.088 777.462 166.965 776.396 167.844C775.528 168.561 773.535 168.61 773.273 167.178ZM779.138 155.588C779.062 155.664 778.954 155.75 778.83 155.849C778.29 156.281 777.45 156.953 777.662 158.064C777.977 159.722 779.709 160.318 780.952 159.131C781.846 158.277 781.953 155.876 780.842 155.114C780.295 154.738 779.545 155.18 779.138 155.588ZM781.516 149.636C781.381 149.065 781.639 147.448 782.419 146.888C783.199 146.328 784.683 145.591 785.063 146.703C785.314 147.437 784.887 149.473 784.414 150.071C783.7 150.975 781.81 150.884 781.516 149.636Z" fill="url(#paint4_linear_1126_8869)"/>
<path d="M690.207 140.743C688.664 140.157 675.539 138.321 672.389 136.104C669.345 133.961 666.62 130.951 664.745 127.529C667.799 133.103 668.986 135.18 671.699 137.992C674.349 140.738 677.792 144.179 681.073 146.146C684.371 148.125 689.684 151.863 694.288 153.76C698.893 155.658 697.656 155.523 708.653 158.648C709.629 158.925 713.414 159.785 713.267 159.315C712.864 158.885 706.447 156.773 705.068 155.66C703.688 154.547 702.453 153.777 700.218 151.901C697.982 150.026 694.962 147.49 694.136 146.461C692.139 143.972 691.75 141.328 690.207 140.743Z" fill="url(#paint5_linear_1126_8869)"/>
<path fill-rule="evenodd" clip-rule="evenodd" d="M680.322 76.7378C677.854 74.6034 675.324 72.2597 675.044 72.162C674.764 72.0643 672.74 76.2707 671.857 82.2213C670.975 88.1718 670.193 91.9367 667.584 97.9682C665.215 103.447 663.108 109.91 662.286 115.805C661.727 119.813 662.758 123.902 664.745 127.529C666.62 130.951 669.345 133.961 672.389 136.104C675.539 138.321 688.664 140.157 690.207 140.743C691.75 141.328 692.139 143.972 694.136 146.461C694.962 147.49 697.982 150.026 700.218 151.901C702.453 153.777 703.688 154.547 705.068 155.66C706.447 156.773 712.864 158.885 713.267 159.315C712.36 156.423 709.754 150.976 708.562 148.155C706.058 142.228 705.358 137.458 704.649 131.032C703.6 121.53 707.635 115.937 709.381 108.14C711.128 100.343 712.287 96.8799 710.854 95.6641C709.422 94.4483 701.361 88.9155 697.63 86.5779C690.309 81.9913 686.889 82.4188 680.322 76.7378ZM686.493 85.7204C687.359 85.0952 688.644 85.7099 688.649 86.3192C688.654 86.9285 688.391 87.1585 688.14 87.6174C687.659 88.4975 686.944 88.3216 686.08 87.9856C684.8 87.4878 685.735 86.2679 686.493 85.7204ZM693.091 88.6482C693.292 88.6047 693.863 88.7091 694.291 89.1074C694.718 89.5057 695.314 91.59 693.501 91.4961C692.43 91.4405 691.512 91.1615 691.583 89.9565C691.623 89.2727 692.486 88.7792 693.091 88.6482ZM696.985 93.8604C696.96 93.2931 698.14 92.4282 699.155 92.8272C700.17 93.2263 700.368 93.565 700.514 94.3382C700.62 94.9028 699.39 95.4423 698.974 95.4461C698.017 95.4548 697.033 94.929 696.985 93.8604Z" fill="url(#paint6_linear_1126_8869)"/>
<path d="M595.123 125.253C596.795 126.709 613.104 135.429 615.838 139.594C618.48 143.618 620.119 148.494 620.348 153.424C619.974 145.394 619.769 142.377 618.014 137.738C616.301 133.207 613.988 127.469 610.915 123.53C607.825 119.57 603.213 112.548 598.324 108.027C593.435 103.506 594.998 104.284 582.386 95.128C581.267 94.3155 576.784 91.4165 576.668 92.0373C576.92 92.7409 584.087 98.4198 585.189 100.41C586.292 102.399 587.43 103.916 589.169 107.223C590.909 110.531 593.256 115.001 593.676 116.615C594.69 120.519 593.452 123.797 595.123 125.253Z" fill="url(#paint7_linear_1126_8869)"/>
<path fill-rule="evenodd" clip-rule="evenodd" d="M566.154 200.968C568.031 204.694 573.599 208.663 573.908 208.917C574.217 209.171 576.427 203.092 581.561 196.595C586.695 190.099 591.19 187.223 598.682 181.497C605.489 176.295 610.985 171.116 616 164.654C619.41 160.26 621.117 156.395 620.874 151.17C620.645 146.24 619.005 141.363 616.364 137.339C613.63 133.174 597.321 124.455 595.649 122.999C593.978 121.543 595.216 118.264 594.201 114.361C593.782 112.747 591.434 108.276 589.695 104.969C587.956 101.661 588.065 100.139 585.715 98.1552C583.366 96.1708 578.984 92.0185 576.547 89.2152C575.836 93.0432 576.343 101.268 576.06 105.155C575.465 113.322 573.208 119.581 569.884 127.43C564.968 139.036 561.318 141.475 549.007 152.192C536.697 162.91 536.676 162.156 537.782 164.292C538.887 166.428 546.304 177.844 549.734 182.441C556.464 191.459 561.158 191.052 566.154 200.968ZM564.038 189.022C562.467 189.318 561.158 187.957 561.557 187.244C561.955 186.531 562.459 186.394 563.099 185.985C564.327 185.2 565.165 185.763 566.096 186.588C567.475 187.81 565.414 188.764 564.038 189.022ZM557.172 182.301C556.875 182.251 556.182 181.844 555.875 181.165C555.568 180.486 556.159 177.757 558.517 178.775C559.911 179.377 560.952 180.162 560.056 181.532C559.548 182.309 558.068 182.452 557.172 182.301ZM555.435 174.271C555.092 174.946 552.941 175.363 551.85 174.389C550.76 173.415 550.721 172.921 551.04 171.946C551.273 171.234 553.275 171.222 553.833 171.426C555.117 171.895 556.081 173.001 555.435 174.271Z" fill="url(#paint8_linear_1126_8869)"/>
<g filter="url(#filter4_d_1126_8869)">
<circle cx="2221.1" cy="35.9764" r="3.97714" fill="white"/>
</g>
<g filter="url(#filter5_d_1126_8869)">
<circle cx="2202.81" cy="127.45" r="2.38628" fill="white"/>
</g>
<g filter="url(#filter6_d_1126_8869)">
<circle cx="1042.7" cy="104.499" r="3.5" fill="white"/>
</g>
<g filter="url(#filter7_df_1126_8869)">
<circle cx="2232.24" cy="82.9062" r="7.15885" fill="white"/>
</g>
<g filter="url(#filter8_df_1126_8869)">
<circle cx="1002.36" cy="123.158" r="7.15885" fill="white"/>
</g>
<defs>
<filter id="filter0_df_1126_8869" x="250.216" y="77.1719" width="1194.24" height="290.836" filterUnits="userSpaceOnUse" color-interpolation-filters="sRGB">
<feFlood flood-opacity="0" result="BackgroundImageFix"/>
<feColorMatrix in="SourceAlpha" type="matrix" values="0 0 0 0 0 0 0 0 0 0 0 0 0 0 0 0 0 0 127 0" result="hardAlpha"/>
<feOffset dx="15" dy="-10"/>
<feGaussianBlur stdDeviation="7.5"/>
<feComposite in2="hardAlpha" operator="out"/>
<feColorMatrix type="matrix" values="0 0 0 0 1 0 0 0 0 0.949319 0 0 0 0 0.933314 0 0 0 0.69 0"/>
<feBlend mode="color-burn" in2="BackgroundImageFix" result="effect1_dropShadow_1126_8869"/>
<feBlend mode="normal" in="SourceGraphic" in2="effect1_dropShadow_1126_8869" result="shape"/>
<feGaussianBlur stdDeviation="4.5" result="effect2_foregroundBlur_1126_8869"/>
</filter>
<filter id="filter1_dd_1126_8869" x="812.564" y="81.9724" width="609.068" height="273.677" filterUnits="userSpaceOnUse" color-interpolation-filters="sRGB">
<feFlood flood-opacity="0" result="BackgroundImageFix"/>
<feColorMatrix in="SourceAlpha" type="matrix" values="0 0 0 0 0 0 0 0 0 0 0 0 0 0 0 0 0 0 127 0" result="hardAlpha"/>
<feOffset dx="5" dy="5"/>
<feGaussianBlur stdDeviation="10"/>
<feComposite in2="hardAlpha" operator="out"/>
<feColorMatrix type="matrix" values="0 0 0 0 1 0 0 0 0 0.885 0 0 0 0 0.7125 0 0 0 0.8 0"/>
<feBlend mode="normal" in2="BackgroundImageFix" result="effect1_dropShadow_1126_8869"/>
<feColorMatrix in="SourceAlpha" type="matrix" values="0 0 0 0 0 0 0 0 0 0 0 0 0 0 0 0 0 0 127 0" result="hardAlpha"/>
<feOffset dx="-6" dy="-3"/>
<feGaussianBlur stdDeviation="8"/>
<feComposite in2="hardAlpha" operator="out"/>
<feColorMatrix type="matrix" values="0 0 0 0 1 0 0 0 0 1 0 0 0 0 1 0 0 0 0.57 0"/>
<feBlend mode="normal" in2="effect1_dropShadow_1126_8869" result="effect2_dropShadow_1126_8869"/>
<feBlend mode="normal" in="SourceGraphic" in2="effect2_dropShadow_1126_8869" result="shape"/>
</filter>
<filter id="filter2_dd_1126_8869" x="0.196289" y="108.343" width="571.711" height="258.412" filterUnits="userSpaceOnUse" color-interpolation-filters="sRGB">
<feFlood flood-opacity="0" result="BackgroundImageFix"/>
<feColorMatrix in="SourceAlpha" type="matrix" values="0 0 0 0 0 0 0 0 0 0 0 0 0 0 0 0 0 0 127 0" result="hardAlpha"/>
<feOffset dx="5" dy="5"/>
<feGaussianBlur stdDeviation="10"/>
<feComposite in2="hardAlpha" operator="out"/>
<feColorMatrix type="matrix" values="0 0 0 0 1 0 0 0 0 0.885 0 0 0 0 0.7125 0 0 0 0.8 0"/>
<feBlend mode="normal" in2="BackgroundImageFix" result="effect1_dropShadow_1126_8869"/>
<feColorMatrix in="SourceAlpha" type="matrix" values="0 0 0 0 0 0 0 0 0 0 0 0 0 0 0 0 0 0 127 0" result="hardAlpha"/>
<feOffset dx="-6" dy="-3"/>
<feGaussianBlur stdDeviation="8"/>
<feComposite in2="hardAlpha" operator="out"/>
<feColorMatrix type="matrix" values="0 0 0 0 1 0 0 0 0 1 0 0 0 0 1 0 0 0 0.57 0"/>
<feBlend mode="normal" in2="effect1_dropShadow_1126_8869" result="effect2_dropShadow_1126_8869"/>
<feBlend mode="normal" in="SourceGraphic" in2="effect2_dropShadow_1126_8869" result="shape"/>
</filter>
<filter id="filter3_df_1126_8869" x="7.12988" y="196.934" width="2552.75" height="446.655" filterUnits="userSpaceOnUse" color-interpolation-filters="sRGB">
<feFlood flood-opacity="0" result="BackgroundImageFix"/>
<feColorMatrix in="SourceAlpha" type="matrix" values="0 0 0 0 0 0 0 0 0 0 0 0 0 0 0 0 0 0 127 0" result="hardAlpha"/>
<feOffset dx="15" dy="-10"/>
<feGaussianBlur stdDeviation="7.5"/>
<feComposite in2="hardAlpha" operator="out"/>
<feColorMatrix type="matrix" values="0 0 0 0 1 0 0 0 0 0.949319 0 0 0 0 0.933314 0 0 0 0.69 0"/>
<feBlend mode="color-burn" in2="BackgroundImageFix" result="effect1_dropShadow_1126_8869"/>
<feBlend mode="normal" in="SourceGraphic" in2="effect1_dropShadow_1126_8869" result="shape"/>
<feGaussianBlur stdDeviation="4.5" result="effect2_foregroundBlur_1126_8869"/>
</filter>
<filter id="filter4_d_1126_8869" x="2198.03" y="12.909" width="55.6798" height="55.68" filterUnits="userSpaceOnUse" color-interpolation-filters="sRGB">
<feFlood flood-opacity="0" result="BackgroundImageFix"/>
<feColorMatrix in="SourceAlpha" type="matrix" values="0 0 0 0 0 0 0 0 0 0 0 0 0 0 0 0 0 0 127 0" result="hardAlpha"/>
<feOffset dx="4.77257" dy="4.77257"/>
<feGaussianBlur stdDeviation="11.9314"/>
<feComposite in2="hardAlpha" operator="out"/>
<feColorMatrix type="matrix" values="0 0 0 0 1 0 0 0 0 0.938167 0 0 0 0 0.779167 0 0 0 1 0"/>
<feBlend mode="normal" in2="BackgroundImageFix" result="effect1_dropShadow_1126_8869"/>
<feBlend mode="normal" in="SourceGraphic" in2="effect1_dropShadow_1126_8869" result="shape"/>
</filter>
<filter id="filter5_d_1126_8869" x="2181.33" y="105.973" width="52.4982" height="52.4982" filterUnits="userSpaceOnUse" color-interpolation-filters="sRGB">
<feFlood flood-opacity="0" result="BackgroundImageFix"/>
<feColorMatrix in="SourceAlpha" type="matrix" values="0 0 0 0 0 0 0 0 0 0 0 0 0 0 0 0 0 0 127 0" result="hardAlpha"/>
<feOffset dx="4.77257" dy="4.77257"/>
<feGaussianBlur stdDeviation="11.9314"/>
<feComposite in2="hardAlpha" operator="out"/>
<feColorMatrix type="matrix" values="0 0 0 0 1 0 0 0 0 0.938167 0 0 0 0 0.779167 0 0 0 1 0"/>
<feBlend mode="normal" in2="BackgroundImageFix" result="effect1_dropShadow_1126_8869"/>
<feBlend mode="normal" in="SourceGraphic" in2="effect1_dropShadow_1126_8869" result="shape"/>
</filter>
<filter id="filter6_d_1126_8869" x="1020.11" y="81.9085" width="54.7257" height="54.7257" filterUnits="userSpaceOnUse" color-interpolation-filters="sRGB">
<feFlood flood-opacity="0" result="BackgroundImageFix"/>
<feColorMatrix in="SourceAlpha" type="matrix" values="0 0 0 0 0 0 0 0 0 0 0 0 0 0 0 0 0 0 127 0" result="hardAlpha"/>
<feOffset dx="4.77257" dy="4.77257"/>
<feGaussianBlur stdDeviation="11.9314"/>
<feComposite in2="hardAlpha" operator="out"/>
<feColorMatrix type="matrix" values="0 0 0 0 1 0 0 0 0 0.938167 0 0 0 0 0.779167 0 0 0 1 0"/>
<feBlend mode="normal" in2="BackgroundImageFix" result="effect1_dropShadow_1126_8869"/>
<feBlend mode="normal" in="SourceGraphic" in2="effect1_dropShadow_1126_8869" result="shape"/>
</filter>
<filter id="filter7_df_1126_8869" x="2201.21" y="51.8845" width="62.0431" height="62.0433" filterUnits="userSpaceOnUse" color-interpolation-filters="sRGB">
<feFlood flood-opacity="0" result="BackgroundImageFix"/>
<feColorMatrix in="SourceAlpha" type="matrix" values="0 0 0 0 0 0 0 0 0 0 0 0 0 0 0 0 0 0 127 0" result="hardAlpha"/>
<feOffset/>
<feGaussianBlur stdDeviation="11.9314"/>
<feComposite in2="hardAlpha" operator="out"/>
<feColorMatrix type="matrix" values="0 0 0 0 1 0 0 0 0 0.938167 0 0 0 0 0.779167 0 0 0 1 0"/>
<feBlend mode="normal" in2="BackgroundImageFix" result="effect1_dropShadow_1126_8869"/>
<feBlend mode="normal" in="SourceGraphic" in2="effect1_dropShadow_1126_8869" result="shape"/>
<feGaussianBlur stdDeviation="3.97714" result="effect2_foregroundBlur_1126_8869"/>
</filter>
<filter id="filter8_df_1126_8869" x="971.333" y="92.1359" width="62.0431" height="62.0433" filterUnits="userSpaceOnUse" color-interpolation-filters="sRGB">
<feFlood flood-opacity="0" result="BackgroundImageFix"/>
<feColorMatrix in="SourceAlpha" type="matrix" values="0 0 0 0 0 0 0 0 0 0 0 0 0 0 0 0 0 0 127 0" result="hardAlpha"/>
<feOffset/>
<feGaussianBlur stdDeviation="11.9314"/>
<feComposite in2="hardAlpha" operator="out"/>
<feColorMatrix type="matrix" values="0 0 0 0 1 0 0 0 0 0.938167 0 0 0 0 0.779167 0 0 0 1 0"/>
<feBlend mode="normal" in2="BackgroundImageFix" result="effect1_dropShadow_1126_8869"/>
<feBlend mode="normal" in="SourceGraphic" in2="effect1_dropShadow_1126_8869" result="shape"/>
<feGaussianBlur stdDeviation="3.97714" result="effect2_foregroundBlur_1126_8869"/>
</filter>
<linearGradient id="paint0_linear_1126_8869" x1="749.082" y1="-24.657" x2="719.907" y2="312.735" gradientUnits="userSpaceOnUse">
<stop offset="0.0307237" stop-color="#FFEEEE"/>
<stop offset="0.246017" stop-color="#FFCFBB"/>
<stop offset="0.845259" stop-color="#867EBB"/>
<stop offset="1" stop-color="#867EBB" stop-opacity="0"/>
</linearGradient>
<linearGradient id="paint1_linear_1126_8869" x1="816.91" y1="50.7843" x2="797.887" y2="523.581" gradientUnits="userSpaceOnUse">
<stop stop-color="#FFCFBB"/>
<stop offset="0.552083" stop-color="#8587C8"/>
<stop offset="1" stop-color="#8587C8" stop-opacity="0"/>
</linearGradient>
<linearGradient id="paint2_linear_1126_8869" x1="807.579" y1="115.621" x2="843.13" y2="167.311" gradientUnits="userSpaceOnUse">
<stop stop-color="white"/>
<stop offset="1" stop-color="#F2E5D9"/>
</linearGradient>
<linearGradient id="paint3_linear_1126_8869" x1="856.423" y1="117.632" x2="888.958" y2="168.6" gradientUnits="userSpaceOnUse">
<stop stop-color="#F4C5B1"/>
<stop offset="1" stop-color="#33317F"/>
</linearGradient>
<linearGradient id="paint4_linear_1126_8869" x1="766.475" y1="190.061" x2="885.234" y2="78.3918" gradientUnits="userSpaceOnUse">
<stop stop-color="#FFF5EB"/>
<stop offset="1" stop-color="#CCBCEF"/>
</linearGradient>
<linearGradient id="paint5_linear_1126_8869" x1="664.545" y1="168.741" x2="701.31" y2="133.688" gradientUnits="userSpaceOnUse">
<stop offset="0.345309" stop-color="#B86F2B"/>
<stop offset="1" stop-color="#C36ACA"/>
</linearGradient>
<linearGradient id="paint6_linear_1126_8869" x1="646.298" y1="129.348" x2="728.576" y2="81.7717" gradientUnits="userSpaceOnUse">
<stop stop-color="#F4D6B9"/>
<stop offset="1" stop-color="#C0A7D8"/>
</linearGradient>
<linearGradient id="paint7_linear_1126_8869" x1="581.367" y1="122.056" x2="625.584" y2="107.504" gradientUnits="userSpaceOnUse">
<stop stop-color="#9AB1EC"/>
<stop offset="1" stop-color="#381F6F"/>
</linearGradient>
<linearGradient id="paint8_linear_1126_8869" x1="533.163" y1="125.589" x2="629.462" y2="122.976" gradientUnits="userSpaceOnUse">
<stop stop-color="#FFDFD5"/>
<stop offset="1" stop-color="#B4A6DE"/>
</linearGradient>
</defs>
</svg>
