<svg width="14" height="10" viewBox="0 0 14 10" fill="none" xmlns="http://www.w3.org/2000/svg">
<path d="M0.777778 9.33333C0.557407 9.33333 0.372685 9.2588 0.223611 9.10972C0.074537 8.96065 0 8.77593 0 8.55556C0 8.33519 0.074537 8.15046 0.223611 8.00139C0.372685 7.85232 0.557407 7.77778 0.777778 7.77778H13.2222C13.4426 7.77778 13.6273 7.85232 13.7764 8.00139C13.9255 8.15046 14 8.33519 14 8.55556C14 8.77593 13.9255 8.96065 13.7764 9.10972C13.6273 9.2588 13.4426 9.33333 13.2222 9.33333H0.777778ZM0.777778 5.44444C0.557407 5.44444 0.372685 5.36991 0.223611 5.22083C0.074537 5.07176 0 4.88704 0 4.66667C0 4.4463 0.074537 4.26157 0.223611 4.1125C0.372685 3.96343 0.557407 3.88889 0.777778 3.88889H13.2222C13.4426 3.88889 13.6273 3.96343 13.7764 4.1125C13.9255 4.26157 14 4.4463 14 4.66667C14 4.88704 13.9255 5.07176 13.7764 5.22083C13.6273 5.36991 13.4426 5.44444 13.2222 5.44444H0.777778ZM0.777778 1.55556C0.557407 1.55556 0.372685 1.48102 0.223611 1.33194C0.074537 1.18287 0 0.998148 0 0.777778C0 0.557407 0.074537 0.372685 0.223611 0.223611C0.372685 0.074537 0.557407 0 0.777778 0H13.2222C13.4426 0 13.6273 0.074537 13.7764 0.223611C13.9255 0.372685 14 0.557407 14 0.777778C14 0.998148 13.9255 1.18287 13.7764 1.33194C13.6273 1.48102 13.4426 1.55556 13.2222 1.55556H0.777778Z" fill="#F3F6F6"/>
</svg>
