<svg width="426" height="321" viewBox="0 0 426 321" fill="none" xmlns="http://www.w3.org/2000/svg">
<g filter="url(#filter0_if_8_2002)">
<path d="M132.175 143.456C141.899 141.979 153.631 144.548 158.282 146.017L188.821 210.06C187.682 211.262 185.246 215.32 184.612 221.942C183.819 230.22 160.906 236.012 150.993 245.874C143.063 253.763 136.787 252.253 134.64 250.512C135.231 247.333 135.239 242.326 130.545 247.724C124.678 254.472 110.533 260.427 98.9173 267.546C87.3019 274.665 93.2735 262.337 101.607 251.649C109.94 240.96 92.1993 260.085 71.9989 265.767C51.7985 271.45 57.6956 263.108 57.8148 256.731C57.934 250.354 64.9992 247.775 73.1044 240.75C79.5885 235.13 70.3599 239.689 64.9351 242.67C52.5047 245.043 29.8075 248.361 38.4622 242.654C49.2805 235.52 45.879 238.327 48.5728 230.723C51.2665 223.118 25.4715 229.494 38.3593 222.558C41.4141 220.914 42.8374 220.27 43.2316 220.102C42.2247 220.488 35.1099 222.896 35.1366 215.8C35.1688 207.252 50.7693 201.367 58.5656 199.492C54.0338 200.205 47.8477 199.547 59.3582 191.214C73.7464 180.798 74.8057 183.848 90.3471 179.992C102.78 176.908 100.4 174.014 97.6552 172.952L85.3916 172.085C83.0713 171.085 80.8122 167.949 90.3381 163.406C102.246 157.728 108.885 160.882 118.326 159.145C125.88 157.755 122.474 156.246 119.827 155.665C117.506 154.665 112.589 152.085 111.485 149.768C110.103 146.871 120.02 145.302 132.175 143.456Z" fill="url(#paint0_linear_8_2002)"/>
</g>
<g filter="url(#filter1_if_8_2002)">
<path d="M119.424 168.893C129.818 158.881 156.874 161.832 169.102 164.559C179.03 173.782 196.398 193.966 186.444 200.925C174.001 209.623 174.749 203.737 167.669 207.113C160.589 210.489 161.009 222.139 155.538 224.747C150.067 227.356 151.127 230.406 148.32 227.005C145.513 223.603 130.758 236.564 127.862 237.945C124.965 239.326 116.306 241.876 115.722 238.994C115.138 236.113 121.529 235.435 125.941 229.776C130.353 224.117 120.851 229.043 116.286 234.38C111.721 239.717 110.86 234.597 101.646 232.671C92.4326 230.745 103.76 230.478 105.489 223.334C107.217 216.189 116.094 219.066 113.792 214.239C109.597 214.001 100.569 213.514 98.0183 213.466C94.8299 213.406 79.6699 213.92 80.2197 210.103C80.7694 206.286 101.554 203.485 107.961 202.01C113.086 200.83 112.261 199.432 111.209 198.881C109.017 199.531 103.373 200.01 98.3311 196.727C92.0288 192.622 102.807 196.172 116.967 189.42L131.449 182.514C123.11 182.146 109.03 178.906 119.424 168.893Z" fill="url(#paint1_linear_8_2002)"/>
</g>
<rect x="194.919" y="123.418" width="81.2911" height="9.27004" transform="rotate(64.5056 194.919 123.418)" fill="url(#paint2_linear_8_2002)"/>
<rect x="157.739" y="133.249" width="95.5527" height="7.1308" transform="rotate(64.5056 157.739 133.249)" fill="url(#paint3_linear_8_2002)"/>
<path d="M186.555 127.408L221.544 200.783L198.868 219.497L157.74 133.248L186.555 127.408Z" fill="#9597BE"/>
<path d="M300.067 163.338L294.316 215.061L226.412 247.441L234.094 194.798L300.067 163.338Z" fill="url(#paint4_linear_8_2002)"/>
<path d="M265.384 90.6079L221.574 62.5185L153.669 94.8991L199.41 122.068L265.384 90.6079Z" fill="url(#paint5_linear_8_2002)"/>
<path d="M348.179 67.5982C356.402 67.6857 361.17 66.9081 369.211 68.6292C372.296 69.2894 375.887 70.5688 379.166 71.9072C385.166 74.3568 388.219 80.9294 386.187 87.084C385.127 90.2947 383.837 93.6667 382.409 96.306C378.556 103.425 374.851 106.438 369.664 112.653C358.795 125.679 352.25 132.711 339.575 143.987C325.682 156.347 317.419 163.002 301.406 172.458C288.218 180.246 280.574 184.611 266.006 189.339C252.322 193.779 229.834 196.317 229.834 196.317L194.844 122.942C194.844 122.942 211.263 107.559 223.343 99.8717C236.265 91.6491 244.426 88.4296 258.744 82.9908C276.079 76.406 286.286 73.6079 304.586 70.611C321.426 67.853 331.115 67.4167 348.179 67.5982Z" fill="url(#paint6_linear_8_2002)"/>
<path d="M348.255 68.0739C356.477 67.935 361.246 67.3838 369.287 69.1049C372.371 69.7651 375.963 71.0445 379.241 72.3829C385.242 74.8325 388.294 81.4051 386.262 87.5597C385.202 90.7704 383.913 94.1424 382.484 96.7817C378.631 103.901 375.088 107.052 369.74 113.129C365.229 118.255 357.653 126.557 357.653 126.557L351.867 113.752L348.184 106.028L344.193 97.6608L340.203 89.2934L336.674 81.8915L333.451 75.1332L330.152 67.5571C330.152 67.5571 341.378 68.1901 348.255 68.0739Z" fill="url(#paint7_linear_8_2002)"/>
<rect x="276.841" y="126.225" width="5.70464" height="97.692" transform="rotate(64.5056 276.841 126.225)" fill="url(#paint8_linear_8_2002)"/>
<circle cx="310.892" cy="113.147" r="24.9578" transform="rotate(64.5056 310.892 113.147)" fill="#A5A4C2"/>
<circle cx="310.892" cy="113.147" r="20.6793" transform="rotate(64.5056 310.892 113.147)" fill="url(#paint9_radial_8_2002)"/>
<g filter="url(#filter2_df_8_2002)">
<ellipse cx="310.832" cy="107.246" rx="24.9578" ry="23.8882" transform="rotate(64.5056 310.832 107.246)" fill="url(#paint10_linear_8_2002)" fill-opacity="0.5" shape-rendering="crispEdges"/>
</g>
<defs>
<filter id="filter0_if_8_2002" x="33.3043" y="141.588" width="156.942" height="130.919" filterUnits="userSpaceOnUse" color-interpolation-filters="sRGB">
<feFlood flood-opacity="0" result="BackgroundImageFix"/>
<feBlend mode="normal" in="SourceGraphic" in2="BackgroundImageFix" result="shape"/>
<feColorMatrix in="SourceAlpha" type="matrix" values="0 0 0 0 0 0 0 0 0 0 0 0 0 0 0 0 0 0 127 0" result="hardAlpha"/>
<feOffset dy="2.85232"/>
<feGaussianBlur stdDeviation="2.85232"/>
<feComposite in2="hardAlpha" operator="arithmetic" k2="-1" k3="1"/>
<feColorMatrix type="matrix" values="0 0 0 0 0.95 0 0 0 0 0.725818 0 0 0 0 0.150417 0 0 0 1 0"/>
<feBlend mode="normal" in2="shape" result="effect1_innerShadow_8_2002"/>
<feGaussianBlur stdDeviation="0.71308" result="effect2_foregroundBlur_8_2002"/>
</filter>
<filter id="filter1_if_8_2002" x="78.7789" y="160.508" width="112.069" height="82.654" filterUnits="userSpaceOnUse" color-interpolation-filters="sRGB">
<feFlood flood-opacity="0" result="BackgroundImageFix"/>
<feBlend mode="normal" in="SourceGraphic" in2="BackgroundImageFix" result="shape"/>
<feColorMatrix in="SourceAlpha" type="matrix" values="0 0 0 0 0 0 0 0 0 0 0 0 0 0 0 0 0 0 127 0" result="hardAlpha"/>
<feOffset dy="2.85232"/>
<feGaussianBlur stdDeviation="2.85232"/>
<feComposite in2="hardAlpha" operator="arithmetic" k2="-1" k3="1"/>
<feColorMatrix type="matrix" values="0 0 0 0 0.870833 0 0 0 0 0.428346 0 0 0 0 0.275764 0 0 0 1 0"/>
<feBlend mode="normal" in2="shape" result="effect1_innerShadow_8_2002"/>
<feGaussianBlur stdDeviation="0.71308" result="effect2_foregroundBlur_8_2002"/>
</filter>
<filter id="filter2_df_8_2002" x="215.428" y="11.1685" width="190.806" height="192.154" filterUnits="userSpaceOnUse" color-interpolation-filters="sRGB">
<feFlood flood-opacity="0" result="BackgroundImageFix"/>
<feColorMatrix in="SourceAlpha" type="matrix" values="0 0 0 0 0 0 0 0 0 0 0 0 0 0 0 0 0 0 127 0" result="hardAlpha"/>
<feOffset/>
<feGaussianBlur stdDeviation="35.654"/>
<feComposite in2="hardAlpha" operator="out"/>
<feColorMatrix type="matrix" values="0 0 0 0 1 0 0 0 0 0.977333 0 0 0 0 0.933333 0 0 0 0.5 0"/>
<feBlend mode="normal" in2="BackgroundImageFix" result="effect1_dropShadow_8_2002"/>
<feBlend mode="normal" in="SourceGraphic" in2="effect1_dropShadow_8_2002" result="shape"/>
<feGaussianBlur stdDeviation="7.1308" result="effect2_foregroundBlur_8_2002"/>
</filter>
<linearGradient id="paint0_linear_8_2002" x1="173.418" y1="177.761" x2="35.851" y2="243.36" gradientUnits="userSpaceOnUse">
<stop stop-color="#FFDBB0"/>
<stop offset="1" stop-color="#E5C77A"/>
</linearGradient>
<linearGradient id="paint1_linear_8_2002" x1="181.808" y1="175.836" x2="85.5259" y2="221.748" gradientUnits="userSpaceOnUse">
<stop offset="0.260417" stop-color="#D67F61"/>
<stop offset="1" stop-color="#F2B926" stop-opacity="0.5"/>
</linearGradient>
<linearGradient id="paint2_linear_8_2002" x1="235.565" y1="123.418" x2="235.565" y2="132.688" gradientUnits="userSpaceOnUse">
<stop stop-color="#3F5480"/>
<stop offset="1" stop-color="#8A90BD"/>
</linearGradient>
<linearGradient id="paint3_linear_8_2002" x1="205.516" y1="133.249" x2="205.516" y2="140.379" gradientUnits="userSpaceOnUse">
<stop stop-color="#3F5480"/>
<stop offset="1" stop-color="#8A90BD"/>
</linearGradient>
<linearGradient id="paint4_linear_8_2002" x1="309.582" y1="183.291" x2="216.897" y2="227.488" gradientUnits="userSpaceOnUse">
<stop stop-color="#1A3264"/>
<stop offset="0.66672" stop-color="#8A90BD"/>
</linearGradient>
<linearGradient id="paint5_linear_8_2002" x1="255.869" y1="70.6549" x2="163.184" y2="114.852" gradientUnits="userSpaceOnUse">
<stop stop-color="#1A3264"/>
<stop offset="0.716953" stop-color="#8A90BD"/>
</linearGradient>
<linearGradient id="paint6_linear_8_2002" x1="388.852" y1="75.854" x2="212.493" y2="159.952" gradientUnits="userSpaceOnUse">
<stop stop-color="#1D396C"/>
<stop offset="1" stop-color="#9B9EC1"/>
</linearGradient>
<linearGradient id="paint7_linear_8_2002" x1="388.85" y1="76.1688" x2="344.116" y2="97.5001" gradientUnits="userSpaceOnUse">
<stop stop-color="#1A3264"/>
<stop offset="1" stop-color="#8A90BD"/>
</linearGradient>
<linearGradient id="paint8_linear_8_2002" x1="279.693" y1="126.225" x2="279.693" y2="223.917" gradientUnits="userSpaceOnUse">
<stop stop-color="#1A3264"/>
<stop offset="1" stop-color="#8A90BD"/>
</linearGradient>
<radialGradient id="paint9_radial_8_2002" cx="0" cy="0" r="1" gradientUnits="userSpaceOnUse" gradientTransform="translate(310.892 113.147) rotate(90) scale(20.6793)">
<stop offset="0.333333" stop-color="#DBC0C4" stop-opacity="0"/>
<stop offset="1" stop-color="#DBC0C4"/>
</radialGradient>
<linearGradient id="paint10_linear_8_2002" x1="322.742" y1="131.134" x2="295.204" y2="85.3546" gradientUnits="userSpaceOnUse">
<stop stop-color="white"/>
<stop offset="1" stop-color="#D7BEC4"/>
</linearGradient>
</defs>
</svg>
