<svg width="24" height="24" viewBox="0 0 24 24" fill="none" xmlns="http://www.w3.org/2000/svg">
<path d="M13.8313 12.505L17.8028 8.53355C17.9842 8.35218 18.075 8.12784 18.075 7.86537C18.075 7.6029 17.9842 7.37856 17.8028 7.19719C17.6214 7.01583 17.3971 6.925 17.1346 6.925C16.8722 6.925 16.6478 7.01583 16.4665 7.19719L12.4951 11.1685L8.54453 7.19733L8.54439 7.19719C8.36302 7.01583 8.13869 6.925 7.87621 6.925C7.61374 6.925 7.3894 7.01583 7.20804 7.19719C7.02721 7.37802 6.93293 7.60148 6.92545 7.86323C6.91793 8.1264 7.00526 8.35162 7.18719 8.53355L11.1586 12.505L7.20804 16.4556C7.02667 16.637 6.93584 16.8613 6.93584 17.1238C6.93584 17.3863 7.02667 17.6106 7.20804 17.792C7.38841 17.9723 7.60818 18.067 7.86358 18.0745C8.1205 18.0821 8.34208 17.9943 8.52354 17.8128L12.4951 13.8412L16.4665 17.792C16.6478 17.9733 16.8722 18.0642 17.1346 18.0642C17.3971 18.0642 17.6214 17.9733 17.8028 17.792C17.9837 17.6111 18.075 17.3904 18.075 17.1342C18.075 16.878 17.9837 16.6574 17.8028 16.4765L13.8313 12.505Z" fill="white" stroke="white" stroke-width="0.15"/>
</svg>
