<svg width="396" height="361" viewBox="0 0 396 361" fill="none" xmlns="http://www.w3.org/2000/svg">
<mask id="mask0_723_4633" style="mask-type:alpha" maskUnits="userSpaceOnUse" x="19" y="21" width="291" height="321">
<path fill-rule="evenodd" clip-rule="evenodd" d="M32.5963 279.951C7.50085 239.775 22.192 187.235 40.2571 143.408C53.5788 111.09 88.7155 98.5819 116.243 77.0243C142.644 56.3484 162.203 23.9613 195.651 21.7136C233.098 19.1973 273.246 34.3762 294.874 65.0206C315.67 94.485 299.401 132.944 299.619 169.02C299.886 213.283 323.702 261.945 296.274 296.716C266.283 334.738 212.113 344.27 163.803 341.198C113.712 338.013 59.1737 322.5 32.5963 279.951Z" fill="#C4C4C4"/>
</mask>
<g mask="url(#mask0_723_4633)">
<rect x="5.06055" y="10.6307" width="390.939" height="365.369" fill="url(#paint0_linear_723_4633)"/>
<g opacity="0.2">
<path fill-rule="evenodd" clip-rule="evenodd" d="M55.6995 328.678C92.604 333.356 126.301 307.33 130.964 270.548C135.626 233.766 109.489 200.155 72.5848 195.477C35.6803 190.799 1.98336 216.824 -2.6794 253.607C-7.34216 290.389 18.7949 324 55.6995 328.678ZM54.5716 337.575C96.4062 342.878 134.605 313.376 139.89 271.68C145.176 229.984 115.547 191.883 73.7126 186.58C31.8781 181.277 -6.32042 210.779 -11.6061 252.475C-16.8917 294.171 12.737 332.272 54.5716 337.575Z" fill="#C2B9D5"/>
<path d="M51.0885 189.03L61.4396 169.875L89.4474 173.426L94.6915 194.557L51.0885 189.03Z" fill="#C2B9D5"/>
<path d="M48.0432 190.094L59.8577 168.063L91.7497 172.106L97.6932 196.388L48.0432 190.094Z" fill="#C2B9D5"/>
<path d="M108.255 199.803L132.832 194.888L150.012 221.984L135.002 241.988L108.255 199.803Z" fill="#C2B9D5"/>
<path d="M138.761 249.941L159.636 263.798L152.561 295.049L127.747 298.593L138.761 249.941Z" fill="#C2B9D5"/>
<path d="M125.115 304.294L131.78 328.39L105.884 347.353L84.7996 333.816L125.115 304.294Z" fill="#C2B9D5"/>
<path d="M76.9445 335.27L64.4206 356.908L32.6757 351.839L27.5234 327.378L76.9445 335.27Z" fill="#C2B9D5"/>
<path d="M21.4629 322.883L-2.53513 330.093L-22.2072 304.735L-9.16293 283.405L21.4629 322.883Z" fill="#C2B9D5"/>
<path d="M-8.20816 274.127L-30.1805 262.076L-25.7787 230.339L-1.3554 224.718L-8.20816 274.127Z" fill="#C2B9D5"/>
<path d="M2.5066 221.337L-5.15589 197.536L19.9274 177.518L41.5567 190.171L2.5066 221.337Z" fill="#C2B9D5"/>
<path fill-rule="evenodd" clip-rule="evenodd" d="M57.0779 317.804C87.9568 321.718 116.152 299.942 120.053 269.165C123.955 238.388 102.085 210.266 71.2063 206.351C40.3274 202.437 12.1324 224.213 8.23098 254.99C4.32954 285.766 26.1991 313.889 57.0779 317.804ZM54.5716 337.575C96.4062 342.878 134.605 313.376 139.89 271.68C145.176 229.984 115.547 191.883 73.7126 186.58C31.8781 181.277 -6.32042 210.779 -11.6061 252.475C-16.8917 294.171 12.737 332.272 54.5716 337.575Z" fill="#C2B9D5"/>
<path d="M51.0885 189.03L61.4396 169.875L89.4474 173.426L94.6915 194.557L51.0885 189.03Z" fill="#C2B9D5"/>
<path d="M48.0432 190.094L59.8577 168.063L91.7497 172.106L97.6932 196.388L48.0432 190.094Z" fill="#C2B9D5"/>
<path d="M108.255 199.803L132.832 194.888L150.012 221.984L135.002 241.988L108.255 199.803Z" fill="#C2B9D5"/>
<path d="M138.761 249.941L159.636 263.798L152.561 295.049L127.747 298.593L138.761 249.941Z" fill="#C2B9D5"/>
<path d="M125.115 304.294L131.78 328.39L105.884 347.353L84.7996 333.816L125.115 304.294Z" fill="#C2B9D5"/>
<path d="M76.9445 335.27L64.4206 356.908L32.6757 351.839L27.5234 327.378L76.9445 335.27Z" fill="#C2B9D5"/>
<path d="M21.4629 322.883L-2.53513 330.093L-22.2072 304.735L-9.16293 283.405L21.4629 322.883Z" fill="#C2B9D5"/>
<path d="M-8.20816 274.127L-30.1805 262.076L-25.7787 230.339L-1.3554 224.718L-8.20816 274.127Z" fill="#C2B9D5"/>
<path d="M2.5066 221.337L-5.15589 197.536L19.9274 177.518L41.5567 190.171L2.5066 221.337Z" fill="#C2B9D5"/>
<path d="M74.4273 262.575C73.6389 268.795 67.9412 273.195 61.7012 272.404C55.4611 271.613 51.0417 265.93 51.8301 259.711C52.6185 253.491 58.3162 249.091 64.5562 249.882C70.7963 250.673 75.2157 256.356 74.4273 262.575Z" fill="#C2B9D5"/>
</g>
<g opacity="0.6">
<path fill-rule="evenodd" clip-rule="evenodd" d="M122.747 358.24C150.604 358.24 173.186 335.662 173.186 307.811C173.186 279.96 150.604 257.382 122.747 257.382C94.8908 257.382 72.3085 279.96 72.3085 307.811C72.3085 335.662 94.8908 358.24 122.747 358.24ZM122.747 364.976C154.325 364.976 179.924 339.382 179.924 307.811C179.924 276.239 154.325 250.645 122.747 250.645C91.1694 250.645 65.5704 276.239 65.5704 307.811C65.5704 339.382 91.1694 364.976 122.747 364.976Z" fill="#C2B9D5"/>
<path d="M106.171 254.608L112.057 239.356L133.198 239.356L139.084 254.608L106.171 254.608Z" fill="#C2B9D5"/>
<path d="M104.009 255.689L110.711 238.155L134.784 238.155L141.486 255.689L104.009 255.689Z" fill="#C2B9D5"/>
<path d="M149.654 257.236L167.449 251.251L182.764 269.821L173.497 286.146L149.654 257.236Z" fill="#C2B9D5"/>
<path d="M177.038 291.718L193.851 300.072L191.538 324.029L173.438 329.014L177.038 291.718Z" fill="#C2B9D5"/>
<path d="M172.02 333.511L179.24 350.838L161.788 367.416L144.85 359.319L172.02 333.511Z" fill="#C2B9D5"/>
<path d="M139.151 361.145L131.885 378.453L107.824 377.674L101.693 359.933L139.151 361.145Z" fill="#C2B9D5"/>
<path d="M96.7676 357.155L79.6187 364.795L62.6164 347.757L70.2981 330.629L96.7676 357.155Z" fill="#C2B9D5"/>
<path d="M70.1338 323.625L52.6758 316.72L52.957 292.653L70.5716 286.158L70.1338 323.625Z" fill="#C2B9D5"/>
<path d="M73.1222 283.273L65.1884 266.261L81.9374 248.973L99.1973 256.359L73.1222 283.273Z" fill="#C2B9D5"/>
<path fill-rule="evenodd" clip-rule="evenodd" d="M122.747 350.006C146.056 350.006 164.951 331.114 164.951 307.811C164.951 284.507 146.056 265.616 122.747 265.616C99.4391 265.616 80.544 284.507 80.544 307.811C80.544 331.114 99.4391 350.006 122.747 350.006ZM122.747 364.976C154.325 364.976 179.924 339.382 179.924 307.811C179.924 276.239 154.325 250.645 122.747 250.645C91.1694 250.645 65.5704 276.239 65.5704 307.811C65.5704 339.382 91.1694 364.976 122.747 364.976Z" fill="#C2B9D5"/>
<path d="M106.171 254.608L112.057 239.356L133.198 239.356L139.084 254.608L106.171 254.608Z" fill="#C2B9D5"/>
<path d="M104.009 255.689L110.711 238.155L134.784 238.155L141.486 255.689L104.009 255.689Z" fill="#C2B9D5"/>
<path d="M149.654 257.236L167.449 251.251L182.764 269.821L173.497 286.146L149.654 257.236Z" fill="#C2B9D5"/>
<path d="M177.038 291.718L193.851 300.072L191.538 324.029L173.438 329.014L177.038 291.718Z" fill="#C2B9D5"/>
<path d="M172.02 333.511L179.24 350.838L161.788 367.416L144.85 359.319L172.02 333.511Z" fill="#C2B9D5"/>
<path d="M139.151 361.145L131.885 378.453L107.824 377.674L101.693 359.933L139.151 361.145Z" fill="#C2B9D5"/>
<path d="M96.7676 357.155L79.6187 364.795L62.6164 347.757L70.2981 330.629L96.7676 357.155Z" fill="#C2B9D5"/>
<path d="M70.1338 323.625L52.6758 316.72L52.957 292.653L70.5716 286.158L70.1338 323.625Z" fill="#C2B9D5"/>
<path d="M73.1222 283.273L65.1884 266.261L81.9374 248.973L99.1973 256.359L73.1222 283.273Z" fill="#C2B9D5"/>
<path d="M130.435 307.21C130.435 311.919 126.617 315.737 121.907 315.737C117.196 315.737 113.378 311.919 113.378 307.21C113.378 302.501 117.196 298.683 121.907 298.683C126.617 298.683 130.435 302.501 130.435 307.21Z" fill="#C2B9D5"/>
</g>
</g>
<path fill-rule="evenodd" clip-rule="evenodd" d="M15.0804 288.911C-12.8816 244.151 3.46791 185.629 23.5777 136.815C38.4072 100.819 77.5397 86.8948 108.194 62.8887C137.595 39.8642 159.371 3.79276 196.626 1.29776C238.334 -1.49552 283.055 15.4229 307.154 49.564C330.324 82.3902 312.213 125.226 312.465 165.412C312.774 214.717 339.313 268.929 308.773 307.654C275.378 349.999 215.045 360.603 161.236 357.169C105.443 353.608 44.6938 336.314 15.0804 288.911Z" stroke="#F3F6F6" stroke-width="0.894058" stroke-dasharray="17.88 17.88"/>
<path d="M130.309 246.891L136.354 118.787L344.839 102.599L352.005 312.257L130.309 246.891Z" stroke="#F3F6F6" stroke-width="1.78812"/>
<rect x="84.3184" y="211.027" width="70.6845" height="78.9617" transform="rotate(3.38415 84.3184 211.027)" fill="#F3F6F6"/>
<path d="M102.769 206.518L171.553 212.855L154.596 217.925L83.4609 212.361L102.769 206.518Z" fill="#E9E8F5"/>
<path d="M153.761 217.267L171.366 212.734L167.096 284.995L149.557 293.929L153.761 217.267Z" fill="#DAD8ED"/>
<circle cx="118.288" cy="240.189" r="9.98517" fill="#8A90BD"/>
<path d="M97.7246 265.943C99.1503 257.513 101.165 252.346 106.987 247.877C116.284 253.738 120.516 254.351 129.191 248.469C135.808 254.165 135.101 260.163 136.483 268.767L97.7246 265.943Z" fill="#8A90BD"/>
<rect x="313.717" y="254.562" width="70.6845" height="78.9617" transform="rotate(14.233 313.717 254.562)" fill="#F3F6F6"/>
<path d="M330.239 254.085L394.617 272.873L383.517 274.624L313.29 254.085L330.239 254.085Z" fill="#E9E8F5"/>
<path d="M380.742 273.762L395.013 272.68L377.867 342.839L362.183 348.263L380.742 273.762Z" fill="#DAD8ED"/>
<circle cx="341.584" cy="289.593" r="9.98517" transform="rotate(10.8489 341.584 289.593)" fill="#8A90BD"/>
<path d="M316.545 311.02C319.532 303.01 322.483 298.314 329.042 295.021C337.07 302.528 341.111 303.926 350.738 299.781C356.164 306.621 354.341 312.379 354.079 321.09L316.545 311.02Z" fill="#8A90BD"/>
<rect x="92.916" y="65.7915" width="70.6845" height="78.9617" transform="rotate(6.69576 92.916 65.7915)" fill="#F3F6F6"/>
<path d="M162.758 73.8035L179.64 83.0661L171.232 152.498L153.889 152.498L162.758 73.8035Z" fill="#DAD8ED"/>
<circle cx="125.138" cy="96.872" r="9.98517" transform="rotate(3.31161 125.138 96.872)" fill="#8A90BD"/>
<path d="M103.122 121.395C105.033 113.062 107.343 108.02 113.413 103.895C122.356 110.283 126.545 111.139 135.546 105.768C141.822 111.837 140.77 117.784 141.653 126.454L103.122 121.395Z" fill="#8A90BD"/>
<rect x="279.828" y="76.3652" width="70.6845" height="78.9617" transform="rotate(-16.8049 279.828 76.3652)" fill="#F3F6F6"/>
<path d="M347.074 55.8722L359.541 59.2503L379.4 125.525L370.322 131.576L347.074 55.8722Z" fill="#DAD8ED"/>
<circle cx="321.775" cy="92.0198" r="9.98517" transform="rotate(-20.1891 321.775 92.0198)" fill="#8A90BD"/>
<path d="M311.36 123.285C309.789 114.882 309.897 109.336 313.818 103.133C324.567 105.425 328.75 104.54 334.862 96.0248C343.038 99.0877 344.445 104.961 348.711 112.56L311.36 123.285Z" fill="#8A90BD"/>
<defs>
<linearGradient id="paint0_linear_723_4633" x1="91" y1="101.5" x2="274.5" y2="315" gradientUnits="userSpaceOnUse">
<stop stop-color="#908BA5"/>
<stop offset="1" stop-color="#647BA2"/>
</linearGradient>
</defs>
</svg>
