<?xml version="1.0" encoding="utf-8"?>
<!-- Generator: Adobe Illustrator 26.5.3, SVG Export Plug-In . SVG Version: 6.00 Build 0)  -->
<svg version="1.1" id="Layer_1" xmlns="http://www.w3.org/2000/svg" xmlns:xlink="http://www.w3.org/1999/xlink" x="0px" y="0px"
	 viewBox="0 0 403 324.7" style="enable-background:new 0 0 403 324.7;" xml:space="preserve">
<style type="text/css">
	.st0{fill:none;stroke:#F3F6F6;stroke-width:0.8941;stroke-dasharray:17.88,17.88;}
	.st1{fill-rule:evenodd;clip-rule:evenodd;fill:#C4C4C4;filter:url(#Adobe_OpacityMaskFilter);}
	.st2{fill:none;}
	.st3{mask:url(#mask0_101_1268_00000113318101410729902760000007777789420813444255_);}
	.st4{fill-rule:evenodd;clip-rule:evenodd;fill:#C4C4C4;}
	.st5{fill:#F3F6F6;}
	.st6{fill:#605A85;}
	.st7{fill:url(#SVGID_1_);}
	.st8{fill:url(#SVGID_00000171690453376681015190000009599213690033770671_);}
	.st9{fill:url(#SVGID_00000054237425951628893670000006128954275179393958_);}
	.st10{fill:url(#SVGID_00000146498525265823174630000012999591967632529547_);}
	.st11{fill:url(#SVGID_00000057855256698722899180000015053770244694366337_);}
	.st12{fill:#A4A4A4;}
	.st13{opacity:0.8;}
	.st14{fill:#FEFFFB;fill-opacity:0.8;}
	.st15{fill-rule:evenodd;clip-rule:evenodd;fill:url(#SVGID_00000052798906571944562000000018056997435167493774_);}
	.st16{fill:url(#SVGID_00000071554851312341944440000004489565634450810764_);}
	.st17{fill-rule:evenodd;clip-rule:evenodd;fill:url(#SVGID_00000036252317575540792600000011240164697871963054_);}
</style>
<path class="st0" d="M204.8,9.2C253.6,8.3,306.4,4.3,343,36.6c39,34.4,61.9,89.6,52.2,140.7c-8.9,47.1-58.1,70.9-97.5,98.2
	c-31.3,21.7-64.3,40.9-102.4,40c-38.4-0.9-71.2-21-101.3-44.8C56.5,241.1,8.3,213,4.9,165.3c-3.5-49.6,33.8-93,73-123.6
	C113.7,13.8,159.4,10.1,204.8,9.2z"/>
<defs>
	<filter id="Adobe_OpacityMaskFilter" filterUnits="userSpaceOnUse" x="-181" y="-80.4" width="1066.8" height="833.8">
		<feColorMatrix  type="matrix" values="1 0 0 0 0  0 1 0 0 0  0 0 1 0 0  0 0 0 1 0"/>
	</filter>
</defs>
<mask maskUnits="userSpaceOnUse" x="-181" y="-80.4" width="1066.8" height="833.8" id="mask0_101_1268_00000113318101410729902760000007777789420813444255_">
	<path class="st1" d="M204.4,22.7c44.5-0.9,92.6-4.5,126,24.9c35.5,31.4,56.4,81.7,47.6,128.3c-8.1,42.9-52.9,64.6-88.9,89.5
		c-28.6,19.7-58.6,37.3-93.3,36.5c-35-0.8-64.9-19.1-92.3-40.8c-34.2-27-78.2-52.6-81.3-96.1c-3.2-45.2,30.8-84.7,66.6-112.6
		C121.4,26.9,163.1,23.5,204.4,22.7z"/>
	<path class="st2" d="M204.4,22.7c44.5-0.9,92.6-4.5,126,24.9c35.5,31.4,56.4,81.7,47.6,128.3c-8.1,42.9-52.9,64.6-88.9,89.5
		c-28.6,19.7-58.6,37.3-93.3,36.5c-35-0.8-64.9-19.1-92.3-40.8c-34.2-27-78.2-52.6-81.3-96.1c-3.2-45.2,30.8-84.7,66.6-112.6
		C121.4,26.9,163.1,23.5,204.4,22.7z"/>
</mask>
<g class="st3">
	<path class="st4" d="M362.4-78.6C495.1-81.2,638.5-92,738-4.3c105.9,93.5,168.1,243.4,141.8,382.2
		C855.6,505.9,722.1,570.5,615,644.5c-85.1,58.8-174.7,111.1-278.1,108.7c-104.2-2.4-193.3-57.1-275.2-121.6
		c-102-80.5-233-156.7-242.2-286.3C-189.9,210.6-88.5,92.9,18,9.7C115.1-66.2,239.2-76.2,362.4-78.6z"/>
	<path class="st2" d="M362.4-78.6C495.1-81.2,638.5-92,738-4.3c105.9,93.5,168.1,243.4,141.8,382.2
		C855.6,505.9,722.1,570.5,615,644.5c-85.1,58.8-174.7,111.1-278.1,108.7c-104.2-2.4-193.3-57.1-275.2-121.6
		c-102-80.5-233-156.7-242.2-286.3C-189.9,210.6-88.5,92.9,18,9.7C115.1-66.2,239.2-76.2,362.4-78.6z"/>
	<g>
		<circle class="st5" cx="319.1" cy="123.6" r="6.8"/>
	</g>
	<path class="st6" d="M186.6,229.8c-11.1-5.5-20.3-41.4-17.3-36.7c2.9,4.7,4.3,5.9,6.5,7.3c3.1,2,3.2,2.5,6.8,3.1
		c9.7,1.6,18.7,1.7,28.6,0.8c8.8-0.8,17.8,0,26.7-0.6c9.2-0.6,18.7-1.1,28-2c10.2-0.9,20.3-3.1,30.5-4c4.9-0.5,9.5-2.1,14.4-2.6
		c2.6-0.2,10.1-2.9,12.4-1.4c2.3,1.5,3.2,6.5,4.5,8.8c3.1,5.1,6.7,9.6,9.9,14.7c2.6,4.2,5.5,8.2,9.3,11.4c3.7,3.1,8.2,5.5,11.3,9.2
		c1,1.3,7.6,5.2,5.8,5.8c-2,0.7-4.5,1.1-7.6,2.2c-3.1,1.1-16.5,5.5-24.9,8.1c-9.5,3-19.3,5-28.9,7.6c-6.7,1.8-14.6,3.2-21.5,2.7
		c-11.2-0.8-24.2-1.2-31.7-11.4c-7.5-10.2-8.3-24.6-8.4-36.8c0-1.4,2.2-9.2,0.2-7.3c-4.8,4.5-10,8.2-15.5,11.8
		C214,228.2,198.3,233,186.6,229.8z"/>
	<path class="st6" d="M365.1,255.6c0.5-2.4-0.1-9.9-1.1-12.1c-0.7,3.1-9.4,7-14.2,8.6c-4.8,1.6-11.5,4.5-18.5,6
		c-7,1.5-27.9,8.4-42.2,9.7c-13.8,1.3-30.6,2-40.9,2.3c-10.3,0.3-17.8,1.7-26.7,2.5c-3.2,0.3-13.7,0.2-16.9-0.3
		c0.9,2.1,2.4,9.7,0.3,10.9c8.7-3.2,20.1-1.5,29.1-2.6c24.4-3,48.8-4.2,73-8.9c15.2-2.9,28.8-6.7,43.6-11.1
		C352,260.2,364.7,257.7,365.1,255.6z"/>
	<path class="st6" d="M197.3,277.4c3.4,2.8,6.3,6.3,7.2,5.9c0.1,0,0.2-0.1,0.3-0.1c2.1-1.2,0.6-8.8-0.3-10.9
		c-8.7-7.3-13.7-14.8-20.5-23.7c-4-5.2-9.2-12.7-14.1-17.2c-2.4-2.2-3.9-5.7-5.8-8.4c-1-1.4-4.9-6.5-5-7.8c-1.5,3.4-1.5,4.1-2.2,5.8
		c-0.7,1.6-2.7,4.4-2.4,5.4c0.3,1,2.2,3.8,3.4,5.3c1.1,1.5,5.1,5.1,7.1,8.4c6.3,9.9,12.8,19.6,20.8,28.3
		C189.6,272.4,193.9,274.6,197.3,277.4z"/>
	
		<linearGradient id="SVGID_1_" gradientUnits="userSpaceOnUse" x1="229.6893" y1="148.3903" x2="283.2133" y2="61.2113" gradientTransform="matrix(1 0 0 -1 0 312.3478)">
		<stop  offset="0" style="stop-color:#FCE6D5"/>
		<stop  offset="1" style="stop-color:#A9BADA;stop-opacity:7.000000e-02"/>
	</linearGradient>
	<path class="st7" d="M186.6,229.8c-11.1-5.5-20.3-41.4-17.3-36.7c2.9,4.7,4.3,5.9,6.5,7.3c3.1,2,3.2,2.5,6.8,3.1
		c9.7,1.6,18.7,1.7,28.6,0.8c8.8-0.8,17.8,0,26.7-0.6c9.2-0.6,18.7-1.1,28-2c10.2-0.9,20.3-3.1,30.5-4c4.9-0.5,9.5-2.1,14.4-2.6
		c2.6-0.2,10.1-2.9,12.4-1.4c2.3,1.5,3.2,6.5,4.5,8.8c3.1,5.1,6.7,9.6,9.9,14.7c2.6,4.2,5.5,8.2,9.3,11.4c3.7,3.1,8.2,5.5,11.3,9.2
		c1,1.3,7.6,5.2,5.8,5.8c-2,0.7-4.5,1.1-7.6,2.2c-3.1,1.1-16.5,5.5-24.9,8.1c-9.5,3-19.3,5-28.9,7.6c-6.7,1.8-14.6,3.2-21.5,2.7
		c-11.2-0.8-24.2-1.2-31.7-11.4c-7.5-10.2-8.3-24.6-8.4-36.8c0-1.4,2.2-9.2,0.2-7.3c-4.8,4.5-10,8.2-15.5,11.8
		C214,228.2,198.3,233,186.6,229.8z"/>
	
		<linearGradient id="SVGID_00000011751915649250257170000006616264625042405268_" gradientUnits="userSpaceOnUse" x1="155.1454" y1="102.6237" x2="208.6694" y2="15.4447" gradientTransform="matrix(1 0 0 -1 0 312.3478)">
		<stop  offset="0" style="stop-color:#FCE6D5"/>
		<stop  offset="1" style="stop-color:#A9BADA;stop-opacity:7.000000e-02"/>
	</linearGradient>
	<path style="fill:url(#SVGID_00000011751915649250257170000006616264625042405268_);" d="M204.5,283.4c0.1,0,0.2-0.1,0.3-0.1
		c2.1-1.2,0.6-8.8-0.3-10.9c-8.7-7.3-13.7-14.8-20.5-23.7c-4-5.2-9.2-12.7-14.1-17.2c-2.4-2.2-3.9-5.7-5.8-8.4c-1-1.4-4.9-6.5-5-7.8
		c-1.5,3.4-1.5,4.1-2.2,5.8c-0.7,1.6-2.7,4.4-2.4,5.4c0.3,1,2.2,3.8,3.4,5.3c1.1,1.5,5.1,5.1,7.1,8.4c6.3,9.9,12.8,19.6,20.8,28.3
		c3.8,4.1,8.1,6.3,11.5,9.1C200.6,280.2,203.6,283.7,204.5,283.4z"/>
	
		<linearGradient id="SVGID_00000096772629545705355460000008962742693142428075_" gradientUnits="userSpaceOnUse" x1="156.1443" y1="101.8094" x2="309.3273" y2="45.1504" gradientTransform="matrix(1 0 0 -1 0 312.3478)">
		<stop  offset="0" style="stop-color:#FFF5ED"/>
		<stop  offset="1" style="stop-color:#A991C1"/>
	</linearGradient>
	<path style="fill:url(#SVGID_00000096772629545705355460000008962742693142428075_);" d="M186.6,229.8c-4.3-2.1-8.2-8.7-11.4-15.8
		c-0.1-0.2-0.3-0.3-0.4-0.5c-2,1.2-15.7,0.2-15.6,1.6c0.1,1.3,3.9,6.4,5,7.8c1.9,2.7,3.4,6.1,5.8,8.4c4.9,4.5,10.1,12,14.1,17.2
		c6.9,9,11.8,16.5,20.5,23.7c3.2,0.5,13.7,0.6,16.9,0.3c8.9-0.8,16.4-2.2,26.7-2.5c10.3-0.3,27.1-1,40.9-2.3
		c14.3-1.3,35.1-8.2,42.2-9.7c7-1.5,13.7-4.4,18.5-6c4.8-1.6,13.5-5.5,14.2-8.6c-6.7,2.2-12.9,4.2-18.8,5.9
		c-4.6,1.5-9.7,3.1-13.7,4.4c-9.5,3-19.3,5-28.9,7.6c-6.7,1.8-14.6,3.2-21.5,2.7c-17.4-0.2-14.6-0.2-24.4-1.6
		c-8.9-1.9-7.8-1.2-16.1-4.2c-8.3-3.1-9.6-4.5-22.7-9.7C204.8,243.5,199.1,237.5,186.6,229.8z"/>
	
		<linearGradient id="SVGID_00000124136942572891462980000006785902658009139336_" gradientUnits="userSpaceOnUse" x1="220.4303" y1="39.7291" x2="248.5163" y2="93.361" gradientTransform="matrix(1 0 0 -1 0 312.3478)">
		<stop  offset="0" style="stop-color:#5D4779"/>
		<stop  offset="1" style="stop-color:#EEBBB8"/>
	</linearGradient>
	<path style="fill:url(#SVGID_00000124136942572891462980000006785902658009139336_);" d="M225.7,220.4
		c-11.7,7.8-27.5,12.6-39.1,9.4c12.5,7.6,18.2,13.6,31.3,18.8c13.1,5.2,14.4,6.6,22.7,9.7c8.3,3.1,7.2,2.3,16.1,4.2
		c9.9,1.4,7,1.4,24.4,1.6c-11.2-0.8-24.2-1.2-31.7-11.4c-7.5-10.2-8.3-24.6-8.4-36.8c0-1.4,2.2-9.2,0.2-7.3
		C236.4,213.1,231.2,216.8,225.7,220.4z"/>
	
		<radialGradient id="SVGID_00000120541089176435895040000005556336611988822713_" cx="-766.0502" cy="698.9831" r="1" gradientTransform="matrix(-87.5241 92.0605 204.2325 194.1687 -209483.5156 -65018.4492)" gradientUnits="userSpaceOnUse">
		<stop  offset="0" style="stop-color:#FFF9F0"/>
		<stop  offset="1" style="stop-color:#FFDDD6"/>
	</radialGradient>
	<path style="fill:url(#SVGID_00000120541089176435895040000005556336611988822713_);" d="M169.3,193.2c-2.9-4.7,6.2,31.2,17.3,36.7
		c11.7,3.2,27.4-1.6,39.1-9.4c5.5-3.6,10.7-7.3,15.5-11.8c2-1.9-0.2,5.9-0.2,7.3c0.1,12.1,0.9,26.5,8.4,36.8
		c7.5,10.3,20.5,10.6,31.7,11.4c6.9,0.5,14.8-0.9,21.5-2.7c9.6-2.6,19.4-4.6,28.9-7.6c8.4-2.7,21.8-7,24.9-8.1
		c3.1-1.1,5.5-1.5,7.6-2.2c1.7-0.6-4.8-4.5-5.8-5.8c-3.1-3.8-7.5-6.1-11.3-9.2c-2.4-2-4.4-4.4-6.3-6.9c-1.1-1.5-2-3-3-4.5
		c-1.6-2.5-3.3-4.9-5-7.3c-0.8-1.1-1.6-2.3-2.4-3.5c-0.9-1.3-1.7-2.6-2.5-3.9c-0.6-0.9-1-2.3-1.6-3.8c-0.8-2-1.6-4.2-2.9-5
		c-2.3-1.5-9.8,1.2-12.4,1.4c-4.9,0.5-9.5,2.1-14.4,2.6c-10.2,0.9-20.2,3.1-30.5,4c-9.3,0.9-18.8,1.3-28,2
		c-8.9,0.6-17.9-0.2-26.7,0.6c-9.9,0.9-18.8,0.8-28.6-0.8c-3.6-0.6-3.7-1.2-6.8-3.1C173.6,199.1,172.2,197.9,169.3,193.2z"/>
	<path class="st12" d="M326.6,215.1c-1.1,0.4-3-0.3-3.6-1c-0.6-0.7,0.5-1.7,1.1-2c0.7-0.3,2.1-0.6,2.7-0.3c0.6,0.3,1.5,0.7,1.4,1.7
		C328.3,214.4,327.7,214.6,326.6,215.1L326.6,215.1z"/>
	<path class="st12" d="M328,220.4c0.6-0.5,2.6-0.8,3.5-0.4c1,0.3,1.6,2.4,1,3c-0.6,0.6-2.3,0.5-3,0.4c-0.7-0.1-1.6-0.3-2-0.8
		C327.2,221.9,327.4,220.9,328,220.4z"/>
	<path class="st12" d="M335,227.8c0.6-0.2,1.9-0.6,2.4,0.2c0.5,0.8,0.5,2.3-0.3,3c-0.8,0.6-3.2,0.4-3.9-0.3
		c-0.7-0.7-0.1-1.6,0.2-1.9C333.6,228.4,334.5,228,335,227.8z"/>
	<g class="st13">
		<ellipse class="st14" cx="142.3" cy="304.8" rx="106.3" ry="16.7"/>
		<ellipse class="st14" cx="61.9" cy="284" rx="38.5" ry="30.6"/>
		<ellipse class="st14" cx="114.5" cy="253.3" rx="47.7" ry="44.3"/>
		<ellipse class="st14" cx="227.1" cy="278.8" rx="37.6" ry="35"/>
		<ellipse class="st14" cx="168" cy="268.8" rx="32.7" ry="30.6"/>
		<ellipse class="st14" cx="236.7" cy="247.5" rx="11.9" ry="9.3"/>
		<ellipse class="st14" cx="61.9" cy="246.6" rx="17.5" ry="15"/>
	</g>
</g>
<linearGradient id="SVGID_00000138547400224619424770000017419641521591961765_" gradientUnits="userSpaceOnUse" x1="155.0094" y1="258.6437" x2="109.7296" y2="187.2487" gradientTransform="matrix(1 0 0 -1 0 312.3478)">
	<stop  offset="0" style="stop-color:#FFFFFF"/>
	<stop  offset="1" style="stop-color:#F2E5D9"/>
</linearGradient>
<path style="fill-rule:evenodd;clip-rule:evenodd;fill:url(#SVGID_00000138547400224619424770000017419641521591961765_);" d="
	M180.4,141.4l3.8-1.2C183,140.7,181.7,141.1,180.4,141.4z M52.9,82.1c0,0,11.9,10.6,24.5,20.6C67,95.7,56,85.2,52.9,82.1z"/>
<linearGradient id="SVGID_00000177472389242950662730000005233690529973098631_" gradientUnits="userSpaceOnUse" x1="147.2101" y1="217.0633" x2="101.2358" y2="149.7952" gradientTransform="matrix(1 0 0 -1 0 312.3478)">
	<stop  offset="0" style="stop-color:#CF8B5A"/>
	<stop  offset="1.000000e-04" style="stop-color:#E5B999"/>
	<stop  offset="1" style="stop-color:#592F68"/>
</linearGradient>
<path style="fill:url(#SVGID_00000177472389242950662730000005233690529973098631_);" d="M167.7,141.5c-6-2.6-8.9-7.5-10.6-13.7
	c-0.9-3.3,0.3-7.5,2-10.3c0.1-0.2,0.5-0.7,1-1.3c1.4-1.7,3.4-4.2,2-3.5c-10.5,5.5-20.6,6.1-33.1,5.6c-14.6-0.5-30.3-4.6-43.7-11
	c-2.5-1.2-5.2-2.8-8-4.7c8.6,6.9,17.6,13.5,23.1,16.2c7.8,3.8,22,10.8,28.3,13.6c6.3,2.9,13.9,5.6,20.3,7.9
	c14.9,5.4,27.3,2.1,31.4,0.9C176,142.6,171.3,143,167.7,141.5z"/>
<linearGradient id="SVGID_00000062908633462672501500000008720112164612922548_" gradientUnits="userSpaceOnUse" x1="136.7136" y1="280.3273" x2="64.2263" y2="183.1211" gradientTransform="matrix(1 0 0 -1 0 312.3478)">
	<stop  offset="0" style="stop-color:#FFFFFF"/>
	<stop  offset="1" style="stop-color:#D9A59E"/>
</linearGradient>
<path style="fill-rule:evenodd;clip-rule:evenodd;fill:url(#SVGID_00000062908633462672501500000008720112164612922548_);" d="
	M57.9,16.2c10.8,0.6,20.7,1.1,26.5,1.3c1.4,0,2.8,0,4.2,0c4.4,0,8.7,0,10.2,0.7c1.2,0.5,2.3,2.2,3.6,4.4c1,1.6,2.1,3.5,3.5,5.2
	c3.3,4,11.1,12.8,16.7,19.1c0.6,0.7,1.3,1.5,2,2.3c6.7,7.6,15.8,17.8,26.7,24.8c9.4,5.9,18,10.4,28.4,15.8c3,1.5,6.1,3.1,9.4,4.9
	c7.1,3.7,15,6.8,21.1,9.1c6.8,2.6,11.5,4.4,10.8,5.5c-1.3,2.1-8,8.9-12.8,13.6c-0.7,0.7-1.4,1.4-2.2,2.1c-4.5,4.3-9.8,9.5-13.4,11.6
	c-1.7,1-4.8,2.6-8.4,3.8c-1.2,0.4-2.5,0.8-3.8,1.2c-4.4,1.1-9.1,1.6-12.7,0c-6-2.6-8.9-7.5-10.6-13.7c-0.9-3.3,0.3-7.5,2-10.3
	c0.1-0.2,0.5-0.7,1-1.3c1.4-1.7,3.4-4.2,2-3.5c-10.5,5.5-20.6,6.1-33.1,5.6c-14.6-0.5-30.3-4.6-43.7-11c-2.5-1.2-5.2-2.8-8-4.7
	C67,95.7,56,85.2,52.9,82.1c-0.5-0.5-1.1-1.1-1.7-1.7c-3.9-3.8-9.4-9.3-15.8-18.5C28.6,52,22.1,42.6,15.7,32.4
	c-0.7-1.1-1.7-2.5-2.8-4C9,23.2,4.2,16.7,8,15C11.3,13.6,36.4,15,57.9,16.2z M47.7,22.4c1.7-1.1,3.8-1.4,4.6-0.6
	c0.8,0.8,1,2.4,0,3.9c-1,1.6-2.2,1.8-3.9,0.9C47.2,25.9,46,23.5,47.7,22.4z M65.1,23.5c-0.1-0.1-0.3-0.1-0.5-0.2
	c-0.8-0.4-2.1-1.1-3.4-0.3c-1.9,1.3-1.7,3.7,0.4,4.6c1.5,0.7,4.6-0.5,4.9-2.3C66.8,24.5,65.9,23.8,65.1,23.5z M73.8,23.3
	c0.6-0.5,2.8-1,3.9-0.3c1.1,0.7,2.8,2.1,1.6,3.2c-0.8,0.7-3.5,1.2-4.5,1C73.3,26.8,72.4,24.4,73.8,23.3z"/>
</svg>
