<?xml version="1.0" encoding="utf-8"?>
<!-- Generator: Adobe Illustrator 27.5.0, SVG Export Plug-In . SVG Version: 6.00 Build 0)  -->
<svg version="1.1" id="Layer_1" xmlns="http://www.w3.org/2000/svg"
    xmlns:xlink="http://www.w3.org/1999/xlink" x="0px" y="0px"
    viewBox="0 0 502 136.5" style="enable-background:new 0 0 502 136.5;" xml:space="preserve">
<style type="text/css">
	
		.st0{opacity:0.4;fill:none;stroke:url(#SVGID_1_);stroke-width:2;stroke-linejoin:round;stroke-dasharray:6,8;enable-background:new    ;}
	.st1{fill:url(#SVGID_00000003826172830734473160000017291761073155386041_);}
	.st2{fill:url(#SVGID_00000117658457735487648540000004040712944915524785_);}
	.st3{fill:url(#SVGID_00000003803457812831912460000009165656012259618994_);}
	.st4{fill:url(#SVGID_00000030480034644616824400000010858959276170149031_);}
	.st5{fill:url(#SVGID_00000140003120718252758440000006904511627541622178_);}
	.st6{fill:url(#SVGID_00000171677923587195952360000014142915461149235587_);}
</style>
<g>
	
		<linearGradient id="SVGID_1_" gradientUnits="userSpaceOnUse" x1="383.4158" y1="209.6035" x2="11.3105" y2="257.8235" gradientTransform="matrix(1 0 0 -1 0 318)">
		<stop  offset="0" style="stop-color:#F3F6F6"/>
		<stop  offset="1" style="stop-color:#E1C2AC;stop-opacity:0"/>
	</linearGradient>
	<path class="st0" d="M382.4,79.1c-79.1-18.1-113.3,27.6-168.7,45.8c-32.1,10.5-132,15.2-174.9-40.2C-4,29.4,6.3,6.8,5.6,5"/>
	
		<linearGradient id="SVGID_00000052064779193580461920000013433696067253272747_" gradientUnits="userSpaceOnUse" x1="494.8006" y1="289.7593" x2="365.3046" y2="242.2263" gradientTransform="matrix(1 0 0 -1 0 318)">
		<stop  offset="0" style="stop-color:#FFDCD5"/>
		<stop  offset="1" style="stop-color:#CACEF1"/>
	</linearGradient>
	<path style="fill:url(#SVGID_00000052064779193580461920000013433696067253272747_);" d="M368.1,47c0.4-1.8,124.6,7,128.9,8.1
		l-110.3,8.2C386.7,63.4,367.7,48.8,368.1,47z"/>
	
		<linearGradient id="SVGID_00000157308283870969278890000002315868340428226980_" gradientUnits="userSpaceOnUse" x1="494.8006" y1="289.7593" x2="365.3046" y2="242.2263" gradientTransform="matrix(1 0 0 -1 0 318)">
		<stop  offset="0" style="stop-color:#FFDCD5"/>
		<stop  offset="1" style="stop-color:#CACEF1"/>
	</linearGradient>
	<path style="fill:url(#SVGID_00000157308283870969278890000002315868340428226980_);" d="M368.1,47c0.4-1.8,124.6,7,128.9,8.1
		l-110.3,8.2C386.7,63.4,367.7,48.8,368.1,47z"/>
	
		<linearGradient id="SVGID_00000065791154754979345250000013700728327481481380_" gradientUnits="userSpaceOnUse" x1="504.1451" y1="264.3018" x2="374.649" y2="216.7688" gradientTransform="matrix(1 0 0 -1 0 318)">
		<stop  offset="0" style="stop-color:#FFDCD5"/>
		<stop  offset="1" style="stop-color:#CACEF1"/>
	</linearGradient>
	<path style="fill:url(#SVGID_00000065791154754979345250000013700728327481481380_);" d="M497,55.2c-23.9,16.8-61.8,40.2-62.8,42
		c0,0-9.2-7.1-14.3-11.6c-5.9-4.5-18.7-11.9-18.7-11.9S494.2,56.8,497,55.2z"/>
	
		<linearGradient id="SVGID_00000090293692220272235920000011915015775715290004_" gradientUnits="userSpaceOnUse" x1="504.1451" y1="264.3018" x2="374.649" y2="216.7688" gradientTransform="matrix(1 0 0 -1 0 318)">
		<stop  offset="0" style="stop-color:#FFDCD5"/>
		<stop  offset="1" style="stop-color:#CACEF1"/>
	</linearGradient>
	<path style="fill:url(#SVGID_00000090293692220272235920000011915015775715290004_);" d="M497,55.2c-23.9,16.8-61.8,40.2-62.8,42
		c0,0-9.2-7.1-14.3-11.6c-5.9-4.5-18.7-11.9-18.7-11.9S494.2,56.8,497,55.2z"/>
	
		<linearGradient id="SVGID_00000160177014892293477670000008898263228233785265_" gradientUnits="userSpaceOnUse" x1="448.9684" y1="271.7135" x2="411.6954" y2="203.5835" gradientTransform="matrix(1 0 0 -1 0 318)">
		<stop  offset="0" style="stop-color:#F1CDCD"/>
		<stop  offset="0.4282" style="stop-color:#E1BBBB"/>
		<stop  offset="1" style="stop-color:#51486C"/>
	</linearGradient>
	<path style="fill:url(#SVGID_00000160177014892293477670000008898263228233785265_);" d="M497,55.2c-2.8,1.7-95.7,18.5-95.7,18.5
		c-2.1,3.4-4.5,22.4-4.5,22.4c-2.1-1.1-7.9-28.6-10.1-32.7L497,55.2z"/>
	
		<linearGradient id="SVGID_00000055696217672903541120000013537931789807326085_" gradientUnits="userSpaceOnUse" x1="397.0386" y1="244.4339" x2="415.1466" y2="216.9349" gradientTransform="matrix(1 0 0 -1 0 318)">
		<stop  offset="0" style="stop-color:#6A4B78"/>
		<stop  offset="1" style="stop-color:#FFFBEB"/>
	</linearGradient>
	<path style="fill:url(#SVGID_00000055696217672903541120000013537931789807326085_);" d="M396.8,96c0,0,2.4-19,4.5-22.4
		c0,0,12.8,7.3,18.7,11.9C420,85.5,399.2,96.6,396.8,96z"/>
</g>
</svg>
