<svg viewBox="0 0 1920 909" fill="none" xmlns="http://www.w3.org/2000/svg">
<path d="M176.862 407.896C176.862 407.896 140.639 433.207 107.931 455.53C67.0452 483.43 13.3203 478.67 -37.7424 480.3C-78.5925 481.61 -116.092 536.31 -131.466 573.63" stroke="url(#paint0_linear_106_124)" stroke-width="5.07821" stroke-dasharray="10.16 10.16"/>
<path d="M179.405 434.418C179.405 434.418 143.471 459.12 110.763 481.44C69.8775 509.34 20.3156 524.34 -30.747 525.97C-71.5971 527.28 -113.26 562.22 -128.633 599.54" stroke="url(#paint1_linear_106_124)" stroke-width="5.07821" stroke-dasharray="10.16 10.16"/>
<path d="M195.253 453.27C195.253 453.27 162.446 480.65 132.572 505.41C95.2288 536.37 48.5065 554.48 -0.698425 558.9C-40.0624 562.44 -77.6123 600.69 -89.5807 639.98" stroke="url(#paint2_linear_106_124)" stroke-width="5.07821" stroke-dasharray="10.16 10.16"/>
<path d="M123.84 344.548C118.138 346.566 110.576 351.764 107.649 356.972C104.722 362.18 109.068 366.726 111.781 368.933C114.494 371.14 117.818 371.826 123.22 371.821C128.622 371.817 429.579 320.753 441.249 315.273C452.919 309.792 466.126 298.372 469.151 293.98C472.175 289.587 472.233 286.566 465.748 285.046C459.264 283.526 129.542 342.531 123.84 344.548Z" fill="url(#paint3_linear_106_124)"/>
<path d="M198.884 385.324C201.478 386.008 210.187 394.323 214.501 397.118C218.815 399.912 230.728 407.964 230.566 406.22C230.404 404.476 291.798 354.905 290.505 357.232C289.212 359.559 281.865 369.886 283.142 369.659C284.419 369.432 326.633 328.751 330.607 330.016C334.58 331.281 363.43 369.407 363.296 372.288C363.162 375.169 351.778 391.878 335.357 403.027C318.936 414.176 236.209 438.88 234.29 439.611C232.37 440.342 231.118 445.062 228.978 447.469C226.838 449.875 217.209 452.022 215.241 450.404C213.273 448.787 184.856 406.639 184.171 401.386C183.486 396.133 196.289 384.639 198.884 385.324Z" fill="url(#paint4_linear_106_124)"/>
<path d="M435.792 361.794L354.879 337.413L355.181 338.828L432.255 362.55L435.792 361.794Z" fill="#413F4E"/>
<path d="M365.114 355.924L409.119 310.745L410.474 310.456L365.729 358.803L365.114 355.924Z" fill="#413F4E"/>
<path d="M422.34 299.227L417.563 308.735L426.328 364.146L433.461 363.232L422.34 299.227Z" fill="url(#paint5_linear_106_124)"/>
<path d="M412.315 366.309L405.625 320.515L409.975 315.872L418.081 365.077L412.315 366.309Z" fill="url(#paint6_linear_106_124)"/>
<path d="M180.975 342.858L176.351 352.009L185.941 391.204L190.312 409.753L195.055 408.74L180.975 342.858Z" fill="url(#paint7_linear_106_124)"/>
<path d="M175.578 412.902L164.864 362.771L168.414 358L178.796 412.214L175.578 412.902Z" fill="url(#paint8_linear_106_124)"/>
<path d="M194.828 409.099L191.101 409.896L251.392 344.455L253.463 344.012L194.828 409.099Z" fill="#413F4E"/>
<path d="M145.629 417.646C140.277 419.468 133.108 423.803 130.245 427.913C127.381 432.023 131.292 435.264 133.751 436.807C136.211 438.35 139.279 438.704 144.297 438.43C149.316 438.155 430.306 384.175 441.299 379.418C452.292 374.662 464.877 365.309 467.809 361.814C470.74 358.319 470.877 356.018 464.896 355.188C458.914 354.357 150.982 415.824 145.629 417.646Z" fill="url(#paint9_linear_106_124)"/>
<path d="M366.013 346.449C371.83 360.878 367.035 374.012 355.805 378.539C344.574 383.067 331.381 375.491 325.564 361.062C319.747 346.633 323.187 331.811 334.418 327.283C345.649 322.756 360.196 332.021 366.013 346.449Z" fill="#DEBF9A"/>
<path d="M363.966 345.575C369.289 358.434 365.39 372.258 355.258 376.453C345.126 380.647 333.451 373.123 328.128 360.264C322.805 347.405 325.848 334.08 335.981 329.886C346.113 325.691 358.642 332.715 363.966 345.575Z" fill="url(#paint10_radial_106_124)"/>
<path d="M410.759 365.65L358.803 326.394L357.109 326.756L408.557 366.121L410.759 365.65Z" fill="#413F4E"/>
<path d="M261.39 381.102L191.207 357.317L191.533 358.841L259.503 381.506L261.39 381.102Z" fill="#413F4E"/>
<path d="M277.962 368.647L202.559 338.896L201.145 339.198L275.385 370.431L277.962 368.647Z" fill="#413F4E"/>
<path d="M296.442 363.668L265.045 339.061L260.666 338.764L295.397 365.124L296.442 363.668Z" fill="#413F4E"/>
<path d="M283.579 333.275L280.143 334.009L305.079 357.478L304.392 354.261L283.579 333.275Z" fill="#413F4E"/>
<path d="M390.043 419.202C391.521 426.118 389.45 432.422 385.418 433.284C381.386 434.146 376.919 429.238 375.441 422.323C373.963 415.407 375.63 409.653 380.141 408.026C384.173 407.165 388.565 412.286 390.043 419.202Z" fill="#564F69"/>
<path d="M390.043 419.202C391.521 426.118 389.45 432.422 385.418 433.284C388.255 432.885 388.862 432.789 392.719 431.724C396.576 430.659 398.822 424.557 397.344 417.642C395.866 410.726 392.421 406.601 388.087 406.526C385.282 406.362 383.413 406.507 380.141 408.026C384.173 407.165 388.565 412.286 390.043 419.202Z" fill="url(#paint11_linear_106_124)"/>
<path d="M387.595 419.725C388.722 424.998 387.143 429.806 384.069 430.463C380.994 431.12 378.143 427.472 377.016 422.199C375.889 416.925 376.913 412.024 379.987 411.367C383.062 410.709 386.468 414.452 387.595 419.725Z" fill="#6D6F87"/>
<path d="M381.387 425.077L360.811 390.765L365.198 385.074L379.808 417.689L381.387 425.077Z" fill="url(#paint12_linear_106_124)"/>
<path d="M306.454 430.411L309.194 403.496L314.884 396.37L311.735 443.393L306.454 430.411Z" fill="url(#paint13_linear_106_124)"/>
<path d="M306.277 438.431C307.755 445.347 305.685 451.652 301.653 452.514C297.62 453.375 293.154 448.468 291.676 441.552C290.198 434.636 291.864 428.883 296.375 427.256C300.407 426.394 304.799 431.516 306.277 438.431Z" fill="#564F69"/>
<path d="M306.277 438.431C307.755 445.347 305.685 451.652 301.653 452.514C304.489 452.114 305.096 452.019 308.953 450.953C312.811 449.888 315.056 443.787 313.578 436.871C312.1 429.955 308.655 425.831 304.321 425.756C301.516 425.592 299.647 425.736 296.375 427.256C300.407 426.394 304.799 431.516 306.277 438.431Z" fill="url(#paint14_linear_106_124)"/>
<path d="M303.829 438.955C304.956 444.228 303.378 449.036 300.303 449.693C297.228 450.35 294.377 446.701 293.25 441.428C292.123 436.155 293.147 431.253 296.222 430.596C299.296 429.939 302.702 433.681 303.829 438.955Z" fill="#6D6F87"/>
<path d="M336.824 331.091L341.241 346.893L344.428 344.771L336.824 331.091Z" fill="#909090"/>
<path d="M347 331.257L345.588 344.523L348.949 345.245L347 331.257Z" fill="#909090"/>
<path d="M355.775 337.844L349.658 345.724L351.739 348.16L355.775 337.844Z" fill="#909090"/>
<path d="M361.851 345.999L352.503 349.707L353.074 352.376L361.851 345.999Z" fill="#909090"/>
<path d="M364.243 357.192L353.239 353.151L353.414 355.995L364.243 357.192Z" fill="#909090"/>
<path d="M362.27 368.237L352.52 357.086L351.23 359.973L362.27 368.237Z" fill="#909090"/>
<path d="M356.384 375.167L350.65 360.097L348.587 360.988L356.384 375.167Z" fill="#909090"/>
<path d="M346.318 375.517L347.832 360.699L345.953 360.02L346.318 375.517Z" fill="#909090"/>
<path d="M338.4 370.097L345.244 359.541L343.633 358.085L338.4 370.097Z" fill="#909090"/>
<path d="M330.04 360.99L342.915 357.158L341.055 354.945L330.04 360.99Z" fill="#909090"/>
<path d="M326.948 350.577L340.816 353.826L340.135 350.64L326.948 350.577Z" fill="#909090"/>
<path d="M328.544 337.362L340.78 349.602L340.873 347.601L328.544 337.362Z" fill="#909090"/>
<path d="M216.815 448.662C216.793 447.199 216.139 444.262 215.961 443.605L219.1 441.714L219.353 447.975L216.815 448.662Z" fill="#C3D0D8"/>
<path d="M221.141 447.491L221.304 442.159L224.101 440.361L223.915 446.74L221.141 447.491Z" fill="#C3D0D8"/>
<path d="M225.697 446.257L225.861 440.926L228.183 439.256L227.655 444.873C227.605 445.401 227.234 445.842 226.723 445.98L225.697 446.257Z" fill="#C3D0D8"/>
<path d="M349.2 360.843C352.295 359.697 353.494 355.23 351.878 350.865C350.262 346.499 346.443 343.889 343.348 345.035C340.253 346.181 339.054 350.648 340.67 355.013C342.286 359.379 346.105 361.989 349.2 360.843Z" fill="#CFCFCF"/>
<path d="M350.699 360.178C353.276 359.224 354.034 354.852 352.391 350.414C350.747 345.975 347.326 343.15 344.749 344.104C342.172 345.058 341.414 349.43 343.057 353.868C344.701 358.307 348.122 361.132 350.699 360.178Z" fill="#E8E8E8"/>
<path d="M345.578 354.284C344.167 352.073 342.28 345.552 345.465 343.629C348.651 341.706 362.679 340.077 364.563 344.8C366.448 349.523 355.55 359.537 352.536 359.679C349.522 359.822 346.989 356.496 345.578 354.284Z" fill="url(#paint15_linear_106_124)"/>
<path d="M353.369 387.479C353.303 387.494 353.236 387.508 353.17 387.522C338.128 390.737 323.326 384.725 314.98 373.379C322.846 386.497 338.792 393.765 355.017 390.297C373.16 386.42 385.499 370.433 384.867 353.031C384.628 367.428 374.964 380.493 360.603 385.168C358.385 386.144 356.031 386.911 353.563 387.438C353.498 387.452 353.434 387.466 353.369 387.479Z" fill="white" fill-opacity="0.5"/>
<path fill-rule="evenodd" clip-rule="evenodd" d="M384.867 353.031C384.908 350.563 384.672 348.057 384.136 345.547C382.653 338.608 379.085 332.633 374.196 328.102C365.614 318.351 351.894 313.419 337.969 316.395C317.707 320.726 304.684 340.158 308.882 359.799C309.963 364.86 312.083 369.441 314.98 373.379C314.178 372.042 313.46 370.644 312.835 369.191C315.564 373.789 319.352 377.626 323.818 380.463C318.033 375.787 313.781 369.244 312.126 361.5C311.647 359.261 311.408 357.024 311.391 354.815C311.413 354.934 311.437 355.052 311.461 355.17C311.359 345.995 315.628 337.363 322.701 331.616C325.846 327.845 329.815 324.693 334.413 322.456C334.151 322.503 333.889 322.554 333.627 322.609C320.136 327.911 311.283 340.797 311.391 354.815C310.802 351.726 310.773 348.649 311.237 345.688C313.383 337.959 318.097 331.054 324.618 326.108C317.422 330.405 312.501 337.619 311.237 345.688C309.749 351.047 309.495 356.801 310.729 362.574C311.223 364.885 311.933 367.096 312.835 369.191C311.041 366.169 309.704 362.819 308.932 359.207C305.005 340.83 317.189 322.649 336.147 318.597C340.919 317.577 345.667 317.55 350.161 318.374C352.724 318.524 355.235 318.93 357.661 319.573C363.909 320.894 369.629 323.868 374.196 328.102C375.614 329.712 376.891 331.454 378.006 333.313C380.903 337.251 383.022 341.832 384.104 346.893C384.543 348.947 384.794 350.998 384.867 353.031ZM360.314 385.261C360.41 385.23 360.507 385.199 360.603 385.168C361.924 384.586 363.197 383.931 364.417 383.208C363.103 383.967 361.734 384.654 360.314 385.261ZM333.761 383.372C334.197 383.489 334.636 383.596 335.078 383.694C337.405 384.767 339.894 385.533 342.481 385.95C341.864 385.945 341.25 385.924 340.638 385.887C338.248 385.285 335.944 384.439 333.761 383.372ZM353.184 385.666C349.546 386.443 345.927 386.506 342.481 385.95C345.076 385.972 347.719 385.711 350.369 385.145C358.407 383.427 365.228 379.169 370.118 373.432C370.827 372.94 371.51 372.418 372.166 371.869C368.307 378.659 361.566 383.875 353.184 385.666ZM373.517 369.157C373.116 370.085 372.665 370.99 372.166 371.869C376.639 368.123 379.846 363.103 381.296 357.541C381.501 355.764 381.563 353.957 381.473 352.134C381.691 349.565 381.54 346.927 380.975 344.284C380.322 341.228 379.167 338.403 377.612 335.874C375.28 332.409 372.174 329.547 368.578 327.464C367.714 326.792 366.817 326.161 365.891 325.573C365.762 325.468 365.633 325.365 365.502 325.263C365.367 325.201 365.231 325.141 365.095 325.081C365.363 325.242 365.628 325.405 365.891 325.573C366.364 325.955 366.826 326.349 367.278 326.756C367.718 326.98 368.151 327.217 368.578 327.464C374.621 332.163 379.074 338.86 380.777 346.828C381.157 348.603 381.386 350.376 381.473 352.134C380.924 358.575 378.048 364.584 373.517 369.157ZM373.517 369.157C373.483 369.192 373.448 369.226 373.414 369.26C373.472 369.173 373.529 369.085 373.585 368.997C373.562 369.051 373.54 369.104 373.517 369.157ZM348.5 383.723C343.912 384.703 339.351 384.639 335.078 383.694C329.669 381.199 325.139 377.042 322.309 371.736C322.79 372.078 323.282 372.405 323.784 372.716C330.28 380.271 340.488 384.402 351.117 383.048C350.262 383.307 349.39 383.533 348.5 383.723ZM348.031 323.261C348.22 323.32 348.409 323.38 348.597 323.442C348.12 323.433 347.641 323.434 347.161 323.446C347.29 323.416 347.419 323.388 347.548 323.36C347.709 323.326 347.87 323.293 348.031 323.261Z" fill="white" fill-opacity="0.5"/>
<path d="M329.161 338.08C328.483 338.648 327.834 339.245 327.216 339.869C325.067 344.849 324.388 350.473 325.595 356.119C326.329 359.553 327.695 362.694 329.552 365.453C327.997 362.923 326.842 360.099 326.189 357.042C324.757 350.344 325.98 343.677 329.161 338.08Z" fill="white" fill-opacity="0.5"/>
<path d="M363.842 375.573C367.225 374.213 370.241 372.259 372.784 369.871C373.252 369.154 373.694 368.42 374.107 367.671C375.78 363.072 376.226 357.999 375.137 352.907C374.368 349.307 372.903 346.029 370.907 343.175C371.538 344.73 372.041 346.359 372.404 348.054C374.606 358.358 371.041 368.593 363.842 375.573Z" fill="white" fill-opacity="0.5"/>
<path d="M361.749 377.427C362.477 376.838 363.175 376.22 363.842 375.573C362.307 376.19 360.697 376.685 359.021 377.043C353.994 378.117 349.003 377.826 344.454 376.425C343.995 376.515 343.537 376.594 343.079 376.662C348.136 378.635 353.852 379.198 359.615 377.966C360.339 377.812 361.051 377.631 361.749 377.427Z" fill="white" fill-opacity="0.5"/>
<path fill-rule="evenodd" clip-rule="evenodd" d="M321.346 392.924C319.066 391.264 316.907 389.393 314.899 387.324C310.006 383.097 305.814 377.818 302.693 371.62C301.427 369.105 300.387 366.538 299.566 363.945C300.406 367.131 301.592 370.288 303.14 373.362C307.419 381.86 313.852 388.512 321.346 392.924ZM313.211 319.185C314.414 317.901 315.705 316.689 317.08 315.558C317.184 315.489 317.288 315.422 317.393 315.354C315.908 316.547 314.513 317.827 313.211 319.185ZM317.393 315.354C319.691 313.508 322.204 311.873 324.92 310.486C337.176 304.403 351.116 305.02 362.885 310.941C355.82 308.332 348.199 307.543 340.76 308.841C334.117 308.666 327.404 310.062 321.138 313.217C319.84 313.871 318.591 314.585 317.393 315.354ZM329.556 312.52C327.547 313.133 325.568 313.922 323.635 314.896C304.268 324.648 296.931 349.163 307.249 369.653C310.45 376.011 314.976 381.234 320.274 385.123C316.766 381.615 313.733 377.472 311.362 372.763C300.029 350.258 308.087 323.33 329.36 312.618C329.425 312.586 329.49 312.553 329.556 312.52ZM349.913 310.082C359.359 312.41 368.142 317.905 374.65 325.985C377.382 328.857 379.754 332.191 381.642 335.939C386.903 346.389 387.331 357.941 383.752 367.833C383.235 369.757 382.593 371.639 381.829 373.465C389.571 362.056 390.893 346.418 383.966 332.662C377.039 318.905 363.689 310.656 349.913 310.082ZM315.024 369.485C323.009 385.342 339.663 393.768 355.509 391.334C357.369 390.742 359.203 389.997 360.997 389.094C362.217 388.48 363.389 387.807 364.512 387.08C346.551 393.773 325.62 385.232 316.305 366.733C311.129 356.455 310.558 345.127 313.829 335.297C309.297 345.665 309.35 358.216 315.024 369.485Z" fill="#FFF9F9" fill-opacity="0.8"/>
<path d="M376.036 317.492C377.48 318.979 378.844 320.57 380.118 322.258C383.358 325.626 386.169 329.549 388.396 333.972C399.728 356.477 391.671 383.405 370.398 394.117C365.042 396.814 359.36 398.225 353.673 398.469C350.546 399.02 347.388 399.225 344.248 399.102C336.28 399.214 328.349 397.047 321.346 392.924C335.152 402.981 353.381 405.346 369.007 397.478C391.743 386.029 400.355 357.249 388.243 333.195C385.122 326.998 380.93 321.718 376.036 317.492Z" fill="#FFF9F9" fill-opacity="0.8"/>
<g opacity="0.5" filter="url(#filter0_f_106_124)">
<path d="M-120.998 653.3C66.0021 738.3 76.5956 711.44 165.502 732.8C244.598 751.8 425.004 738.46 376.002 814.8C340.903 869.48 185.991 899.59 12.5022 900.8C-424.566 903.85 -1076.55 823.52 -1128.61 814.16C-1201.33 801.09 -1094.38 585.57 -946.592 599.66C-798.807 613.75 -781.499 704.8 -616.499 663.3C-451.499 621.8 -307.998 568.3 -120.998 653.3Z" fill="url(#paint16_linear_106_124)"/>
</g>
<g opacity="0.5" filter="url(#filter1_f_106_124)">
<path d="M2485.35 117.439C2817.04 202.682 3109.85 76.347 3109.85 76.347L3143.85 679.85L1425.96 371.181C1353.23 358.114 1275.2 247.47 1455.35 232.622C1635.5 217.775 1700 218 1899.5 153.5C2099 89 2153.65 32.196 2485.35 117.439Z" fill="url(#paint17_linear_106_124)"/>
</g>
<g opacity="0.5" filter="url(#filter2_f_106_124)">
<path d="M2435.82 120.56C2767.51 205.803 3060.32 79.468 3060.32 79.468L3094.32 682.97C3094.32 682.97 869.171 506.52 796.446 493.46C723.721 480.39 1203.29 196.303 1383.45 181.456C1563.6 166.608 1735.95 98.456 1935.45 33.956C2134.95 -30.544 2104.13 35.317 2435.82 120.56Z" fill="url(#paint18_linear_106_124)"/>
</g>
<g opacity="0.75" filter="url(#filter3_df_106_124)">
<path fill-rule="evenodd" clip-rule="evenodd" d="M1477.53 237.566C1486.37 227.34 1499.64 220.679 1514.56 220.203C1516.97 215.679 1522.57 212.51 1529.09 212.51C1537.81 212.51 1544.89 218.186 1544.89 225.188C1544.89 226.282 1544.72 227.344 1544.39 228.358C1557.65 236.897 1566.35 251.307 1566.35 267.644C1566.35 290.128 1549.86 308.962 1527.71 313.867C1503.71 320.93 1456.99 325.722 1403.29 325.722C1333.06 325.722 1274.77 317.525 1263.62 306.772C1252.25 299.147 1245 287.619 1245 274.72C1245 257.13 1258.47 242.091 1277.51 236.02C1274.69 232.653 1273.02 228.498 1273.02 224.004C1273.02 212.768 1283.43 203.66 1296.28 203.66C1301.02 203.66 1305.43 204.903 1309.11 207.036C1319.37 186.895 1341.13 173 1366.32 173C1394.27 173 1418.01 190.107 1426.49 213.87C1430.03 212.983 1433.74 212.51 1437.57 212.51C1455.47 212.51 1470.84 222.823 1477.53 237.566Z" fill="url(#paint19_linear_106_124)"/>
</g>
<g opacity="0.75" filter="url(#filter4_df_106_124)">
<path fill-rule="evenodd" clip-rule="evenodd" d="M2017.15 318.943C2027.69 306.757 2043.5 298.819 2061.28 298.252C2064.15 292.861 2070.82 289.084 2078.59 289.084C2088.99 289.084 2097.42 295.848 2097.42 304.192C2097.42 305.497 2097.21 306.763 2096.83 307.97C2112.62 318.147 2123 335.319 2123 354.787C2123 381.582 2103.35 404.025 2076.96 409.872C2048.35 418.288 1992.68 424 1928.68 424C1844.99 424 1775.53 414.231 1762.23 401.418C1748.68 392.331 1740.04 378.593 1740.04 363.22C1740.04 342.257 1756.1 324.336 1778.79 317.101C1775.43 313.088 1773.44 308.138 1773.44 302.781C1773.44 289.392 1785.85 278.538 1801.15 278.538C1806.8 278.538 1812.06 280.019 1816.44 282.56C1828.67 258.559 1854.61 242 1884.63 242C1917.93 242 1946.22 262.386 1956.32 290.705C1960.54 289.647 1964.97 289.084 1969.53 289.084C1990.86 289.084 2009.17 301.374 2017.15 318.943Z" fill="url(#paint20_linear_106_124)"/>
</g>
<g filter="url(#filter5_d_106_124)">
<path d="M366.065 800.119C370.019 800.119 373.224 796.914 373.224 792.96C373.224 789.006 370.019 785.801 366.065 785.801C362.111 785.801 358.906 789.006 358.906 792.96C358.906 796.914 362.111 800.119 366.065 800.119Z" fill="white"/>
</g>
<g opacity="0.8" filter="url(#filter6_df_106_124)">
<path fill-rule="evenodd" clip-rule="evenodd" d="M99.7626 722.28C54.3691 717.49 9.91104 712.8 -120.998 653.3C-143.49 643.08 -165.354 634.86 -186.701 628.38C-181.576 627.46 -175.814 627.32 -169.814 628.12C-162.783 629.07 -156.41 631.18 -151.244 634.02C-133.361 616.1 -99.2629 606.65 -61.9353 611.66C-20.5194 617.21 12.3722 638.89 21.7818 664.12C27.1426 663.95 32.7089 664.22 38.3836 664.98C64.8983 668.53 86.3045 681.81 94.2551 697.75C108.724 689.38 129.265 685.41 151.435 687.91C155.612 683.9 164.329 681.87 173.991 683.17C186.921 684.9 196.648 691.93 195.717 698.87C195.572 699.96 195.174 700.98 194.557 701.92C211.555 712.11 222.209 726.45 222.151 741.27C200.993 739.08 181.242 736.58 165.502 732.8C138.834 726.4 119.212 724.33 99.7626 722.28Z" fill="url(#paint21_linear_106_124)"/>
</g>
<defs>
<filter id="filter0_f_106_124" x="-1159.95" y="591.044" width="1552.22" height="317.795" filterUnits="userSpaceOnUse" color-interpolation-filters="sRGB">
<feFlood flood-opacity="0" result="BackgroundImageFix"/>
<feBlend mode="normal" in="SourceGraphic" in2="BackgroundImageFix" result="shape"/>
<feGaussianBlur stdDeviation="3.97714" result="effect1_foregroundBlur_106_124"/>
</filter>
<filter id="filter1_f_106_124" x="1337.02" y="66.3807" width="1814.78" height="621.424" filterUnits="userSpaceOnUse" color-interpolation-filters="sRGB">
<feFlood flood-opacity="0" result="BackgroundImageFix"/>
<feBlend mode="normal" in="SourceGraphic" in2="BackgroundImageFix" result="shape"/>
<feGaussianBlur stdDeviation="3.97714" result="effect1_foregroundBlur_106_124"/>
</filter>
<filter id="filter2_f_106_124" x="781.046" y="0.0460863" width="2321.23" height="690.878" filterUnits="userSpaceOnUse" color-interpolation-filters="sRGB">
<feFlood flood-opacity="0" result="BackgroundImageFix"/>
<feBlend mode="normal" in="SourceGraphic" in2="BackgroundImageFix" result="shape"/>
<feGaussianBlur stdDeviation="3.97714" result="effect1_foregroundBlur_106_124"/>
</filter>
<filter id="filter3_df_106_124" x="1204.86" y="138.33" width="379.741" height="211.113" filterUnits="userSpaceOnUse" color-interpolation-filters="sRGB">
<feFlood flood-opacity="0" result="BackgroundImageFix"/>
<feColorMatrix in="SourceAlpha" type="matrix" values="0 0 0 0 0 0 0 0 0 0 0 0 0 0 0 0 0 0 127 0" result="hardAlpha"/>
<feOffset dx="-10.9484" dy="-5.47418"/>
<feGaussianBlur stdDeviation="14.5978"/>
<feComposite in2="hardAlpha" operator="out"/>
<feColorMatrix type="matrix" values="0 0 0 0 1 0 0 0 0 1 0 0 0 0 1 0 0 0 0.57 0"/>
<feBlend mode="normal" in2="BackgroundImageFix" result="effect1_dropShadow_106_124"/>
<feBlend mode="normal" in="SourceGraphic" in2="effect1_dropShadow_106_124" result="shape"/>
<feGaussianBlur stdDeviation="3.64945" result="effect2_foregroundBlur_106_124"/>
</filter>
<filter id="filter4_df_106_124" x="1699.9" y="207.33" width="441.351" height="240.391" filterUnits="userSpaceOnUse" color-interpolation-filters="sRGB">
<feFlood flood-opacity="0" result="BackgroundImageFix"/>
<feColorMatrix in="SourceAlpha" type="matrix" values="0 0 0 0 0 0 0 0 0 0 0 0 0 0 0 0 0 0 127 0" result="hardAlpha"/>
<feOffset dx="-10.9484" dy="-5.47418"/>
<feGaussianBlur stdDeviation="14.5978"/>
<feComposite in2="hardAlpha" operator="out"/>
<feColorMatrix type="matrix" values="0 0 0 0 1 0 0 0 0 1 0 0 0 0 1 0 0 0 0.57 0"/>
<feBlend mode="normal" in2="BackgroundImageFix" result="effect1_dropShadow_106_124"/>
<feBlend mode="normal" in="SourceGraphic" in2="effect1_dropShadow_106_124" result="shape"/>
<feGaussianBlur stdDeviation="3.64945" result="effect2_foregroundBlur_106_124"/>
</filter>
<filter id="filter5_d_106_124" x="339.816" y="766.711" width="62.0433" height="62.0434" filterUnits="userSpaceOnUse" color-interpolation-filters="sRGB">
<feFlood flood-opacity="0" result="BackgroundImageFix"/>
<feColorMatrix in="SourceAlpha" type="matrix" values="0 0 0 0 0 0 0 0 0 0 0 0 0 0 0 0 0 0 127 0" result="hardAlpha"/>
<feOffset dx="4.77257" dy="4.77257"/>
<feGaussianBlur stdDeviation="11.9314"/>
<feComposite in2="hardAlpha" operator="out"/>
<feColorMatrix type="matrix" values="0 0 0 0 1 0 0 0 0 0.938167 0 0 0 0 0.779167 0 0 0 1 0"/>
<feBlend mode="normal" in2="BackgroundImageFix" result="effect1_dropShadow_106_124"/>
<feBlend mode="normal" in="SourceGraphic" in2="effect1_dropShadow_106_124" result="shape"/>
</filter>
<filter id="filter6_df_106_124" x="-226.845" y="575.655" width="467.243" height="189.336" filterUnits="userSpaceOnUse" color-interpolation-filters="sRGB">
<feFlood flood-opacity="0" result="BackgroundImageFix"/>
<feColorMatrix in="SourceAlpha" type="matrix" values="0 0 0 0 0 0 0 0 0 0 0 0 0 0 0 0 0 0 127 0" result="hardAlpha"/>
<feOffset dx="-10.9484" dy="-5.47418"/>
<feGaussianBlur stdDeviation="14.5978"/>
<feComposite in2="hardAlpha" operator="out"/>
<feColorMatrix type="matrix" values="0 0 0 0 1 0 0 0 0 1 0 0 0 0 1 0 0 0 0.57 0"/>
<feBlend mode="normal" in2="BackgroundImageFix" result="effect1_dropShadow_106_124"/>
<feBlend mode="normal" in="SourceGraphic" in2="effect1_dropShadow_106_124" result="shape"/>
<feGaussianBlur stdDeviation="3.64945" result="effect2_foregroundBlur_106_124"/>
</filter>
<linearGradient id="paint0_linear_106_124" x1="88.2209" y1="536.54" x2="-46.2025" y2="442.634" gradientUnits="userSpaceOnUse">
<stop stop-color="#FFEEEE" stop-opacity="0.8"/>
<stop offset="1" stop-color="white" stop-opacity="0"/>
</linearGradient>
<linearGradient id="paint1_linear_106_124" x1="90.9518" y1="562.78" x2="-41.4515" y2="470.29" gradientUnits="userSpaceOnUse">
<stop stop-color="#FFEEEE" stop-opacity="0.8"/>
<stop offset="1" stop-color="white" stop-opacity="0"/>
</linearGradient>
<linearGradient id="paint2_linear_106_124" x1="119.718" y1="590.33" x2="-20.7512" y2="511.74" gradientUnits="userSpaceOnUse">
<stop stop-color="#FFEEEE" stop-opacity="0.8"/>
<stop offset="1" stop-color="white" stop-opacity="0"/>
</linearGradient>
<linearGradient id="paint3_linear_106_124" x1="297.541" y1="286.631" x2="306.414" y2="378.05" gradientUnits="userSpaceOnUse">
<stop stop-color="#F1C6C6"/>
<stop offset="1" stop-color="#294763"/>
</linearGradient>
<linearGradient id="paint4_linear_106_124" x1="264.605" y1="344.122" x2="284.171" y2="435.673" gradientUnits="userSpaceOnUse">
<stop stop-color="#86A2C4"/>
<stop offset="1" stop-color="#5A4E67"/>
</linearGradient>
<linearGradient id="paint5_linear_106_124" x1="410.691" y1="301.716" x2="423.458" y2="366.877" gradientUnits="userSpaceOnUse">
<stop stop-color="#D9D9D9"/>
<stop offset="1" stop-color="#A7A7A7"/>
</linearGradient>
<linearGradient id="paint6_linear_106_124" x1="410.691" y1="301.716" x2="423.458" y2="366.877" gradientUnits="userSpaceOnUse">
<stop stop-color="#D9D9D9"/>
<stop offset="1" stop-color="#A7A7A7"/>
</linearGradient>
<linearGradient id="paint7_linear_106_124" x1="180.406" y1="340.199" x2="174.069" y2="420.73" gradientUnits="userSpaceOnUse">
<stop stop-color="#CBCBCB"/>
<stop offset="1" stop-color="#939393"/>
</linearGradient>
<linearGradient id="paint8_linear_106_124" x1="180.406" y1="340.199" x2="174.069" y2="420.73" gradientUnits="userSpaceOnUse">
<stop stop-color="#CBCBCB"/>
<stop offset="1" stop-color="#939393"/>
</linearGradient>
<linearGradient id="paint9_linear_106_124" x1="294.03" y1="349.997" x2="305.516" y2="431.488" gradientUnits="userSpaceOnUse">
<stop stop-color="#E6B6A2"/>
<stop offset="1" stop-color="#6372A8"/>
</linearGradient>
<radialGradient id="paint10_radial_106_124" cx="0" cy="0" r="1" gradientUnits="userSpaceOnUse" gradientTransform="translate(346.073 352.982) rotate(67.512) scale(25.1997 19.3655)">
<stop stop-color="#2F2F2F"/>
<stop offset="1" stop-color="#392F20"/>
</radialGradient>
<linearGradient id="paint11_linear_106_124" x1="409.596" y1="407.583" x2="389.103" y2="432.665" gradientUnits="userSpaceOnUse">
<stop stop-color="#E8B7B7"/>
<stop offset="1" stop-color="#433E58"/>
</linearGradient>
<linearGradient id="paint12_linear_106_124" x1="377.481" y1="390.678" x2="368.982" y2="433.262" gradientUnits="userSpaceOnUse">
<stop stop-color="#F4E2E2"/>
<stop offset="1" stop-color="#49465F"/>
</linearGradient>
<linearGradient id="paint13_linear_106_124" x1="320.071" y1="396.365" x2="303.998" y2="445.047" gradientUnits="userSpaceOnUse">
<stop stop-color="#E6CDCD"/>
<stop offset="1" stop-color="#65617E"/>
</linearGradient>
<linearGradient id="paint14_linear_106_124" x1="325.83" y1="426.813" x2="305.337" y2="451.894" gradientUnits="userSpaceOnUse">
<stop stop-color="#E8B7B7"/>
<stop offset="1" stop-color="#433E58"/>
</linearGradient>
<linearGradient id="paint15_linear_106_124" x1="363.322" y1="340.433" x2="346.342" y2="363.955" gradientUnits="userSpaceOnUse">
<stop stop-color="#FDE7E2"/>
<stop offset="1" stop-color="#BABABA"/>
</linearGradient>
<linearGradient id="paint16_linear_106_124" x1="-265.878" y1="413.813" x2="-314.378" y2="782.31" gradientUnits="userSpaceOnUse">
<stop stop-color="#FFDCCD"/>
<stop offset="0.688344" stop-color="#4575CA"/>
<stop offset="0.688444" stop-color="#4574CA"/>
<stop offset="1" stop-color="#4574CA" stop-opacity="0"/>
</linearGradient>
<linearGradient id="paint17_linear_106_124" x1="2246.73" y1="76" x2="2198.23" y2="444.5" gradientUnits="userSpaceOnUse">
<stop stop-color="#FFDCCD"/>
<stop offset="0.688444" stop-color="#4574CA"/>
<stop offset="1" stop-color="#4574CA" stop-opacity="0"/>
</linearGradient>
<linearGradient id="paint18_linear_106_124" x1="2197.2" y1="79.121" x2="2148.7" y2="447.621" gradientUnits="userSpaceOnUse">
<stop stop-color="#FFDCCD"/>
<stop offset="0.688444" stop-color="#4574CA"/>
<stop offset="1" stop-color="#4574CA" stop-opacity="0"/>
</linearGradient>
<linearGradient id="paint19_linear_106_124" x1="1267" y1="165" x2="1553" y2="341" gradientUnits="userSpaceOnUse">
<stop offset="0.124966" stop-color="#FEFFFB"/>
<stop offset="1" stop-color="#FEFFFB" stop-opacity="0"/>
</linearGradient>
<linearGradient id="paint20_linear_106_124" x1="1766.26" y1="232.466" x2="2107.09" y2="442.206" gradientUnits="userSpaceOnUse">
<stop offset="0.124966" stop-color="#FEFFFB"/>
<stop offset="1" stop-color="#FEFFFB" stop-opacity="0"/>
</linearGradient>
<linearGradient id="paint21_linear_106_124" x1="-63.3541" y1="623.07" x2="-355.033" y2="740.34" gradientUnits="userSpaceOnUse">
<stop stop-color="#FEFFFB"/>
<stop offset="1" stop-color="#FEFFFB" stop-opacity="0"/>
</linearGradient>
</defs>
</svg>
