<svg width="1920" height="2985" viewBox="0 0 1920 2985" fill="none" xmlns="http://www.w3.org/2000/svg">
<g clip-path="url(#clip0_0_2889)">
<path d="M176.862 954.535C176.862 954.535 140.639 979.846 107.931 1002.17C67.0453 1030.07 13.3204 1025.31 -37.7423 1026.94C-78.5924 1028.25 -116.092 1082.95 -131.466 1120.27" stroke="url(#paint0_linear_0_2889)" stroke-width="5.07821" stroke-dasharray="10.16 10.16"/>
<path d="M179.405 981.057C179.405 981.057 143.471 1005.75 110.763 1028.08C69.8776 1055.98 20.3157 1070.98 -30.7469 1072.61C-71.597 1073.92 -113.26 1108.86 -128.633 1146.18" stroke="url(#paint1_linear_0_2889)" stroke-width="5.07821" stroke-dasharray="10.16 10.16"/>
<path d="M195.253 999.909C195.253 999.909 162.446 1027.29 132.572 1052.05C95.2288 1083 48.5065 1101.12 -0.698442 1105.54C-40.0624 1109.08 -77.6123 1147.32 -89.5807 1186.62" stroke="url(#paint2_linear_0_2889)" stroke-width="5.07821" stroke-dasharray="10.16 10.16"/>
<path d="M123.84 891.187C118.138 893.204 110.576 898.403 107.649 903.61C104.722 908.818 109.068 913.365 111.781 915.572C114.494 917.779 117.818 918.464 123.22 918.46C128.622 918.456 429.579 867.392 441.249 861.911C452.919 856.431 466.126 845.011 469.151 840.618C472.175 836.226 472.233 833.205 465.748 831.685C459.264 830.165 129.542 889.169 123.84 891.187Z" fill="url(#paint3_linear_0_2889)"/>
<path d="M198.884 931.962C201.478 932.647 210.187 940.962 214.501 943.756C218.815 946.551 230.728 954.603 230.566 952.859C230.404 951.115 291.798 901.543 290.505 903.871C289.212 906.198 281.865 916.524 283.142 916.298C284.419 916.071 326.633 875.39 330.607 876.655C334.58 877.919 363.43 916.046 363.296 918.927C363.162 921.807 351.778 938.517 335.357 949.666C318.936 960.815 236.209 985.519 234.29 986.25C232.37 986.98 231.118 991.701 228.978 994.107C226.838 996.514 217.209 998.66 215.241 997.043C213.273 995.426 184.856 953.277 184.171 948.025C183.486 942.772 196.289 931.278 198.884 931.962Z" fill="url(#paint4_linear_0_2889)"/>
<path d="M435.792 908.433L354.879 884.052L355.181 885.466L432.255 909.189L435.792 908.433Z" fill="#413F4E"/>
<path d="M365.114 902.562L409.119 857.384L410.474 857.095L365.729 905.442L365.114 902.562Z" fill="#413F4E"/>
<path d="M422.34 845.866L417.563 855.373L426.328 910.785L433.461 909.87L422.34 845.866Z" fill="url(#paint5_linear_0_2889)"/>
<path d="M412.315 912.948L405.625 867.154L409.975 862.511L418.081 911.716L412.315 912.948Z" fill="url(#paint6_linear_0_2889)"/>
<path d="M180.975 889.496L176.351 898.647L185.941 937.843L190.312 956.392L195.055 955.378L180.975 889.496Z" fill="url(#paint7_linear_0_2889)"/>
<path d="M175.578 959.541L164.864 909.41L168.414 904.639L178.796 958.853L175.578 959.541Z" fill="url(#paint8_linear_0_2889)"/>
<path d="M194.828 955.738L191.101 956.535L251.392 891.093L253.463 890.651L194.828 955.738Z" fill="#413F4E"/>
<path d="M145.63 964.285C140.277 966.106 133.109 970.442 130.245 974.551C127.381 978.661 131.292 981.902 133.752 983.446C136.211 984.989 139.279 985.343 144.297 985.068C149.316 984.793 430.307 930.814 441.3 926.057C452.293 921.3 464.877 911.947 467.809 908.453C470.74 904.958 470.877 902.657 464.896 901.826C458.914 900.996 150.982 962.463 145.63 964.285Z" fill="url(#paint9_linear_0_2889)"/>
<path d="M366.013 893.088C371.83 907.517 367.035 920.651 355.805 925.178C344.574 929.706 331.381 922.129 325.564 907.701C319.747 893.272 323.187 878.45 334.418 873.922C345.649 869.394 360.196 878.659 366.013 893.088Z" fill="#DEBF9A"/>
<path d="M363.966 892.213C369.289 905.072 365.39 918.897 355.258 923.091C345.126 927.286 333.451 919.762 328.128 906.902C322.805 894.043 325.848 880.719 335.981 876.524C346.113 872.33 358.642 879.354 363.966 892.213Z" fill="url(#paint10_radial_0_2889)"/>
<path d="M410.759 912.289L358.803 873.032L357.109 873.394L408.557 912.76L410.759 912.289Z" fill="#413F4E"/>
<path d="M261.39 927.741L191.207 903.956L191.533 905.48L259.503 928.144L261.39 927.741Z" fill="#413F4E"/>
<path d="M277.962 915.286L202.559 885.535L201.145 885.837L275.385 917.069L277.962 915.286Z" fill="#413F4E"/>
<path d="M296.442 910.306L265.045 885.7L260.666 885.403L295.397 911.763L296.442 910.306Z" fill="#413F4E"/>
<path d="M283.579 879.913L280.143 880.648L305.079 904.117L304.392 900.899L283.579 879.913Z" fill="#413F4E"/>
<path d="M390.043 965.841C391.521 972.756 389.45 979.061 385.418 979.923C381.386 980.784 376.919 975.877 375.441 968.961C373.963 962.046 375.63 956.292 380.141 954.665C384.173 953.803 388.565 958.925 390.043 965.841Z" fill="#564F69"/>
<path d="M390.043 965.841C391.521 972.756 389.45 979.061 385.418 979.923C388.255 979.523 388.862 979.428 392.719 978.362C396.576 977.297 398.822 971.196 397.344 964.28C395.866 957.365 392.421 953.24 388.087 953.165C385.282 953.001 383.413 953.146 380.141 954.665C384.173 953.803 388.565 958.925 390.043 965.841Z" fill="url(#paint11_linear_0_2889)"/>
<path d="M387.595 966.364C388.722 971.637 387.143 976.445 384.069 977.102C380.994 977.759 378.143 974.111 377.016 968.837C375.889 963.564 376.913 958.662 379.987 958.005C383.062 957.348 386.468 961.09 387.595 966.364Z" fill="#6D6F87"/>
<path d="M381.387 971.715L360.811 937.404L365.198 931.713L379.808 964.328L381.387 971.715Z" fill="url(#paint12_linear_0_2889)"/>
<path d="M306.454 977.049L309.194 950.135L314.884 943.009L311.735 990.032L306.454 977.049Z" fill="url(#paint13_linear_0_2889)"/>
<path d="M306.277 985.07C307.755 991.986 305.685 998.291 301.653 999.152C297.62 1000.01 293.154 995.106 291.676 988.191C290.198 981.275 291.864 975.521 296.375 973.895C300.407 973.033 304.799 978.154 306.277 985.07Z" fill="#564F69"/>
<path d="M306.277 985.07C307.755 991.986 305.685 998.291 301.653 999.152C304.489 998.753 305.096 998.657 308.953 997.592C312.811 996.527 315.056 990.425 313.578 983.51C312.1 976.594 308.655 972.469 304.321 972.394C301.516 972.231 299.647 972.375 296.375 973.895C300.407 973.033 304.799 978.154 306.277 985.07Z" fill="url(#paint14_linear_0_2889)"/>
<path d="M303.829 985.593C304.956 990.867 303.378 995.674 300.303 996.331C297.228 996.988 294.377 993.34 293.25 988.067C292.123 982.793 293.147 977.892 296.222 977.235C299.296 976.578 302.702 980.32 303.829 985.593Z" fill="#6D6F87"/>
<path d="M336.824 877.73L341.241 893.531L344.428 891.41L336.824 877.73Z" fill="#909090"/>
<path d="M347 877.896L345.588 891.162L348.949 891.884L347 877.896Z" fill="#909090"/>
<path d="M355.775 884.483L349.658 892.362L351.739 894.799L355.775 884.483Z" fill="#909090"/>
<path d="M361.851 892.638L352.503 896.346L353.074 899.015L361.851 892.638Z" fill="#909090"/>
<path d="M364.243 903.83L353.239 899.79L353.414 902.634L364.243 903.83Z" fill="#909090"/>
<path d="M362.27 914.875L352.52 903.725L351.23 906.611L362.27 914.875Z" fill="#909090"/>
<path d="M356.384 921.805L350.65 906.735L348.587 907.626L356.384 921.805Z" fill="#909090"/>
<path d="M346.318 922.156L347.832 907.338L345.953 906.659L346.318 922.156Z" fill="#909090"/>
<path d="M338.4 916.736L345.244 906.18L343.633 904.724L338.4 916.736Z" fill="#909090"/>
<path d="M330.04 907.629L342.915 903.797L341.055 901.584L330.04 907.629Z" fill="#909090"/>
<path d="M326.948 897.216L340.816 900.464L340.135 897.279L326.948 897.216Z" fill="#909090"/>
<path d="M328.544 884.001L340.78 896.241L340.873 894.24L328.544 884.001Z" fill="#909090"/>
<path d="M216.815 995.3C216.793 993.838 216.139 990.901 215.961 990.244L219.1 988.353L219.353 994.613L216.815 995.3Z" fill="#C3D0D8"/>
<path d="M221.141 994.13L221.304 988.798L224.101 986.999L223.915 993.379L221.141 994.13Z" fill="#C3D0D8"/>
<path d="M225.697 992.896L225.861 987.565L228.183 985.894L227.655 991.512C227.605 992.039 227.234 992.48 226.723 992.619L225.697 992.896Z" fill="#C3D0D8"/>
<ellipse cx="346.274" cy="899.578" rx="5.97533" ry="8.42822" transform="rotate(-20.3134 346.274 899.578)" fill="#CFCFCF"/>
<ellipse cx="347.724" cy="898.78" rx="4.97602" ry="8.56998" transform="rotate(-20.3134 347.724 898.78)" fill="#E8E8E8"/>
<path d="M345.578 900.923C344.167 898.711 342.28 892.191 345.465 890.268C348.651 888.344 362.679 886.716 364.563 891.439C366.448 896.162 355.55 906.175 352.536 906.318C349.522 906.461 346.989 903.135 345.578 900.923Z" fill="url(#paint15_linear_0_2889)"/>
<path d="M353.369 934.118C353.302 934.132 353.236 934.147 353.169 934.161C338.128 937.375 323.326 931.364 314.979 920.018C322.845 933.136 338.792 940.403 355.016 936.936C373.16 933.058 385.498 917.072 384.867 899.669C384.628 914.067 374.963 927.131 360.602 931.806C358.384 932.782 356.031 933.549 353.562 934.077C353.498 934.091 353.433 934.104 353.369 934.118Z" fill="white" fill-opacity="0.5"/>
<path fill-rule="evenodd" clip-rule="evenodd" d="M384.867 899.669C384.908 897.202 384.672 894.696 384.135 892.186C382.652 885.246 379.084 879.271 374.196 874.74C365.613 864.989 351.893 860.058 337.968 863.034C317.706 867.364 304.684 886.797 308.881 906.438C309.963 911.499 312.082 916.08 314.979 920.018C314.177 918.681 313.46 917.283 312.834 915.83C315.564 920.428 319.352 924.264 323.817 927.101C318.032 922.426 313.78 915.883 312.125 908.139C311.647 905.899 311.407 903.663 311.39 901.454C311.413 901.572 311.436 901.69 311.46 901.809C311.358 892.634 315.628 884.002 322.7 878.255C325.845 874.483 329.815 871.332 334.413 869.095C334.151 869.142 333.889 869.193 333.626 869.247C320.136 874.549 311.283 887.435 311.39 901.454C310.801 898.364 310.772 895.288 311.236 892.327C313.383 884.598 318.096 877.693 324.617 872.747C317.421 877.043 312.501 884.257 311.236 892.327C309.748 897.685 309.494 903.44 310.728 909.213C311.222 911.524 311.932 913.735 312.834 915.83C311.04 912.808 309.703 909.457 308.931 905.846C305.004 887.469 317.188 869.287 336.146 865.236C340.919 864.216 345.666 864.189 350.161 865.012C352.724 865.162 355.235 865.569 357.661 866.211C363.908 867.533 369.628 870.506 374.196 874.74C375.613 876.351 376.891 878.093 378.006 879.952C380.903 883.89 383.022 888.471 384.103 893.532C384.542 895.585 384.793 897.637 384.867 899.669ZM360.313 931.899C360.41 931.869 360.506 931.838 360.602 931.806C361.923 931.225 363.196 930.57 364.417 929.847C363.103 930.606 361.733 931.293 360.313 931.899ZM333.761 930.011C334.197 930.128 334.636 930.235 335.078 930.333C337.404 931.406 339.894 932.171 342.481 932.589C341.863 932.584 341.249 932.563 340.638 932.526C338.248 931.924 335.943 931.078 333.761 930.011ZM353.183 932.305C349.546 933.082 345.927 933.145 342.481 932.589C345.076 932.61 347.718 932.35 350.368 931.784C358.407 930.066 365.227 925.807 370.118 920.071C370.827 919.579 371.509 919.057 372.165 918.508C368.307 925.297 361.566 930.513 353.183 932.305ZM373.516 915.796C373.116 916.723 372.665 917.629 372.165 918.508C376.638 914.761 379.845 909.742 381.296 904.18C381.501 902.402 381.563 900.595 381.472 898.773C381.691 896.204 381.539 893.566 380.974 890.923C380.321 887.866 379.167 885.042 377.611 882.512C375.279 879.048 372.174 876.186 368.577 874.102C367.713 873.43 366.817 872.799 365.891 872.211C365.762 872.107 365.632 872.004 365.502 871.901C365.366 871.84 365.231 871.779 365.094 871.72C365.362 871.88 365.628 872.044 365.891 872.211C366.364 872.593 366.826 872.988 367.277 873.394C367.717 873.619 368.151 873.855 368.577 874.102C374.621 878.802 379.074 885.498 380.777 893.467C381.156 895.242 381.385 897.014 381.472 898.773C380.924 905.213 378.048 911.222 373.516 915.796ZM373.516 915.796C373.482 915.83 373.448 915.865 373.414 915.899C373.471 915.811 373.528 915.724 373.585 915.636C373.562 915.689 373.539 915.743 373.516 915.796ZM348.5 930.361C343.912 931.342 339.35 931.278 335.078 930.333C329.668 927.838 325.138 923.681 322.308 918.375C322.789 918.717 323.281 919.044 323.784 919.355C330.279 926.91 340.487 931.04 351.116 929.687C350.262 929.946 349.389 930.171 348.5 930.361ZM348.03 869.9C348.22 869.958 348.408 870.019 348.596 870.081C348.119 870.071 347.641 870.072 347.16 870.084C347.289 870.055 347.418 870.027 347.548 869.999C347.709 869.965 347.869 869.932 348.03 869.9Z" fill="white" fill-opacity="0.5"/>
<path d="M329.16 884.719C328.482 885.287 327.833 885.884 327.215 886.508C325.067 891.488 324.388 897.111 325.594 902.758C326.328 906.192 327.695 909.332 329.552 912.091C327.996 909.562 326.842 906.737 326.189 903.681C324.757 896.983 325.979 890.316 329.16 884.719Z" fill="white" fill-opacity="0.5"/>
<path d="M363.841 922.212C367.224 920.851 370.24 918.898 372.783 916.509C373.252 915.792 373.693 915.059 374.107 914.31C375.78 909.711 376.225 904.637 375.137 899.545C374.368 895.946 372.903 892.668 370.906 889.814C371.537 891.369 372.041 892.998 372.403 894.693C374.605 904.997 371.04 915.232 363.841 922.212Z" fill="white" fill-opacity="0.5"/>
<path d="M361.748 924.065C362.476 923.477 363.174 922.858 363.841 922.212C362.307 922.829 360.697 923.324 359.021 923.682C353.994 924.756 349.002 924.465 344.453 923.064C343.995 923.154 343.536 923.233 343.079 923.3C348.135 925.274 353.852 925.837 359.615 924.605C360.339 924.45 361.05 924.27 361.748 924.065Z" fill="white" fill-opacity="0.5"/>
<path fill-rule="evenodd" clip-rule="evenodd" d="M321.346 939.563C319.066 937.902 316.906 936.032 314.899 933.963C310.006 929.736 305.814 924.457 302.693 918.259C301.426 915.744 300.386 913.177 299.565 910.583C300.405 913.77 301.592 916.926 303.139 920C307.419 928.499 313.851 935.151 321.346 939.563ZM313.211 865.824C314.414 864.54 315.704 863.327 317.079 862.196C317.183 862.128 317.288 862.06 317.393 861.993C315.908 863.186 314.513 864.466 313.211 865.824ZM317.393 861.993C319.69 860.147 322.203 858.511 324.92 857.124C337.176 851.042 351.116 851.659 362.885 857.58C355.819 854.971 348.199 854.182 340.76 855.48C334.116 855.304 327.403 856.701 321.137 859.856C319.839 860.509 318.591 861.223 317.393 861.993ZM329.555 859.159C327.547 859.771 325.567 860.561 323.634 861.534C304.267 871.286 296.931 895.802 307.248 916.291C310.45 922.649 314.975 927.873 320.273 931.762C316.765 928.253 313.733 924.111 311.361 919.402C300.029 896.896 308.087 869.969 329.359 859.257C329.424 859.224 329.49 859.192 329.555 859.159ZM349.912 856.72C359.358 859.048 368.142 864.544 374.65 872.623C377.381 875.496 379.753 878.829 381.641 882.578C386.903 893.027 387.331 904.579 383.751 914.471C383.235 916.396 382.593 918.278 381.829 920.104C389.571 908.695 390.892 893.057 383.965 879.3C377.038 865.544 363.688 857.294 349.912 856.72ZM315.024 916.123C323.009 931.981 339.662 940.407 355.508 937.973C357.368 937.381 359.203 936.636 360.997 935.732C362.216 935.118 363.388 934.446 364.511 933.719C346.55 940.411 325.62 931.87 316.304 913.371C311.129 903.093 310.558 891.765 313.829 881.935C309.296 892.304 309.349 904.855 315.024 916.123Z" fill="#FFF9F9" fill-opacity="0.8"/>
<path d="M376.036 864.13C377.479 865.618 378.844 867.208 380.118 868.897C383.358 872.264 386.168 876.188 388.395 880.611C399.728 903.116 391.67 930.044 370.398 940.755C365.042 943.452 359.359 944.864 353.673 945.108C350.545 945.658 347.388 945.864 344.248 945.741C336.279 945.852 328.349 943.686 321.346 939.563C335.151 949.62 353.381 951.985 369.006 944.117C391.742 932.668 400.354 903.888 388.242 879.834C385.121 873.636 380.929 868.357 376.036 864.13Z" fill="#FFF9F9" fill-opacity="0.8"/>
<g opacity="0.5" filter="url(#filter0_f_0_2889)">
<path d="M-120.998 1199.94C66.002 1284.94 76.5955 1258.08 165.502 1279.44C244.598 1298.44 425.004 1285.1 376.002 1361.44C340.903 1416.12 185.991 1446.23 12.5022 1447.44C-424.566 1450.49 -1076.55 1370.15 -1128.61 1360.8C-1201.33 1347.73 -1094.38 1132.21 -946.592 1146.3C-798.807 1160.39 -781.499 1251.44 -616.499 1209.94C-451.499 1168.44 -307.998 1114.94 -120.998 1199.94Z" fill="url(#paint16_linear_0_2889)"/>
</g>
<g opacity="0.5" filter="url(#filter1_f_0_2889)">
<path d="M2485.35 664.078C2817.04 749.321 3109.85 622.986 3109.85 622.986L3143.85 1226.49L1425.96 917.82C1353.23 904.753 1275.2 794.108 1455.35 779.261C1635.5 764.413 1700 764.638 1899.5 700.138C2099 635.639 2153.65 578.835 2485.35 664.078Z" fill="url(#paint17_linear_0_2889)"/>
</g>
<g opacity="0.5" filter="url(#filter2_f_0_2889)">
<path d="M2435.82 667.198C2767.51 752.441 3060.32 626.107 3060.32 626.107L3094.32 1229.61C3094.32 1229.61 869.17 1053.16 796.445 1040.09C723.72 1027.03 1203.29 742.942 1383.45 728.094C1563.6 713.247 1735.95 645.094 1935.45 580.594C2134.95 516.094 2104.13 581.955 2435.82 667.198Z" fill="url(#paint18_linear_0_2889)"/>
</g>
<g opacity="0.75" filter="url(#filter3_df_0_2889)">
<path fill-rule="evenodd" clip-rule="evenodd" d="M1477.53 784.205C1486.37 773.979 1499.64 767.318 1514.56 766.842C1516.97 762.318 1522.57 759.148 1529.09 759.148C1537.81 759.148 1544.89 764.824 1544.89 771.826C1544.89 772.921 1544.71 773.983 1544.39 774.996C1557.65 783.536 1566.35 797.945 1566.35 814.282C1566.35 836.767 1549.86 855.6 1527.71 860.506C1503.71 867.569 1456.99 872.361 1403.29 872.361C1333.06 872.361 1274.77 864.163 1263.62 853.411C1252.25 845.786 1245 834.258 1245 821.358C1245 803.768 1258.47 788.73 1277.51 782.658C1274.69 779.291 1273.02 775.137 1273.02 770.642C1273.02 759.407 1283.43 750.299 1296.28 750.299C1301.02 750.299 1305.43 751.541 1309.11 753.674C1319.37 733.534 1341.13 719.639 1366.32 719.639C1394.27 719.639 1418.01 736.746 1426.49 760.509C1430.03 759.621 1433.74 759.148 1437.57 759.148C1455.47 759.148 1470.84 769.462 1477.53 784.205Z" fill="url(#paint19_linear_0_2889)" shape-rendering="crispEdges"/>
</g>
<g opacity="0.75" filter="url(#filter4_df_0_2889)">
<path fill-rule="evenodd" clip-rule="evenodd" d="M2017.15 865.581C2027.69 853.395 2043.5 845.458 2061.27 844.891C2064.15 839.5 2070.82 835.723 2078.59 835.723C2088.99 835.723 2097.42 842.487 2097.42 850.831C2097.42 852.135 2097.21 853.401 2096.83 854.609C2112.62 864.786 2123 881.957 2123 901.426C2123 928.22 2103.35 950.664 2076.96 956.51C2048.35 964.927 1992.68 970.639 1928.68 970.639C1844.99 970.639 1775.53 960.87 1762.23 948.056C1748.68 938.97 1740.04 925.232 1740.04 909.858C1740.04 888.896 1756.1 870.975 1778.79 863.739C1775.42 859.727 1773.44 854.776 1773.44 849.42C1773.44 836.031 1785.85 825.177 1801.15 825.177C1806.8 825.177 1812.06 826.657 1816.44 829.199C1828.67 805.198 1854.61 788.639 1884.62 788.639C1917.93 788.639 1946.22 809.025 1956.32 837.344C1960.54 836.286 1964.97 835.723 1969.53 835.723C1990.86 835.723 2009.17 848.013 2017.15 865.581Z" fill="url(#paint20_linear_0_2889)" shape-rendering="crispEdges"/>
</g>
<g filter="url(#filter5_df_0_2889)">
<circle cx="391.916" cy="1212.73" r="7.55657" fill="white"/>
</g>
<g filter="url(#filter6_d_0_2889)">
<circle cx="915.73" cy="936.32" r="7.95428" fill="white"/>
</g>
<g filter="url(#filter7_df_0_2889)">
<circle cx="55.9314" cy="702.57" r="11.9314" fill="white"/>
</g>
<g filter="url(#filter8_d_0_2889)">
<circle cx="4.37486" cy="4.37486" r="4.37486" transform="matrix(-1 0 0 1 1505.15 918.023)" fill="white"/>
</g>
<g filter="url(#filter9_d_0_2889)">
<circle cx="869.571" cy="1292.67" r="3.97714" fill="white"/>
</g>
<g filter="url(#filter10_d_0_2889)">
<circle cx="1553.67" cy="1151.08" r="3.97714" fill="white"/>
</g>
<g filter="url(#filter11_d_0_2889)">
<circle cx="830.993" cy="1277.95" r="3.57943" fill="white"/>
</g>
<g filter="url(#filter12_d_0_2889)">
<circle cx="1535.37" cy="1242.56" r="2.38628" fill="white"/>
</g>
<g filter="url(#filter13_d_0_2889)">
<circle cx="1470.15" cy="1032.56" r="2.38628" fill="white"/>
</g>
<g filter="url(#filter14_d_0_2889)">
<circle cx="822.246" cy="1383.75" r="1.98857" fill="white"/>
</g>
<g filter="url(#filter15_d_0_2889)">
<circle cx="1747.75" cy="898.933" r="1.59086" fill="white"/>
</g>
<g filter="url(#filter16_d_0_2889)">
<circle cx="552.993" cy="1349.15" r="1.59086" fill="white"/>
</g>
<g filter="url(#filter17_d_0_2889)">
<circle cx="1564.8" cy="1198.01" r="7.15885" fill="white"/>
</g>
<g filter="url(#filter18_d_0_2889)">
<circle cx="1564.8" cy="1198.01" r="7.15885" fill="white"/>
</g>
<g filter="url(#filter19_df_0_2889)">
<circle cx="1564.8" cy="1198.01" r="7.15885" fill="white"/>
</g>
<g filter="url(#filter20_d_0_2889)">
<circle cx="624.159" cy="799.798" r="7.15885" fill="white"/>
</g>
<g filter="url(#filter21_d_0_2889)">
<circle cx="366.065" cy="1339.6" r="7.15885" fill="white"/>
</g>
<g opacity="0.2" filter="url(#filter22_f_0_2889)">
<path d="M1004.04 1635.05C954.481 1276.64 1961.97 1339.88 2304 1672.3C2646.02 2004.72 2089.84 2089.95 2008.38 2414.73C1926.92 2739.51 1548.68 2612.35 1201.82 2442.02C854.954 2271.68 1053.6 1993.46 1004.04 1635.05Z" fill="#783D8C"/>
</g>
<g opacity="0.2" filter="url(#filter23_f_0_2889)">
<path d="M-706.95 1405.97C-756.511 1047.56 250.981 1110.8 593.005 1443.22C935.028 1775.64 378.85 1860.87 297.391 2185.65C215.931 2510.43 -162.316 2383.27 -509.177 2212.94C-856.038 2042.6 -657.389 1764.38 -706.95 1405.97Z" fill="#783D8C"/>
</g>
<g opacity="0.2" filter="url(#filter24_f_0_2889)">
<path d="M85.5253 700.357C-69.6789 507.675 244.924 407.1 444.872 230.582C644.82 54.0637 1031.2 425.573 975.503 678.035C919.806 930.498 741.065 960.259 485.188 988.738C229.311 1017.22 240.73 893.038 85.5253 700.357Z" fill="#608996"/>
</g>
<g opacity="0.8" filter="url(#filter25_df_0_2889)">
<path fill-rule="evenodd" clip-rule="evenodd" d="M99.7625 1268.92C54.369 1264.13 9.91096 1259.44 -120.998 1199.94C-143.49 1189.72 -165.354 1181.5 -186.701 1175.02C-181.576 1174.1 -175.814 1173.96 -169.814 1174.76C-162.783 1175.7 -156.41 1177.81 -151.244 1180.66C-133.361 1162.74 -99.263 1153.29 -61.9354 1158.3C-20.5195 1163.85 12.3721 1185.52 21.7817 1210.76C27.1425 1210.59 32.7088 1210.86 38.3835 1211.62C64.8982 1215.17 86.3044 1228.45 94.255 1244.39C108.724 1236.02 129.265 1232.05 151.435 1234.54C155.612 1230.54 164.329 1228.51 173.991 1229.81C186.921 1231.54 196.648 1238.57 195.717 1245.51C195.572 1246.6 195.174 1247.62 194.557 1248.56C211.555 1258.75 222.209 1273.09 222.151 1287.9C200.993 1285.72 181.242 1283.22 165.502 1279.44C138.834 1273.03 119.212 1270.97 99.7625 1268.92Z" fill="url(#paint21_linear_0_2889)" shape-rendering="crispEdges"/>
</g>
</g>
<defs>
<filter id="filter0_f_0_2889" x="-1159.95" y="1137.68" width="1552.22" height="317.794" filterUnits="userSpaceOnUse" color-interpolation-filters="sRGB">
<feFlood flood-opacity="0" result="BackgroundImageFix"/>
<feBlend mode="normal" in="SourceGraphic" in2="BackgroundImageFix" result="shape"/>
<feGaussianBlur stdDeviation="3.97714" result="effect1_foregroundBlur_0_2889"/>
</filter>
<filter id="filter1_f_0_2889" x="1337.02" y="613.019" width="1814.78" height="621.421" filterUnits="userSpaceOnUse" color-interpolation-filters="sRGB">
<feFlood flood-opacity="0" result="BackgroundImageFix"/>
<feBlend mode="normal" in="SourceGraphic" in2="BackgroundImageFix" result="shape"/>
<feGaussianBlur stdDeviation="3.97714" result="effect1_foregroundBlur_0_2889"/>
</filter>
<filter id="filter2_f_0_2889" x="781.045" y="546.684" width="2321.23" height="690.877" filterUnits="userSpaceOnUse" color-interpolation-filters="sRGB">
<feFlood flood-opacity="0" result="BackgroundImageFix"/>
<feBlend mode="normal" in="SourceGraphic" in2="BackgroundImageFix" result="shape"/>
<feGaussianBlur stdDeviation="3.97714" result="effect1_foregroundBlur_0_2889"/>
</filter>
<filter id="filter3_df_0_2889" x="1204.86" y="684.969" width="379.745" height="211.114" filterUnits="userSpaceOnUse" color-interpolation-filters="sRGB">
<feFlood flood-opacity="0" result="BackgroundImageFix"/>
<feColorMatrix in="SourceAlpha" type="matrix" values="0 0 0 0 0 0 0 0 0 0 0 0 0 0 0 0 0 0 127 0" result="hardAlpha"/>
<feOffset dx="-10.9484" dy="-5.47418"/>
<feGaussianBlur stdDeviation="14.5978"/>
<feComposite in2="hardAlpha" operator="out"/>
<feColorMatrix type="matrix" values="0 0 0 0 1 0 0 0 0 1 0 0 0 0 1 0 0 0 0.57 0"/>
<feBlend mode="normal" in2="BackgroundImageFix" result="effect1_dropShadow_0_2889"/>
<feBlend mode="normal" in="SourceGraphic" in2="effect1_dropShadow_0_2889" result="shape"/>
<feGaussianBlur stdDeviation="3.64945" result="effect2_foregroundBlur_0_2889"/>
</filter>
<filter id="filter4_df_0_2889" x="1699.9" y="753.969" width="441.348" height="240.391" filterUnits="userSpaceOnUse" color-interpolation-filters="sRGB">
<feFlood flood-opacity="0" result="BackgroundImageFix"/>
<feColorMatrix in="SourceAlpha" type="matrix" values="0 0 0 0 0 0 0 0 0 0 0 0 0 0 0 0 0 0 127 0" result="hardAlpha"/>
<feOffset dx="-10.9484" dy="-5.47418"/>
<feGaussianBlur stdDeviation="14.5978"/>
<feComposite in2="hardAlpha" operator="out"/>
<feColorMatrix type="matrix" values="0 0 0 0 1 0 0 0 0 1 0 0 0 0 1 0 0 0 0.57 0"/>
<feBlend mode="normal" in2="BackgroundImageFix" result="effect1_dropShadow_0_2889"/>
<feBlend mode="normal" in="SourceGraphic" in2="effect1_dropShadow_0_2889" result="shape"/>
<feGaussianBlur stdDeviation="3.64945" result="effect2_foregroundBlur_0_2889"/>
</filter>
<filter id="filter5_df_0_2889" x="360.497" y="1181.31" width="62.839" height="62.8389" filterUnits="userSpaceOnUse" color-interpolation-filters="sRGB">
<feFlood flood-opacity="0" result="BackgroundImageFix"/>
<feColorMatrix in="SourceAlpha" type="matrix" values="0 0 0 0 0 0 0 0 0 0 0 0 0 0 0 0 0 0 127 0" result="hardAlpha"/>
<feOffset/>
<feGaussianBlur stdDeviation="11.9314"/>
<feComposite in2="hardAlpha" operator="out"/>
<feColorMatrix type="matrix" values="0 0 0 0 1 0 0 0 0 0.938167 0 0 0 0 0.779167 0 0 0 1 0"/>
<feBlend mode="normal" in2="BackgroundImageFix" result="effect1_dropShadow_0_2889"/>
<feBlend mode="normal" in="SourceGraphic" in2="effect1_dropShadow_0_2889" result="shape"/>
<feGaussianBlur stdDeviation="3.97714" result="effect2_foregroundBlur_0_2889"/>
</filter>
<filter id="filter6_d_0_2889" x="888.685" y="909.275" width="63.6344" height="63.6341" filterUnits="userSpaceOnUse" color-interpolation-filters="sRGB">
<feFlood flood-opacity="0" result="BackgroundImageFix"/>
<feColorMatrix in="SourceAlpha" type="matrix" values="0 0 0 0 0 0 0 0 0 0 0 0 0 0 0 0 0 0 127 0" result="hardAlpha"/>
<feOffset dx="4.77257" dy="4.77257"/>
<feGaussianBlur stdDeviation="11.9314"/>
<feComposite in2="hardAlpha" operator="out"/>
<feColorMatrix type="matrix" values="0 0 0 0 1 0 0 0 0 0.938167 0 0 0 0 0.779167 0 0 0 1 0"/>
<feBlend mode="normal" in2="BackgroundImageFix" result="effect1_dropShadow_0_2889"/>
<feBlend mode="normal" in="SourceGraphic" in2="effect1_dropShadow_0_2889" result="shape"/>
</filter>
<filter id="filter7_df_0_2889" x="20.1372" y="666.776" width="71.5885" height="71.5885" filterUnits="userSpaceOnUse" color-interpolation-filters="sRGB">
<feFlood flood-opacity="0" result="BackgroundImageFix"/>
<feColorMatrix in="SourceAlpha" type="matrix" values="0 0 0 0 0 0 0 0 0 0 0 0 0 0 0 0 0 0 127 0" result="hardAlpha"/>
<feOffset/>
<feGaussianBlur stdDeviation="11.9314"/>
<feComposite in2="hardAlpha" operator="out"/>
<feColorMatrix type="matrix" values="0 0 0 0 1 0 0 0 0 0.938167 0 0 0 0 0.779167 0 0 0 1 0"/>
<feBlend mode="normal" in2="BackgroundImageFix" result="effect1_dropShadow_0_2889"/>
<feBlend mode="normal" in="SourceGraphic" in2="effect1_dropShadow_0_2889" result="shape"/>
<feGaussianBlur stdDeviation="3.97714" result="effect2_foregroundBlur_0_2889"/>
</filter>
<filter id="filter8_d_0_2889" x="1477.31" y="898.933" width="56.4757" height="56.4754" filterUnits="userSpaceOnUse" color-interpolation-filters="sRGB">
<feFlood flood-opacity="0" result="BackgroundImageFix"/>
<feColorMatrix in="SourceAlpha" type="matrix" values="0 0 0 0 0 0 0 0 0 0 0 0 0 0 0 0 0 0 127 0" result="hardAlpha"/>
<feOffset dx="4.77257" dy="4.77257"/>
<feGaussianBlur stdDeviation="11.9314"/>
<feComposite in2="hardAlpha" operator="out"/>
<feColorMatrix type="matrix" values="0 0 0 0 1 0 0 0 0 0.938167 0 0 0 0 0.779167 0 0 0 1 0"/>
<feBlend mode="normal" in2="BackgroundImageFix" result="effect1_dropShadow_0_2889"/>
<feBlend mode="normal" in="SourceGraphic" in2="effect1_dropShadow_0_2889" result="shape"/>
</filter>
<filter id="filter9_d_0_2889" x="846.503" y="1269.6" width="55.6798" height="55.6799" filterUnits="userSpaceOnUse" color-interpolation-filters="sRGB">
<feFlood flood-opacity="0" result="BackgroundImageFix"/>
<feColorMatrix in="SourceAlpha" type="matrix" values="0 0 0 0 0 0 0 0 0 0 0 0 0 0 0 0 0 0 127 0" result="hardAlpha"/>
<feOffset dx="4.77257" dy="4.77257"/>
<feGaussianBlur stdDeviation="11.9314"/>
<feComposite in2="hardAlpha" operator="out"/>
<feColorMatrix type="matrix" values="0 0 0 0 1 0 0 0 0 0.938167 0 0 0 0 0.779167 0 0 0 1 0"/>
<feBlend mode="normal" in2="BackgroundImageFix" result="effect1_dropShadow_0_2889"/>
<feBlend mode="normal" in="SourceGraphic" in2="effect1_dropShadow_0_2889" result="shape"/>
</filter>
<filter id="filter10_d_0_2889" x="1530.6" y="1128.02" width="55.6798" height="55.6799" filterUnits="userSpaceOnUse" color-interpolation-filters="sRGB">
<feFlood flood-opacity="0" result="BackgroundImageFix"/>
<feColorMatrix in="SourceAlpha" type="matrix" values="0 0 0 0 0 0 0 0 0 0 0 0 0 0 0 0 0 0 127 0" result="hardAlpha"/>
<feOffset dx="4.77257" dy="4.77257"/>
<feGaussianBlur stdDeviation="11.9314"/>
<feComposite in2="hardAlpha" operator="out"/>
<feColorMatrix type="matrix" values="0 0 0 0 1 0 0 0 0 0.938167 0 0 0 0 0.779167 0 0 0 1 0"/>
<feBlend mode="normal" in2="BackgroundImageFix" result="effect1_dropShadow_0_2889"/>
<feBlend mode="normal" in="SourceGraphic" in2="effect1_dropShadow_0_2889" result="shape"/>
</filter>
<filter id="filter11_d_0_2889" x="808.324" y="1255.28" width="54.8844" height="54.8845" filterUnits="userSpaceOnUse" color-interpolation-filters="sRGB">
<feFlood flood-opacity="0" result="BackgroundImageFix"/>
<feColorMatrix in="SourceAlpha" type="matrix" values="0 0 0 0 0 0 0 0 0 0 0 0 0 0 0 0 0 0 127 0" result="hardAlpha"/>
<feOffset dx="4.77257" dy="4.77257"/>
<feGaussianBlur stdDeviation="11.9314"/>
<feComposite in2="hardAlpha" operator="out"/>
<feColorMatrix type="matrix" values="0 0 0 0 1 0 0 0 0 0.938167 0 0 0 0 0.779167 0 0 0 1 0"/>
<feBlend mode="normal" in2="BackgroundImageFix" result="effect1_dropShadow_0_2889"/>
<feBlend mode="normal" in="SourceGraphic" in2="effect1_dropShadow_0_2889" result="shape"/>
</filter>
<filter id="filter12_d_0_2889" x="1513.9" y="1221.08" width="52.4982" height="52.4983" filterUnits="userSpaceOnUse" color-interpolation-filters="sRGB">
<feFlood flood-opacity="0" result="BackgroundImageFix"/>
<feColorMatrix in="SourceAlpha" type="matrix" values="0 0 0 0 0 0 0 0 0 0 0 0 0 0 0 0 0 0 127 0" result="hardAlpha"/>
<feOffset dx="4.77257" dy="4.77257"/>
<feGaussianBlur stdDeviation="11.9314"/>
<feComposite in2="hardAlpha" operator="out"/>
<feColorMatrix type="matrix" values="0 0 0 0 1 0 0 0 0 0.938167 0 0 0 0 0.779167 0 0 0 1 0"/>
<feBlend mode="normal" in2="BackgroundImageFix" result="effect1_dropShadow_0_2889"/>
<feBlend mode="normal" in="SourceGraphic" in2="effect1_dropShadow_0_2889" result="shape"/>
</filter>
<filter id="filter13_d_0_2889" x="1448.67" y="1011.09" width="52.4982" height="52.4982" filterUnits="userSpaceOnUse" color-interpolation-filters="sRGB">
<feFlood flood-opacity="0" result="BackgroundImageFix"/>
<feColorMatrix in="SourceAlpha" type="matrix" values="0 0 0 0 0 0 0 0 0 0 0 0 0 0 0 0 0 0 127 0" result="hardAlpha"/>
<feOffset dx="4.77257" dy="4.77257"/>
<feGaussianBlur stdDeviation="11.9314"/>
<feComposite in2="hardAlpha" operator="out"/>
<feColorMatrix type="matrix" values="0 0 0 0 1 0 0 0 0 0.938167 0 0 0 0 0.779167 0 0 0 1 0"/>
<feBlend mode="normal" in2="BackgroundImageFix" result="effect1_dropShadow_0_2889"/>
<feBlend mode="normal" in="SourceGraphic" in2="effect1_dropShadow_0_2889" result="shape"/>
</filter>
<filter id="filter14_d_0_2889" x="801.168" y="1362.67" width="51.7027" height="51.7029" filterUnits="userSpaceOnUse" color-interpolation-filters="sRGB">
<feFlood flood-opacity="0" result="BackgroundImageFix"/>
<feColorMatrix in="SourceAlpha" type="matrix" values="0 0 0 0 0 0 0 0 0 0 0 0 0 0 0 0 0 0 127 0" result="hardAlpha"/>
<feOffset dx="4.77257" dy="4.77257"/>
<feGaussianBlur stdDeviation="11.9314"/>
<feComposite in2="hardAlpha" operator="out"/>
<feColorMatrix type="matrix" values="0 0 0 0 1 0 0 0 0 0.938167 0 0 0 0 0.779167 0 0 0 1 0"/>
<feBlend mode="normal" in2="BackgroundImageFix" result="effect1_dropShadow_0_2889"/>
<feBlend mode="normal" in="SourceGraphic" in2="effect1_dropShadow_0_2889" result="shape"/>
</filter>
<filter id="filter15_d_0_2889" x="1727.07" y="878.252" width="50.9073" height="50.9073" filterUnits="userSpaceOnUse" color-interpolation-filters="sRGB">
<feFlood flood-opacity="0" result="BackgroundImageFix"/>
<feColorMatrix in="SourceAlpha" type="matrix" values="0 0 0 0 0 0 0 0 0 0 0 0 0 0 0 0 0 0 127 0" result="hardAlpha"/>
<feOffset dx="4.77257" dy="4.77257"/>
<feGaussianBlur stdDeviation="11.9314"/>
<feComposite in2="hardAlpha" operator="out"/>
<feColorMatrix type="matrix" values="0 0 0 0 1 0 0 0 0 0.938167 0 0 0 0 0.779167 0 0 0 1 0"/>
<feBlend mode="normal" in2="BackgroundImageFix" result="effect1_dropShadow_0_2889"/>
<feBlend mode="normal" in="SourceGraphic" in2="effect1_dropShadow_0_2889" result="shape"/>
</filter>
<filter id="filter16_d_0_2889" x="532.312" y="1328.46" width="50.9073" height="50.9075" filterUnits="userSpaceOnUse" color-interpolation-filters="sRGB">
<feFlood flood-opacity="0" result="BackgroundImageFix"/>
<feColorMatrix in="SourceAlpha" type="matrix" values="0 0 0 0 0 0 0 0 0 0 0 0 0 0 0 0 0 0 127 0" result="hardAlpha"/>
<feOffset dx="4.77257" dy="4.77257"/>
<feGaussianBlur stdDeviation="11.9314"/>
<feComposite in2="hardAlpha" operator="out"/>
<feColorMatrix type="matrix" values="0 0 0 0 1 0 0 0 0 0.938167 0 0 0 0 0.779167 0 0 0 1 0"/>
<feBlend mode="normal" in2="BackgroundImageFix" result="effect1_dropShadow_0_2889"/>
<feBlend mode="normal" in="SourceGraphic" in2="effect1_dropShadow_0_2889" result="shape"/>
</filter>
<filter id="filter17_d_0_2889" x="1538.55" y="1171.77" width="62.0431" height="62.0434" filterUnits="userSpaceOnUse" color-interpolation-filters="sRGB">
<feFlood flood-opacity="0" result="BackgroundImageFix"/>
<feColorMatrix in="SourceAlpha" type="matrix" values="0 0 0 0 0 0 0 0 0 0 0 0 0 0 0 0 0 0 127 0" result="hardAlpha"/>
<feOffset dx="4.77257" dy="4.77257"/>
<feGaussianBlur stdDeviation="11.9314"/>
<feComposite in2="hardAlpha" operator="out"/>
<feColorMatrix type="matrix" values="0 0 0 0 1 0 0 0 0 0.938167 0 0 0 0 0.779167 0 0 0 1 0"/>
<feBlend mode="normal" in2="BackgroundImageFix" result="effect1_dropShadow_0_2889"/>
<feBlend mode="normal" in="SourceGraphic" in2="effect1_dropShadow_0_2889" result="shape"/>
</filter>
<filter id="filter18_d_0_2889" x="1538.55" y="1171.77" width="62.0431" height="62.0434" filterUnits="userSpaceOnUse" color-interpolation-filters="sRGB">
<feFlood flood-opacity="0" result="BackgroundImageFix"/>
<feColorMatrix in="SourceAlpha" type="matrix" values="0 0 0 0 0 0 0 0 0 0 0 0 0 0 0 0 0 0 127 0" result="hardAlpha"/>
<feOffset dx="4.77257" dy="4.77257"/>
<feGaussianBlur stdDeviation="11.9314"/>
<feComposite in2="hardAlpha" operator="out"/>
<feColorMatrix type="matrix" values="0 0 0 0 1 0 0 0 0 0.938167 0 0 0 0 0.779167 0 0 0 1 0"/>
<feBlend mode="normal" in2="BackgroundImageFix" result="effect1_dropShadow_0_2889"/>
<feBlend mode="normal" in="SourceGraphic" in2="effect1_dropShadow_0_2889" result="shape"/>
</filter>
<filter id="filter19_df_0_2889" x="1533.78" y="1166.99" width="62.0431" height="62.0434" filterUnits="userSpaceOnUse" color-interpolation-filters="sRGB">
<feFlood flood-opacity="0" result="BackgroundImageFix"/>
<feColorMatrix in="SourceAlpha" type="matrix" values="0 0 0 0 0 0 0 0 0 0 0 0 0 0 0 0 0 0 127 0" result="hardAlpha"/>
<feOffset/>
<feGaussianBlur stdDeviation="11.9314"/>
<feComposite in2="hardAlpha" operator="out"/>
<feColorMatrix type="matrix" values="0 0 0 0 1 0 0 0 0 0.938167 0 0 0 0 0.779167 0 0 0 1 0"/>
<feBlend mode="normal" in2="BackgroundImageFix" result="effect1_dropShadow_0_2889"/>
<feBlend mode="normal" in="SourceGraphic" in2="effect1_dropShadow_0_2889" result="shape"/>
<feGaussianBlur stdDeviation="3.97714" result="effect2_foregroundBlur_0_2889"/>
</filter>
<filter id="filter20_d_0_2889" x="597.91" y="773.548" width="62.0436" height="62.0433" filterUnits="userSpaceOnUse" color-interpolation-filters="sRGB">
<feFlood flood-opacity="0" result="BackgroundImageFix"/>
<feColorMatrix in="SourceAlpha" type="matrix" values="0 0 0 0 0 0 0 0 0 0 0 0 0 0 0 0 0 0 127 0" result="hardAlpha"/>
<feOffset dx="4.77257" dy="4.77257"/>
<feGaussianBlur stdDeviation="11.9314"/>
<feComposite in2="hardAlpha" operator="out"/>
<feColorMatrix type="matrix" values="0 0 0 0 1 0 0 0 0 0.938167 0 0 0 0 0.779167 0 0 0 1 0"/>
<feBlend mode="normal" in2="BackgroundImageFix" result="effect1_dropShadow_0_2889"/>
<feBlend mode="normal" in="SourceGraphic" in2="effect1_dropShadow_0_2889" result="shape"/>
</filter>
<filter id="filter21_d_0_2889" x="339.816" y="1313.35" width="62.0436" height="62.0434" filterUnits="userSpaceOnUse" color-interpolation-filters="sRGB">
<feFlood flood-opacity="0" result="BackgroundImageFix"/>
<feColorMatrix in="SourceAlpha" type="matrix" values="0 0 0 0 0 0 0 0 0 0 0 0 0 0 0 0 0 0 127 0" result="hardAlpha"/>
<feOffset dx="4.77257" dy="4.77257"/>
<feGaussianBlur stdDeviation="11.9314"/>
<feComposite in2="hardAlpha" operator="out"/>
<feColorMatrix type="matrix" values="0 0 0 0 1 0 0 0 0 0.938167 0 0 0 0 0.779167 0 0 0 1 0"/>
<feBlend mode="normal" in2="BackgroundImageFix" result="effect1_dropShadow_0_2889"/>
<feBlend mode="normal" in="SourceGraphic" in2="effect1_dropShadow_0_2889" result="shape"/>
</filter>
<filter id="filter22_f_0_2889" x="673.269" y="1075.08" width="2059.06" height="1858.97" filterUnits="userSpaceOnUse" color-interpolation-filters="sRGB">
<feFlood flood-opacity="0" result="BackgroundImageFix"/>
<feBlend mode="normal" in="SourceGraphic" in2="BackgroundImageFix" result="shape"/>
<feGaussianBlur stdDeviation="159.086" result="effect1_foregroundBlur_0_2889"/>
</filter>
<filter id="filter23_f_0_2889" x="-1037.72" y="845.999" width="2059.06" height="1858.97" filterUnits="userSpaceOnUse" color-interpolation-filters="sRGB">
<feFlood flood-opacity="0" result="BackgroundImageFix"/>
<feBlend mode="normal" in="SourceGraphic" in2="BackgroundImageFix" result="shape"/>
<feGaussianBlur stdDeviation="159.086" result="effect1_foregroundBlur_0_2889"/>
</filter>
<filter id="filter24_f_0_2889" x="-274.251" y="-133.533" width="1573.36" height="1444.5" filterUnits="userSpaceOnUse" color-interpolation-filters="sRGB">
<feFlood flood-opacity="0" result="BackgroundImageFix"/>
<feBlend mode="normal" in="SourceGraphic" in2="BackgroundImageFix" result="shape"/>
<feGaussianBlur stdDeviation="159.086" result="effect1_foregroundBlur_0_2889"/>
</filter>
<filter id="filter25_df_0_2889" x="-226.845" y="1122.29" width="467.243" height="189.331" filterUnits="userSpaceOnUse" color-interpolation-filters="sRGB">
<feFlood flood-opacity="0" result="BackgroundImageFix"/>
<feColorMatrix in="SourceAlpha" type="matrix" values="0 0 0 0 0 0 0 0 0 0 0 0 0 0 0 0 0 0 127 0" result="hardAlpha"/>
<feOffset dx="-10.9484" dy="-5.47418"/>
<feGaussianBlur stdDeviation="14.5978"/>
<feComposite in2="hardAlpha" operator="out"/>
<feColorMatrix type="matrix" values="0 0 0 0 1 0 0 0 0 1 0 0 0 0 1 0 0 0 0.57 0"/>
<feBlend mode="normal" in2="BackgroundImageFix" result="effect1_dropShadow_0_2889"/>
<feBlend mode="normal" in="SourceGraphic" in2="effect1_dropShadow_0_2889" result="shape"/>
<feGaussianBlur stdDeviation="3.64945" result="effect2_foregroundBlur_0_2889"/>
</filter>
<linearGradient id="paint0_linear_0_2889" x1="88.221" y1="1083.18" x2="-46.2024" y2="989.273" gradientUnits="userSpaceOnUse">
<stop stop-color="#FFEEEE" stop-opacity="0.8"/>
<stop offset="1" stop-color="white" stop-opacity="0"/>
</linearGradient>
<linearGradient id="paint1_linear_0_2889" x1="90.9519" y1="1109.42" x2="-41.4514" y2="1016.93" gradientUnits="userSpaceOnUse">
<stop stop-color="#FFEEEE" stop-opacity="0.8"/>
<stop offset="1" stop-color="white" stop-opacity="0"/>
</linearGradient>
<linearGradient id="paint2_linear_0_2889" x1="119.718" y1="1136.97" x2="-20.7512" y2="1058.38" gradientUnits="userSpaceOnUse">
<stop stop-color="#FFEEEE" stop-opacity="0.8"/>
<stop offset="1" stop-color="white" stop-opacity="0"/>
</linearGradient>
<linearGradient id="paint3_linear_0_2889" x1="297.541" y1="833.27" x2="306.414" y2="924.689" gradientUnits="userSpaceOnUse">
<stop stop-color="#F1C6C6"/>
<stop offset="1" stop-color="#294763"/>
</linearGradient>
<linearGradient id="paint4_linear_0_2889" x1="264.605" y1="890.76" x2="284.171" y2="982.312" gradientUnits="userSpaceOnUse">
<stop stop-color="#86A2C4"/>
<stop offset="1" stop-color="#5A4E67"/>
</linearGradient>
<linearGradient id="paint5_linear_0_2889" x1="410.691" y1="848.355" x2="423.458" y2="913.516" gradientUnits="userSpaceOnUse">
<stop stop-color="#D9D9D9"/>
<stop offset="1" stop-color="#A7A7A7"/>
</linearGradient>
<linearGradient id="paint6_linear_0_2889" x1="410.691" y1="848.355" x2="423.458" y2="913.516" gradientUnits="userSpaceOnUse">
<stop stop-color="#D9D9D9"/>
<stop offset="1" stop-color="#A7A7A7"/>
</linearGradient>
<linearGradient id="paint7_linear_0_2889" x1="180.406" y1="886.837" x2="174.069" y2="967.369" gradientUnits="userSpaceOnUse">
<stop stop-color="#CBCBCB"/>
<stop offset="1" stop-color="#939393"/>
</linearGradient>
<linearGradient id="paint8_linear_0_2889" x1="180.406" y1="886.837" x2="174.069" y2="967.369" gradientUnits="userSpaceOnUse">
<stop stop-color="#CBCBCB"/>
<stop offset="1" stop-color="#939393"/>
</linearGradient>
<linearGradient id="paint9_linear_0_2889" x1="294.03" y1="896.636" x2="305.517" y2="978.127" gradientUnits="userSpaceOnUse">
<stop stop-color="#E6B6A2"/>
<stop offset="1" stop-color="#6372A8"/>
</linearGradient>
<radialGradient id="paint10_radial_0_2889" cx="0" cy="0" r="1" gradientUnits="userSpaceOnUse" gradientTransform="translate(346.073 899.62) rotate(67.512) scale(25.1997 19.3655)">
<stop stop-color="#2F2F2F"/>
<stop offset="1" stop-color="#392F20"/>
</radialGradient>
<linearGradient id="paint11_linear_0_2889" x1="409.596" y1="954.222" x2="389.103" y2="979.303" gradientUnits="userSpaceOnUse">
<stop stop-color="#E8B7B7"/>
<stop offset="1" stop-color="#433E58"/>
</linearGradient>
<linearGradient id="paint12_linear_0_2889" x1="377.481" y1="937.316" x2="368.982" y2="979.901" gradientUnits="userSpaceOnUse">
<stop stop-color="#F4E2E2"/>
<stop offset="1" stop-color="#49465F"/>
</linearGradient>
<linearGradient id="paint13_linear_0_2889" x1="320.071" y1="943.004" x2="303.998" y2="991.685" gradientUnits="userSpaceOnUse">
<stop stop-color="#E6CDCD"/>
<stop offset="1" stop-color="#65617E"/>
</linearGradient>
<linearGradient id="paint14_linear_0_2889" x1="325.83" y1="973.451" x2="305.337" y2="998.533" gradientUnits="userSpaceOnUse">
<stop stop-color="#E8B7B7"/>
<stop offset="1" stop-color="#433E58"/>
</linearGradient>
<linearGradient id="paint15_linear_0_2889" x1="363.322" y1="887.072" x2="346.342" y2="910.593" gradientUnits="userSpaceOnUse">
<stop stop-color="#FDE7E2"/>
<stop offset="1" stop-color="#BABABA"/>
</linearGradient>
<linearGradient id="paint16_linear_0_2889" x1="-265.878" y1="960.451" x2="-314.378" y2="1328.95" gradientUnits="userSpaceOnUse">
<stop stop-color="#FFDCCD"/>
<stop offset="0.688344" stop-color="#4575CA"/>
<stop offset="0.688444" stop-color="#4574CA"/>
<stop offset="1" stop-color="#4574CA" stop-opacity="0"/>
</linearGradient>
<linearGradient id="paint17_linear_0_2889" x1="2246.73" y1="622.639" x2="2198.23" y2="991.139" gradientUnits="userSpaceOnUse">
<stop stop-color="#FFDCCD"/>
<stop offset="0.688444" stop-color="#4574CA"/>
<stop offset="1" stop-color="#4574CA" stop-opacity="0"/>
</linearGradient>
<linearGradient id="paint18_linear_0_2889" x1="2197.2" y1="625.759" x2="2148.7" y2="994.259" gradientUnits="userSpaceOnUse">
<stop stop-color="#FFDCCD"/>
<stop offset="0.688444" stop-color="#4574CA"/>
<stop offset="1" stop-color="#4574CA" stop-opacity="0"/>
</linearGradient>
<linearGradient id="paint19_linear_0_2889" x1="1267" y1="711.639" x2="1553" y2="887.639" gradientUnits="userSpaceOnUse">
<stop offset="0.124966" stop-color="#FEFFFB"/>
<stop offset="1" stop-color="#FEFFFB" stop-opacity="0"/>
</linearGradient>
<linearGradient id="paint20_linear_0_2889" x1="1766.26" y1="779.105" x2="2107.09" y2="988.844" gradientUnits="userSpaceOnUse">
<stop offset="0.124966" stop-color="#FEFFFB"/>
<stop offset="1" stop-color="#FEFFFB" stop-opacity="0"/>
</linearGradient>
<linearGradient id="paint21_linear_0_2889" x1="-63.3542" y1="1169.71" x2="-355.033" y2="1286.98" gradientUnits="userSpaceOnUse">
<stop stop-color="#FEFFFB"/>
<stop offset="1" stop-color="#FEFFFB" stop-opacity="0"/>
</linearGradient>
<clipPath id="clip0_0_2889">
<rect width="1920" height="2984" fill="white" transform="translate(0 0.638672)"/>
</clipPath>
</defs>
</svg>
