<svg viewBox="0 0 621 526" fill="none" xmlns="http://www.w3.org/2000/svg">
<path d="M253.145 329.429L239.074 326.756L298.204 41.79L253.145 329.429Z" fill="url(#paint0_linear_943_9011)"/>
<path d="M374.255 398.315L420.648 78.5703L383.725 400.114L374.255 398.315Z" fill="url(#paint1_linear_943_9011)"/>
<path d="M170.959 346.524L48.2949 215.472L188.413 351.974L170.959 346.524Z" fill="#9B5074"/>
<path d="M263.551 340.114L189.252 332.579L191.915 327.964L266.415 334.441L263.551 340.114Z" fill="url(#paint2_linear_943_9011)"/>
<path d="M252.688 367.39L196.508 331.823L189.514 331.205L185.436 348.921L252.688 367.39Z" fill="url(#paint3_linear_943_9011)"/>
<path d="M257.57 369.778L263.666 354.541L327.486 372.358L334.912 389.415L257.57 369.778Z" fill="url(#paint4_linear_943_9011)"/>
<rect x="193.762" y="331.302" width="1.39733" height="20.96" transform="rotate(10.7596 193.762 331.302)" fill="#955F6A"/>
<rect x="198.564" y="332.217" width="1.39733" height="20.96" transform="rotate(10.7596 198.564 332.217)" fill="#955F6A"/>
<rect x="204.056" y="333.26" width="1.39733" height="20.96" transform="rotate(10.7596 204.056 333.26)" fill="#955F6A"/>
<rect x="209.27" y="334.231" width="1.39733" height="20.96" transform="rotate(13.0024 209.27 334.231)" fill="#955F6A"/>
<path d="M217.139 334.18L218.773 334.557L213.51 357.358L211.876 356.981L217.139 334.18Z" fill="#955F6A"/>
<path d="M223.754 335.343L225.388 335.72L220.125 358.521L218.491 358.144L223.754 335.343Z" fill="#955F6A"/>
<rect x="232.396" y="335.708" width="2.41477" height="26.5493" transform="rotate(15.3616 232.396 335.708)" fill="#955F6A"/>
<rect x="238.934" y="337.041" width="2.93917" height="26.5493" transform="rotate(15.3616 238.934 337.041)" fill="#955F6A"/>
<path d="M248.379 336.436L251.315 337.194L242.766 365.971L239.68 365.385L248.379 336.436Z" fill="#955F6A"/>
<path d="M257.15 338.302L260.238 338.889L250.542 368.649L247.235 368.02L257.15 338.302Z" fill="#955F6A"/>
<path d="M274.718 343.001L276.756 343.21L273.804 354.683L271.766 354.475L274.718 343.001Z" fill="#7A5669"/>
<path d="M282.738 344.347L284.776 344.556L281.825 356.029L279.787 355.82L282.738 344.347Z" fill="#7A5669"/>
<rect width="2.48698" height="13.6445" transform="matrix(0.999209 0.0397617 -0.248925 0.968523 290.691 347.961)" fill="#7A5669"/>
<rect width="3.02707" height="13.6445" transform="matrix(0.999209 0.0397617 -0.248925 0.968523 298.855 348.883)" fill="#7A5669"/>
<path d="M307.899 353.194L311.024 353.266L307.468 365.723L304.222 365.733L307.899 353.194Z" fill="#7A5669"/>
<path d="M317.161 353.246L320.41 353.236L315.862 366.187L312.384 366.198L317.161 353.246Z" fill="#7A5669"/>
<path fill-rule="evenodd" clip-rule="evenodd" d="M412.769 393.193L344.827 392.429C344.168 392.27 343.533 392.114 342.921 391.961L326.31 357.917L265.439 333.912L252.337 367.329L227.398 360.1L186.18 348.712L192.17 330.293L188.199 330.605L179.991 348.234L46.9858 308.393L48.8012 311.938C48.8012 311.938 148.459 373.191 154.575 382.176C156.757 385.382 158.248 392.938 160.039 402.012C163.267 418.37 167.468 439.661 178.445 449.295C195.512 464.272 489.312 508.724 507.46 493.683C525.609 478.641 529.92 470.926 530.603 463.589C531.214 457.024 527.867 432.345 527.155 427.219L536.435 421.671L536.103 372.893L506.362 372.22L414.53 383.927L412.769 393.193ZM268.602 341.617L265.403 350.966L326.069 368.539L323.859 359.585L268.602 341.617ZM140.168 358.814L125.997 352.92L128.414 347.69C128.414 347.69 131.337 345.401 136.698 347.131C142.059 348.861 142.241 353.518 142.241 353.518L140.168 358.814ZM143.792 360.329L157.962 366.222L160.035 360.926C160.035 360.926 159.854 356.269 154.493 354.539C149.132 352.809 146.208 355.098 146.208 355.098L143.792 360.329Z" fill="url(#paint5_linear_943_9011)"/>
<path d="M180.706 373.194L164.453 368.157L166.581 362.154C166.581 362.154 169.572 359.337 175.67 360.693C181.767 362.049 182.448 367.155 182.448 367.155L180.706 373.194Z" fill="#634040"/>
<path d="M203.566 379.587L185.431 375.199L187.393 368.777C187.393 368.777 190.499 365.651 197.27 366.737C204.04 367.822 205.102 373.147 205.102 373.147L203.566 379.587Z" fill="#634040"/>
<path d="M103.801 303.191C107.436 282.191 131.597 265.447 131.597 265.447L61.582 280.234C61.582 280.234 42.4319 294.729 38.3257 312.795C34.2194 330.861 38.8982 350.951 38.8982 350.951L113.234 350.854C113.234 350.854 100.166 324.191 103.801 303.191Z" fill="url(#paint6_linear_943_9011)"/>
<path d="M309.899 275.861C311.341 247.689 333.255 210.961 333.255 210.961L199.769 247.466C199.769 247.466 181.024 265.239 176.918 283.305C172.812 301.37 186.907 331.785 186.907 331.785L327.181 334.617C327.181 334.617 308.457 304.034 309.899 275.861Z" fill="url(#paint7_linear_943_9011)"/>
<path d="M463.077 309.949C464.52 281.776 488.708 253.659 488.708 253.659L322.939 278.34C322.939 278.34 311.424 292.153 307.12 314.804C302.815 337.455 314.695 363.181 314.695 363.181L465.686 374.805C465.686 374.805 461.635 338.122 463.077 309.949Z" fill="url(#paint8_linear_943_9011)"/>
<path d="M308.602 147.96C307.56 117.893 319.754 89.2743 319.754 89.2743L252.426 119.861C252.426 119.861 207.535 154.001 195.47 181.933C183.406 209.865 196.443 238.656 196.443 238.656L328.808 204.426C328.808 204.426 309.645 178.027 308.602 147.96Z" fill="url(#paint9_linear_943_9011)"/>
<path d="M196.136 251.398L199.321 247.737L332.354 210.078L329.039 214.427L196.136 251.398Z" fill="#826467"/>
<path d="M57.8391 283.078L59.41 280.633L131.716 265.138L128.606 268.079L57.8391 283.078Z" fill="#826467"/>
<path d="M321.114 280.463L325.565 276.548L489.87 253.167L485.135 257.894L321.114 280.463Z" fill="#826467"/>
<path d="M453.191 186.103C445.594 151.235 456.68 128.45 456.68 128.45L374.038 155.416C374.038 155.416 337.887 186.594 325.822 214.526C313.758 242.458 319.884 273.847 319.884 273.847L485.851 248.136C485.851 248.136 460.788 220.972 453.191 186.103Z" fill="url(#paint10_linear_943_9011)"/>
<path d="M371.387 158.112L373.903 155.136L458.243 127.681L455.528 131.23L371.387 158.112Z" fill="#826467"/>
<path d="M187.215 391.935C187.215 391.935 170.092 435.263 194.873 454.551C219.655 473.839 487.777 505.589 506.337 497.737C524.898 489.885 527.722 484.377 532.016 474.881C536.31 465.385 530.486 451.122 530.486 451.122C530.486 451.122 419.463 447.803 364.144 437.647C308.825 427.49 187.215 391.935 187.215 391.935Z" fill="url(#paint11_linear_943_9011)"/>
<path d="M154.921 382.242C154.921 382.242 287.948 426.947 367.641 437.955C447.333 448.964 529.882 452.429 529.882 452.429" stroke="url(#paint12_linear_943_9011)" stroke-width="3.97921"/>
<path d="M182.347 434.391L181.215 423.509C181.215 423.509 347.385 454.731 375.935 459.8C404.485 464.87 524.517 478.79 524.517 478.79L513.555 485.952C513.555 485.952 419.427 479.799 373.783 471.126C328.138 462.452 182.347 434.391 182.347 434.391Z" fill="url(#paint13_linear_943_9011)"/>
<rect x="344.097" y="406.002" width="14.1677" height="16.2637" transform="rotate(10.7596 344.097 406.002)" fill="#634040" stroke="#CA9D9D" stroke-width="1.59169"/>
<rect x="370.13" y="411.003" width="14.1677" height="16.2637" transform="rotate(7.54384 370.13 411.003)" fill="#634040" stroke="#CA9D9D" stroke-width="1.59169"/>
<rect x="397.073" y="415.073" width="14.1677" height="16.2637" transform="rotate(5.98017 397.073 415.073)" fill="#634040" stroke="#CA9D9D" stroke-width="1.59169"/>
<rect x="512.229" y="445.35" width="39.4283" height="15.0169" transform="rotate(2.60849 512.229 445.35)" fill="#554040" stroke="#CA9D9D" stroke-width="1.59169"/>
<rect x="283.202" y="88.1675" width="12.576" height="4.192" transform="rotate(15.8457 283.202 88.1675)" fill="#634040"/>
<rect x="286.243" y="80.8413" width="9.30616" height="2.72546" transform="rotate(15.8457 286.243 80.8413)" fill="#634040"/>
<rect x="408.412" y="122.476" width="12.576" height="4.192" transform="rotate(15.8457 408.412 122.476)" fill="#634040"/>
<rect x="411.777" y="115.293" width="9.30616" height="2.72546" transform="rotate(15.8457 411.777 115.293)" fill="#634040"/>
<path d="M406.779 404.145L343.288 392.08L412.363 393.472L414.058 384.549L504.991 371.96L536.04 373.237C536.04 373.237 441.709 388.736 439.111 389.309C436.513 389.883 437.467 403.576 432.957 404.853C428.448 406.129 406.779 404.145 406.779 404.145Z" fill="#3F344E"/>
<rect x="518.501" y="445.871" width="2.28112" height="14.672" transform="rotate(3.82176 518.501 445.871)" fill="#CA9D9D"/>
<rect x="526.478" y="446.018" width="2.28112" height="14.672" transform="rotate(3.82176 526.478 446.018)" fill="#CA9D9D"/>
<rect x="535.658" y="446.34" width="2.28112" height="14.672" transform="rotate(3.82176 535.658 446.34)" fill="#CA9D9D"/>
<rect x="544.158" y="446.534" width="2.28112" height="14.672" transform="rotate(3.82176 544.158 446.534)" fill="#CA9D9D"/>
<path d="M127.164 266.232L199.586 248.724" stroke="#5A5252" stroke-width="0.795843"/>
<path d="M80.6076 246.336L87.7702 205.748M87.7702 205.748L288.323 93.1367M87.7702 205.748L62.7012 228.828" stroke="#5A5252" stroke-width="0.795843"/>
<path d="M413.272 128.552L313.394 170.731" stroke="#5A5252" stroke-width="0.795843"/>
<path d="M164.969 162.376C164.969 162.376 213.913 176.472 241.768 173.518C269.622 170.563 308.22 139.694 308.22 139.694" stroke="#5A5252" stroke-width="0.795843"/>
<path d="M164.969 162.376C164.969 162.376 210.332 175.905 241.768 173.518C273.203 171.13 309.812 159.192 309.812 159.192" stroke="#5A5252" stroke-width="0.795843"/>
<path d="M164.969 162.374C164.969 162.374 210.332 175.904 241.768 173.516C273.203 171.128 308.618 150.834 308.618 150.834" stroke="#5A5252" stroke-width="0.795843"/>
<path d="M317.372 184.658C317.372 184.658 366.316 198.754 394.171 195.8C422.025 192.846 450.278 169.139 450.278 169.139" stroke="#5A5252" stroke-width="0.795843"/>
<path d="M317.372 184.658C317.372 184.658 362.735 198.188 394.171 195.8C425.607 193.412 453.063 184.26 453.063 184.26" stroke="#5A5252" stroke-width="0.795843"/>
<path d="M317.771 184.659C317.771 184.659 362.737 198.188 394.172 195.8C425.608 193.413 451.473 177.098 451.473 177.098" stroke="#5A5252" stroke-width="0.795843"/>
<defs>
<linearGradient id="paint0_linear_943_9011" x1="255.043" y1="70.5689" x2="272.579" y2="341.301" gradientUnits="userSpaceOnUse">
<stop stop-color="#FFA077"/>
<stop offset="1" stop-color="#23375A"/>
</linearGradient>
<linearGradient id="paint1_linear_943_9011" x1="432.317" y1="80.7877" x2="372.057" y2="397.897" gradientUnits="userSpaceOnUse">
<stop stop-color="#BE966D"/>
<stop offset="1" stop-color="#23375A"/>
</linearGradient>
<linearGradient id="paint2_linear_943_9011" x1="229.008" y1="327.332" x2="226.66" y2="339.687" gradientUnits="userSpaceOnUse">
<stop stop-color="#82596A"/>
<stop offset="1" stop-color="#98606A"/>
</linearGradient>
<linearGradient id="paint3_linear_943_9011" x1="196.948" y1="327.64" x2="264.133" y2="382.011" gradientUnits="userSpaceOnUse">
<stop stop-color="#603C3C"/>
<stop offset="1" stop-color="#3F4F6B"/>
</linearGradient>
<linearGradient id="paint4_linear_943_9011" x1="277.563" y1="352.517" x2="307.478" y2="400.741" gradientUnits="userSpaceOnUse">
<stop stop-color="#5E3D3F"/>
<stop offset="1" stop-color="#33425C"/>
</linearGradient>
<linearGradient id="paint5_linear_943_9011" x1="111.572" y1="284.752" x2="555.373" y2="531.59" gradientUnits="userSpaceOnUse">
<stop stop-color="#B56A6A"/>
<stop offset="1" stop-color="#143268"/>
</linearGradient>
<linearGradient id="paint6_linear_943_9011" x1="51.5403" y1="261.968" x2="140.517" y2="373.818" gradientUnits="userSpaceOnUse">
<stop stop-color="#F5EEE1"/>
<stop offset="1" stop-color="#CBC6E7"/>
</linearGradient>
<linearGradient id="paint7_linear_943_9011" x1="197.861" y1="231.102" x2="327.654" y2="333.995" gradientUnits="userSpaceOnUse">
<stop stop-color="#F7F0E1"/>
<stop offset="1" stop-color="#C5BFE2"/>
</linearGradient>
<linearGradient id="paint8_linear_943_9011" x1="358.433" y1="243.126" x2="446.705" y2="388.622" gradientUnits="userSpaceOnUse">
<stop stop-color="#F3EBE2"/>
<stop offset="1" stop-color="#D4CDE4"/>
</linearGradient>
<linearGradient id="paint9_linear_943_9011" x1="213.648" y1="119.96" x2="341.413" y2="218.556" gradientUnits="userSpaceOnUse">
<stop stop-color="#FFF6E0"/>
<stop offset="1" stop-color="#CAC9E6"/>
</linearGradient>
<linearGradient id="paint10_linear_943_9011" x1="356.019" y1="134.213" x2="478.171" y2="290.414" gradientUnits="userSpaceOnUse">
<stop stop-color="#F8F0E1"/>
<stop offset="1" stop-color="#D5D3E4"/>
</linearGradient>
<linearGradient id="paint11_linear_943_9011" x1="187.229" y1="386.248" x2="488.075" y2="515.246" gradientUnits="userSpaceOnUse">
<stop stop-color="#C88895"/>
<stop offset="1" stop-color="#555384"/>
</linearGradient>
<linearGradient id="paint12_linear_943_9011" x1="343.224" y1="392.423" x2="339.454" y2="442.2" gradientUnits="userSpaceOnUse">
<stop stop-color="#D5B6C3"/>
<stop offset="1" stop-color="#805869"/>
</linearGradient>
<linearGradient id="paint13_linear_943_9011" x1="151.811" y1="407.965" x2="487.797" y2="514.838" gradientUnits="userSpaceOnUse">
<stop stop-color="#6B5050"/>
<stop offset="0.0001" stop-color="#6F4040"/>
<stop offset="1" stop-color="#433960"/>
</linearGradient>
</defs>
</svg>
